<svg width="40" height="40" viewBox="0 0 40 40" fill="none" xmlns="http://www.w3.org/2000/svg">
<g clip-path="url(#clip0_591_6088)">
<path d="M0 20C0 21.1776 0 21.3084 0.0280636 22.3084C0.1029 24.5234 0.336763 27.0654 1.22544 29.7476C1.8522 31.6449 3.03087 33.6916 4.20954 34.9813C5.70629 36.6261 7.77361 37.9718 10.0094 38.7382C12.2919 39.5232 14.7615 39.9064 19.5603 40H20.449C25.2573 39.8971 27.7175 39.5232 30 38.7382C32.2358 37.9718 34.2938 36.6261 35.7904 34.9813C36.9693 33.6823 38.1479 31.6449 38.7746 29.7476C39.6632 27.0654 39.9064 24.514 39.9718 22.3084C40 21.3178 40 21.1776 40 20C40 18.8224 40 18.6916 39.9718 17.6916C39.8971 15.4766 39.6632 12.9346 38.7746 10.2523C38.1479 8.35514 36.9693 6.30839 35.7904 5.01868C34.2938 3.37383 32.2264 2.02804 30 1.26168C27.7175 0.476636 25.2479 0.0934579 20.449 0H19.5603C14.7521 0.102804 12.2919 0.476636 10.0094 1.26168C7.77361 2.02804 5.71561 3.37383 4.20954 5.01868C3.03087 6.31775 1.8522 8.35514 1.22544 10.2523C0.346118 12.9346 0.1029 15.4766 0.0280636 17.6916C0 18.6823 0 18.8224 0 20Z" fill="#D80029"/>
<mask id="mask0_591_6088" style="mask-type:luminance" maskUnits="userSpaceOnUse" x="5" y="8" width="30" height="24">
<path d="M35 8.21094H5V31.9609H35V8.21094Z" fill="white"/>
</mask>
<g mask="url(#mask0_591_6088)">
<path d="M9.41375 25.6416C8.57936 25.2466 7.89436 24.9278 7.89436 24.2828C7.89436 23.7897 8.28375 23.4309 9.05436 23.4309C9.30775 23.4327 9.56039 23.4589 9.80875 23.5091C9.93057 23.5325 10.0541 23.5461 10.1781 23.5497C10.8506 23.5497 11.2306 23.1434 11.4831 22.3734L11.5881 22.0609C10.7515 21.7116 9.85471 21.529 8.94811 21.5234C6.6675 21.5234 5.46436 23.0059 5.46436 24.5409C5.442 25.1892 5.66118 25.8226 6.07936 26.3184C6.59404 26.8562 7.212 27.2843 7.89625 27.5772C8.83375 28.0434 9.68311 28.3897 9.68311 29.0772C9.68311 29.6903 9.05811 30.0391 8.22 30.0391C7.4075 29.9998 6.62046 29.743 5.94125 29.2953L5 31.0859C6.02354 31.6815 7.19107 31.9842 8.375 31.9609C10.5 31.9609 12.1144 30.7253 12.1144 28.8253C12.1144 26.9353 10.6213 26.2347 9.41125 25.6416" fill="white"/>
<path d="M17.7389 26.5231L21.5989 21.7344H18.8489L15.7695 25.8675H15.7239V21.735H13.457V31.88H13.592C13.8784 31.9089 14.1676 31.8743 14.4391 31.7787C14.7106 31.683 14.9576 31.5287 15.1626 31.3267C15.3676 31.1246 15.5256 30.8799 15.6252 30.6098C15.7248 30.3398 15.7636 30.0511 15.7389 29.7644V27.435H15.7845L18.9227 31.7531H21.8077L17.7389 26.5231Z" fill="white"/>
<path d="M21.727 10.8678C21.1995 10.9548 20.717 11.2178 20.358 11.614C19.9991 12.0102 19.7848 12.5162 19.7501 13.0497C19.7501 14.2272 20.7045 14.9409 20.707 16.4828C20.7137 16.9587 20.5961 17.428 20.3659 17.8445C20.1357 18.261 19.8009 18.6103 19.3945 18.8578C19.6708 18.8328 19.9739 18.8172 20.3064 18.8159C20.6895 18.8103 21.0725 18.8337 21.452 18.8859L25.0326 14.4397C24.1325 13.0767 23.0157 11.87 21.7264 10.8672" fill="white"/>
<path d="M24.7338 22.8719C25.185 22.1619 25.2419 21.0306 25.28 19.8775C25.3225 18.8025 25.5438 17.9937 26.9675 17.9881C27.28 17.9881 27.5825 18.0312 28.1256 18.0294C29.6383 18.0235 31.1207 17.6049 32.4131 16.8187C30.2099 15.3812 27.6623 14.559 25.0344 14.4375C24.83 15.0194 23.245 19.4806 23.125 19.8406C23.3691 20.1361 23.5843 20.4545 23.7675 20.7912C24.1644 21.4476 24.489 22.145 24.7356 22.8712" fill="white"/>
<path d="M17.1711 19.2303C16.9899 19.2303 16.9005 19.1097 16.8755 18.8985C16.8505 18.6872 15.9568 10.3985 15.8236 9.14471C15.8043 8.96157 15.7611 8.62471 15.7611 8.50471C15.7573 8.46728 15.7615 8.42953 15.7733 8.39385C15.7852 8.35817 15.8044 8.32539 15.8298 8.29764C15.8551 8.26992 15.886 8.24785 15.9205 8.23292C15.955 8.21796 15.9923 8.21049 16.0299 8.21096C17.9123 8.56307 19.6877 9.34574 21.2174 10.4978C20.6622 10.6412 20.1688 10.9613 19.8115 11.4098C19.4544 11.8583 19.2528 12.4109 19.2374 12.9841C19.2418 14.3478 20.2068 15.0985 20.2118 16.4666C20.2193 18.6916 17.6918 19.2297 17.1686 19.2303" fill="white"/>
<path d="M24.9375 23.4669C24.9674 23.5532 25.0046 23.6368 25.0488 23.7169C25.0685 23.7587 25.0997 23.7941 25.1388 23.819C25.1778 23.8439 25.2231 23.8572 25.2694 23.8575C25.3405 23.8528 25.4099 23.8342 25.4737 23.8025C25.6612 23.7144 33.14 20.1925 34.2675 19.6662C34.4312 19.5869 34.7412 19.4469 34.8431 19.3862C34.8887 19.3643 34.9275 19.3302 34.9551 19.2878C34.9828 19.2454 34.9983 19.1962 35 19.1456C34.9992 19.0933 34.9843 19.0421 34.9569 18.9975C34.3636 18.2771 33.6644 17.651 32.8831 17.1406C31.4725 18.0138 29.8514 18.4879 28.1925 18.5125C27.6462 18.5125 27.5225 18.4762 27.1487 18.4775C26.06 18.4812 25.7881 18.9525 25.7481 19.9187C25.7412 20.1012 25.7381 20.3469 25.7275 20.6162C25.7657 21.6253 25.4897 22.6214 24.9375 23.4669Z" fill="white"/>
</g>
</g>
<defs>
<clipPath id="clip0_591_6088">
<rect width="40" height="40" fill="white"/>
</clipPath>
</defs>
</svg>
