<svg width="40" height="40" viewBox="0 0 40 40" fill="none" xmlns="http://www.w3.org/2000/svg">
<g clip-path="url(#clip0_591_6603)">
<path d="M0 20.0022C0 21.1722 0 21.3122 0.03 22.3122C0.06 24.8322 0.47 27.3422 1.23 29.7522C1.88 31.6722 2.89 33.4522 4.21 34.9922C5.8 36.7021 7.79 37.9921 10 38.7521C12.28 39.5421 14.75 39.9121 19.55 40.0121H20.44C25.24 39.9121 27.7 39.5321 29.99 38.7521C32.2 37.9921 34.19 36.7021 35.78 34.9922C37.1 33.4522 38.12 31.6822 38.76 29.7522C39.52 27.3422 39.93 24.8422 39.96 22.3122C39.99 21.3222 39.99 21.1822 39.99 20.0022C39.99 18.8222 39.99 18.6922 39.96 17.7022C39.93 15.1722 39.52 12.6722 38.76 10.2622C38.11 8.3422 37.1 6.5622 35.78 5.0222C34.19 3.31219 32.2 2.02219 29.99 1.26219C27.71 0.472188 25.24 0.0921875 20.44 -0.0078125H19.55C14.75 0.0921875 12.28 0.472188 10 1.25219C7.79 2.01219 5.8 3.30219 4.21 5.0122C2.89 6.5522 1.88 8.3222 1.23 10.2522C0.47 12.6622 0.07 15.1722 0.03 17.7022C0 18.6922 0 18.8322 0 20.0022Z" fill="#E2071E"/>
<path d="M28.2975 15.8768L24.1155 11.6948C21.8354 9.43507 18.1544 9.43507 15.8845 11.6948L11.7025 15.8768C9.43251 18.1467 9.43251 21.8277 11.7025 24.1079L15.8845 28.2899C18.1646 30.5496 21.8456 30.5496 24.1155 28.2899L28.2975 24.1079C30.5675 21.8379 30.5675 18.157 28.2975 15.8768ZM17.5409 26.1222H17.5102C17.1626 26.1222 16.8865 25.8257 16.8967 25.478C16.8967 25.1304 17.1933 24.8543 17.5409 24.8645C17.8885 24.8747 18.1646 25.161 18.1544 25.5087C18.1544 25.8461 17.8783 26.1222 17.5409 26.1222ZM24.9744 23.5455C24.32 24.7316 23.2567 25.6314 21.9785 26.0813C21.9785 26.0813 21.9581 26.0813 21.9479 26.0813C21.7638 26.112 21.5798 26.1324 21.3957 26.1324C20.8743 26.1324 20.363 25.9688 19.9335 25.6621C19.5859 25.4269 19.2689 25.1304 19.0133 24.7929C17.2444 22.523 17.1217 18.2694 17.1217 17.7889C16.999 16.521 17.3773 15.2531 18.1544 14.251C18.5839 13.8216 19.1564 13.5966 19.7597 13.6069H19.862C20.4653 13.5966 21.0481 13.8216 21.4775 14.251C22.2648 15.2531 22.6227 16.521 22.5102 17.7991C22.5 19.7316 21.999 21.6334 21.0481 23.3103C20.8947 23.5762 20.547 23.658 20.2914 23.5046C20.0256 23.3512 19.9438 23.0036 20.0972 22.748C20.9765 21.2449 21.4264 19.5271 21.3957 17.7889C21.5184 16.8175 21.2628 15.8461 20.6902 15.0486C20.4755 14.8339 20.1687 14.7111 19.862 14.7214H19.7597C19.453 14.7111 19.1462 14.8236 18.9315 15.0486C18.3589 15.8461 18.1135 16.8175 18.226 17.7889C18.2567 19.3839 18.635 22.5128 19.8927 24.1283C20.0767 24.3737 20.2914 24.5782 20.547 24.752C20.7924 24.9361 21.0992 25.0384 21.4059 25.0384C21.5184 25.0384 21.6309 25.0281 21.7434 25.0077C22.7249 24.6089 23.5327 23.8931 24.0338 22.9627C24.136 22.7991 24.3098 22.7071 24.5041 22.7071C24.6063 22.7071 24.7086 22.7377 24.8006 22.7889C24.9233 22.8706 25.0153 22.9934 25.046 23.1365C25.0767 23.2796 25.046 23.433 24.9744 23.5557" fill="white"/>
</g>
<defs>
<clipPath id="clip0_591_6603">
<rect width="40" height="40" fill="white"/>
</clipPath>
</defs>
</svg>
