<svg width="40" height="40" viewBox="0 0 40 40" fill="none" xmlns="http://www.w3.org/2000/svg">
<g clip-path="url(#clip0_591_6568)">
<path d="M0 20C0 21.1776 0 21.3084 0.0280636 22.3084C0.1029 24.5234 0.336763 27.0654 1.22544 29.7476C1.8522 31.6449 3.03087 33.6916 4.20954 34.9813C5.70629 36.6261 7.77361 37.9718 10.0094 38.7382C12.2919 39.5232 14.7615 39.9064 19.5603 40H20.449C25.2573 39.8971 27.7175 39.5232 30 38.7382C32.2358 37.9718 34.2938 36.6261 35.7904 34.9813C36.9693 33.6823 38.1479 31.6449 38.7746 29.7476C39.6632 27.0654 39.9064 24.514 39.9718 22.3084C40 21.3178 40 21.1776 40 20C40 18.8224 40 18.6916 39.9718 17.6916C39.8971 15.4766 39.6632 12.9346 38.7746 10.2523C38.1479 8.35514 36.9693 6.30839 35.7904 5.01868C34.2938 3.37383 32.2264 2.02804 30 1.26168C27.7175 0.476636 25.2479 0.0934579 20.449 0H19.5603C14.7521 0.102804 12.2919 0.476636 10.0094 1.26168C7.77361 2.02804 5.71561 3.37383 4.20954 5.01868C3.03087 6.31775 1.8522 8.35514 1.22544 10.2523C0.346118 12.9346 0.1029 15.4766 0.0280636 17.6916C0 18.6823 0 18.8224 0 20Z" fill="#009DAD"/>
<mask id="mask0_591_6568" style="mask-type:luminance" maskUnits="userSpaceOnUse" x="5" y="17" width="30" height="7">
<path d="M35.0003 17.1406H5.35742V23.2121H35.0003V17.1406Z" fill="white"/>
</mask>
<g mask="url(#mask0_591_6568)">
<path d="M12.761 18.2891C11.7791 18.2891 10.9941 19.0846 10.9941 20.0573C10.9941 20.1504 11.0326 20.2435 11.1005 20.3099C11.1683 20.3764 11.2611 20.4141 11.3584 20.4141H14.1659C14.2609 20.4141 14.3559 20.3764 14.4237 20.3099C14.4916 20.2435 14.5301 20.1526 14.5301 20.0573C14.5301 19.0823 13.7451 18.2891 12.7632 18.2891M11.7814 19.7006C11.8719 19.2995 12.313 18.976 12.761 18.9738C13.2089 18.9738 13.5957 19.2862 13.7406 19.7006H11.7814Z" fill="#FDC500"/>
<path d="M14.2185 20.6966C14.0737 20.5925 13.8135 20.6213 13.7095 20.7565C13.4877 21.0467 13.1484 21.2174 12.7616 21.2174C12.3747 21.2174 12.0331 21.0467 11.8136 20.7565C11.7119 20.6213 11.4494 20.5903 11.3046 20.6966C11.144 20.8141 11.1101 21.049 11.23 21.2085C11.5784 21.6694 12.1349 21.9708 12.7616 21.9708C13.3882 21.9708 13.947 21.6694 14.2931 21.2085C14.413 21.0512 14.3791 20.8141 14.2185 20.6966Z" fill="#FDC500"/>
<path d="M7.44868 17.5625C7.15911 17.5625 6.92383 17.7929 6.92383 18.0766C6.92383 18.3602 7.15911 18.5906 7.44868 18.5929C7.74051 18.5929 7.97354 18.3624 7.97354 18.0766C7.97354 17.7907 7.73826 17.5625 7.44868 17.5625Z" fill="white"/>
<path d="M18.8415 20.1295C18.8415 19.6199 18.6357 19.1612 18.2986 18.8355C17.9615 18.5075 17.4955 18.3147 16.9842 18.3125C16.9842 18.3125 16.9706 18.3125 16.9684 18.3125C16.3801 18.3125 15.9119 18.6538 15.9141 18.6626C15.8915 18.4942 15.706 18.3435 15.516 18.3413C15.292 18.3435 15.1178 18.5164 15.1133 18.7291V22.8173C15.1155 23.0345 15.292 23.2073 15.5092 23.2095C15.7331 23.2073 15.9096 23.0345 15.9119 22.8195V21.603C16.2309 21.8579 16.5611 21.9576 16.9525 21.962H16.9774C17.4909 21.962 17.9592 21.7693 18.2986 21.4413C18.6311 21.1178 18.837 20.6635 18.8415 20.1583V20.1295ZM16.9774 21.1953C16.3801 21.1887 15.9186 20.761 15.9119 20.1384C15.9186 19.5179 16.3801 19.0881 16.9774 19.0814C17.5905 19.0903 18.0316 19.5046 18.0407 20.1384C18.0316 20.7699 17.5905 21.1843 16.9751 21.1931" fill="white"/>
<path d="M27.9604 18.7867C27.6595 18.492 27.2387 18.3125 26.7704 18.3125C26.7704 18.3125 26.7591 18.3125 26.7568 18.3125C26.293 18.3125 25.8723 18.492 25.5737 18.7867C25.2728 19.0814 25.0918 19.4914 25.0918 19.9389V21.5476C25.094 21.7648 25.2705 21.9354 25.4899 21.9399C25.7139 21.9376 25.8904 21.7648 25.8927 21.5499V19.9345C25.9039 19.4448 26.2343 19.1014 26.7704 19.0903C27.302 19.0991 27.6346 19.4448 27.6437 19.9367V21.5499C27.6459 21.767 27.8224 21.9376 28.0418 21.9421C28.2658 21.9399 28.4423 21.767 28.4445 21.5543V19.9434C28.4445 19.4958 28.2658 19.0859 27.9649 18.7911" fill="white"/>
<path d="M23.986 18.8543C23.986 18.8543 23.848 18.728 23.8457 18.7302C23.5268 18.4732 23.1128 18.3203 22.6558 18.3203C22.6558 18.3203 22.6445 18.3203 22.6422 18.3203C22.1196 18.3203 21.649 18.5242 21.3165 18.8566C20.9839 19.1867 20.7871 19.6454 20.7871 20.144V20.1484C20.7871 20.647 20.9839 21.1056 21.3188 21.438C21.649 21.7682 22.1196 21.9721 22.6445 21.9743H22.6942C22.6942 21.9743 23.3209 21.9587 23.7168 21.5953L23.7304 21.6485C23.7733 21.8214 23.9272 21.9455 24.1149 21.9477C24.3389 21.9455 24.5154 21.7726 24.5176 21.5577V20.1262C24.5131 19.6343 24.3163 19.1845 23.9883 18.8566M22.6513 21.2009C22.0291 21.1943 21.5948 20.76 21.5857 20.144C21.5948 19.528 22.0291 19.0959 22.6513 19.0892C23.2734 19.0959 23.7077 19.5302 23.7168 20.1462C23.7077 20.76 23.2756 21.1943 22.6513 21.2009Z" fill="white"/>
<path d="M6.15828 17.5518C6.15828 17.3369 5.97728 17.1641 5.75785 17.1641C5.53842 17.1641 5.36196 17.3369 5.35742 17.5496V21.5559C5.35742 21.7708 5.53842 21.9437 5.75785 21.9437C5.97728 21.9437 6.15374 21.7708 6.15828 21.5581V17.5518Z" fill="white"/>
<path d="M20.2149 17.5518C20.2149 17.3369 20.0339 17.1641 19.8145 17.1641C19.595 17.1641 19.4186 17.3369 19.4141 17.5496V21.5559C19.4141 21.7708 19.595 21.9437 19.8145 21.9437C20.0339 21.9437 20.2104 21.7708 20.2149 21.5581V17.5518Z" fill="white"/>
<path d="M7.84548 19.419C7.84548 19.2041 7.66448 19.0312 7.44505 19.0312C7.22563 19.0312 7.04916 19.2041 7.04688 19.4168V21.5507C7.04688 21.7656 7.22788 21.9384 7.4473 21.9384C7.66677 21.9384 7.84323 21.7656 7.84773 21.5529C7.84773 21.5507 7.84773 19.419 7.84773 19.419" fill="white"/>
<path d="M34.4126 21.9402C34.4126 21.9402 34.433 21.9402 34.442 21.9402C34.6547 21.9402 34.8334 21.7806 34.8492 21.5701C34.865 21.3485 34.709 21.1757 34.4714 21.1424C34.0914 21.0449 34.123 20.6683 34.123 20.5198V19.3786H34.5913C34.8175 19.3786 35.0008 19.1992 35.0008 18.9798C35.0008 18.7604 34.8175 18.5809 34.5913 18.5809H34.123V17.5395C34.123 17.3179 33.9398 17.1406 33.7135 17.1406C33.4873 17.1406 33.3041 17.3201 33.3041 17.5395V18.5765H33.0869C32.8607 18.5765 32.6797 18.756 32.6797 18.9753C32.6797 19.1947 32.8629 19.3742 33.0869 19.3742H33.3041V20.7768C33.3041 20.9076 33.3878 21.9357 34.4081 21.9357" fill="white"/>
<path d="M10.2823 18.5775C10.5086 18.5775 10.6895 18.757 10.6895 18.9764C10.6895 19.1957 10.5063 19.3752 10.2823 19.3752H9.80045V21.5379C9.80045 21.7595 9.6172 21.9389 9.39323 21.9389C9.16927 21.9389 8.98377 21.7595 8.98377 21.5379V19.3752H8.76659C8.54034 19.3752 8.35938 19.1957 8.35938 18.9764C8.35938 18.757 8.54259 18.5775 8.76659 18.5775H8.98377C8.99055 18.4645 8.97923 17.9238 9.24166 17.618C9.34345 17.5006 9.45205 17.3787 9.5923 17.3034C9.78234 17.2015 9.99048 17.1594 10.2167 17.1416C10.4429 17.1261 10.6375 17.2901 10.6533 17.5117C10.6692 17.731 10.5018 17.9238 10.2755 17.9393C10.1194 17.9504 9.95427 18.0634 9.89545 18.1742C9.85702 18.2473 9.80045 18.3559 9.80045 18.5775H10.2823Z" fill="white"/>
<path d="M30.7239 18.2891C29.742 18.2891 28.957 19.0846 28.957 20.0573C28.957 20.1504 28.9955 20.2435 29.0634 20.3099C29.1312 20.3764 29.224 20.4141 29.3212 20.4141H32.1287C32.2238 20.4141 32.3188 20.3764 32.3867 20.3099C32.4545 20.2435 32.493 20.1526 32.493 20.0573C32.493 19.0823 31.708 18.2891 30.7261 18.2891M29.7443 19.7006C29.8348 19.2995 30.2759 18.976 30.7239 18.9738C31.1718 18.9738 31.5587 19.2862 31.7035 19.7006H29.7443Z" fill="#FDC500"/>
<path d="M32.1814 20.6966C32.0366 20.5925 31.7764 20.6213 31.6724 20.7565C31.4506 21.0467 31.1113 21.2174 30.7245 21.2174C30.3376 21.2174 29.996 21.0467 29.7766 20.7565C29.6747 20.6213 29.4123 20.5903 29.2675 20.6966C29.1069 20.8141 29.073 21.049 29.1929 21.2085C29.5413 21.6694 30.0978 21.9708 30.7245 21.9708C31.3511 21.9708 31.9099 21.6694 32.256 21.2085C32.3759 21.0512 32.342 20.8141 32.1814 20.6966Z" fill="#FDC500"/>
</g>
</g>
<defs>
<clipPath id="clip0_591_6568">
<rect width="40" height="40" fill="white"/>
</clipPath>
</defs>
</svg>
