<svg width="40" height="40" viewBox="0 0 40 40" fill="none" xmlns="http://www.w3.org/2000/svg">
<g clip-path="url(#clip0_591_6682)">
<path d="M0 20C0 21.1776 0 21.3084 0.0280636 22.3084C0.1029 24.5234 0.336763 27.0654 1.22544 29.7476C1.8522 31.6449 3.03087 33.6916 4.20954 34.9813C5.70629 36.6261 7.77361 37.9718 10.0094 38.7382C12.2919 39.5232 14.7615 39.9064 19.5603 40H20.449C25.2573 39.8971 27.7175 39.5232 30 38.7382C32.2358 37.9718 34.2938 36.6261 35.7904 34.9813C36.9693 33.6823 38.1479 31.6449 38.7746 29.7476C39.6632 27.0654 39.9064 24.514 39.9718 22.3084C40 21.3178 40 21.1776 40 20C40 18.8224 40 18.6916 39.9718 17.6916C39.8971 15.4766 39.6632 12.9346 38.7746 10.2523C38.1479 8.35514 36.9693 6.30839 35.7904 5.01868C34.2938 3.37383 32.2264 2.02804 30 1.26168C27.7175 0.476636 25.2479 0.0934579 20.449 0H19.5603C14.7521 0.102804 12.2919 0.476636 10.0094 1.26168C7.77361 2.02804 5.71561 3.37383 4.20954 5.01868C3.03087 6.31775 1.8522 8.35514 1.22544 10.2523C0.346118 12.9346 0.1029 15.4766 0.0280636 17.6916C0 18.6823 0 18.8224 0 20Z" fill="#1D62E5"/>
<path d="M19.4869 8.58211C13.1795 8.86979 8.2999 14.2125 8.58407 20.5163C8.86822 26.8202 14.2109 31.7033 20.5183 31.4156C26.8221 31.128 31.7018 25.7888 31.4176 19.4815C31.1334 13.1811 25.7908 8.29797 19.4869 8.58211ZM20.8234 19.6744C22.8546 21.5477 23.9666 22.5545 23.9666 22.5545C27.5483 25.5363 26.324 28.262 24.9559 29.2091C23.914 29.9318 22.7564 30.272 21.2409 30.3527C21.1041 30.3703 20.855 30.2931 20.8445 30.051C20.834 29.7915 21.2128 29.7283 21.2128 29.7283C24.5945 29.0618 23.6053 26.8448 22.4091 25.7151C21.9074 25.2381 17.1997 21.1793 17.1997 21.1793C12.713 17.317 13.0708 14.3001 13.0708 14.3001C13.2883 10.5887 16.5367 9.66961 18.9958 9.88007C19.2834 9.90465 19.4448 10.08 19.3922 10.3221C19.3396 10.5817 18.9572 10.6027 18.9572 10.6027C18.1749 10.6483 17.4768 10.729 16.9436 11.0868C14.9616 12.4199 15.5474 14.686 18.1889 17.2083C18.5222 17.5275 18.873 17.8608 19.2343 18.201C19.2343 18.201 19.764 18.6676 20.8199 19.6744H20.8234ZM19.2905 29.2688C19.3115 29.6301 18.431 29.7879 17.4277 29.6897C16.1648 29.5669 14.6564 29.167 13.3444 28.0339C12.1376 26.9886 11.3905 25.5538 11.0256 24.2944C10.6538 23.0035 10.4994 21.4915 11.1133 21.6108C11.3028 21.6494 11.629 22.4773 11.9833 23.0806C12.3481 23.7051 12.6498 24.0489 12.927 24.2594C13.0533 24.3541 13.4847 23.3964 14.1126 22.8526C14.4775 22.551 14.8774 22.4492 14.9405 23.3473C15.0177 24.4488 14.8213 25.7573 15.1405 25.7573C15.4422 25.7573 16.1192 25.5328 17.6066 25.4065C18.1644 25.3574 18.4836 25.4626 17.9504 26.2168C17.6838 26.5921 17.326 27.1219 16.4841 27.7253C17.7469 28.9109 19.2659 28.7671 19.294 29.2688H19.2905ZM20.2867 17.7485C20.192 17.3766 20.1675 16.9101 20.2446 16.3138C20.4025 15.0649 20.7393 14.4791 21.1216 13.5144C21.6373 12.2164 20.385 11.4552 20.5919 10.9781C20.8761 10.3326 21.7741 11.1535 22.7704 11.2131C23.6299 11.2622 24.149 11.2166 24.819 11.3078C25.7066 11.4271 26.773 11.7288 27.2431 12.283C27.6781 12.7917 27.0151 13.4126 26.2153 13.0233C25.6329 12.7391 24.8962 12.9145 25.3277 13.5214C25.8469 14.1002 26.096 14.1142 26.6221 14.2545C28.078 14.6369 28.106 16.0296 27.1238 16.7523C26.0013 17.5731 24.8682 17.2328 24.4121 15.6227C24.1841 14.8193 23.6158 14.4124 23.037 14.6404C22.4582 14.8684 22.802 15.9244 23.2405 16.9031C24.121 19.1482 21.9355 19.071 21.6794 19.043C20.5183 18.7974 20.2832 17.745 20.2832 17.745L20.2867 17.7485Z" fill="white"/>
</g>
<defs>
<clipPath id="clip0_591_6682">
<rect width="40" height="40" fill="white"/>
</clipPath>
</defs>
</svg>
