<svg width="40" height="40" viewBox="0 0 40 40" fill="none" xmlns="http://www.w3.org/2000/svg">
<g clip-path="url(#clip0_591_6651)">
<path d="M0 20C0 21.1776 0 21.3084 0.0280636 22.3084C0.1029 24.5234 0.336763 27.0654 1.22544 29.7476C1.8522 31.6449 3.03087 33.6916 4.20954 34.9813C5.70629 36.6261 7.77361 37.9718 10.0094 38.7382C12.2919 39.5232 14.7615 39.9064 19.5603 40H20.449C25.2573 39.8971 27.7175 39.5232 30 38.7382C32.2358 37.9718 34.2938 36.6261 35.7904 34.9813C36.9693 33.6823 38.1479 31.6449 38.7746 29.7476C39.6632 27.0654 39.9064 24.514 39.9718 22.3084C40 21.3178 40 21.1776 40 20C40 18.8224 40 18.6916 39.9718 17.6916C39.8971 15.4766 39.6632 12.9346 38.7746 10.2523C38.1479 8.35514 36.9693 6.30839 35.7904 5.01868C34.2938 3.37383 32.2264 2.02804 30 1.26168C27.7175 0.476636 25.2479 0.0934579 20.449 0H19.5603C14.7521 0.102804 12.2919 0.476636 10.0094 1.26168C7.77361 2.02804 5.71561 3.37383 4.20954 5.01868C3.03087 6.31775 1.8522 8.35514 1.22544 10.2523C0.346118 12.9346 0.1029 15.4766 0.0280636 17.6916C0 18.6823 0 18.8224 0 20Z" fill="#003CDC"/>
<path d="M8.40081 19.9156L9.04906 19.0358C8.56781 18.8043 8.0767 18.4525 7.71577 17.98C7.35445 17.5264 7.11384 16.9708 7.11384 16.3131V15.5541H5.90963V16.3317C5.90963 16.9986 5.67809 17.5913 5.3077 18.1007C4.93727 18.6191 4.44616 19.0267 3.92773 19.3228L4.64998 20.1657C5.0667 19.9156 5.47395 19.6006 5.80752 19.2396C6.13202 18.8969 6.39088 18.5174 6.54838 18.1561C6.92827 18.8597 7.51195 19.4339 8.40081 19.9156ZM10.7717 18.2764H12.1144V17.3041H10.7717V15.3594H9.62327V20.2488H10.7717V18.2764ZM5.90963 24.1291H10.7713V20.5824H5.90963V24.1291ZM9.62288 21.5547V23.1662H7.04859V21.5547H9.62288ZM16.8464 20.0636L17.4946 19.1656C17.0039 18.9155 16.5132 18.5823 16.1704 18.1375C15.8095 17.7022 15.5871 17.1652 15.5871 16.4706V15.5541H14.3643V16.4892C14.3643 17.1188 14.1514 17.6745 13.8087 18.1561C13.4659 18.6468 12.9566 19.073 12.3919 19.4431L13.1047 20.3046C13.5494 20.0359 13.9476 19.6841 14.2808 19.3413C14.6053 18.9987 14.855 18.6377 14.9939 18.3041C15.1419 18.6005 15.3921 18.9246 15.7162 19.2302C16.0407 19.5546 16.4388 19.8416 16.8464 20.0636ZM18.4392 20.2951H19.5877V15.3594H18.4392V16.8968H16.8187V17.9155H18.4392V20.2951ZM19.4484 22.2216C19.4484 21.6287 19.2078 21.1286 18.8097 20.7676C18.4021 20.4067 17.8373 20.1934 17.1705 20.1934C16.5037 20.1934 15.9481 20.4063 15.5499 20.7676C15.1423 21.1286 14.9108 21.6287 14.9108 22.2216C14.9108 22.8417 15.1423 23.3419 15.5499 23.7032C15.9481 24.0459 16.5037 24.2494 17.1705 24.2494C17.8373 24.2494 18.4021 24.0456 18.8097 23.7032C19.2078 23.3419 19.4484 22.8417 19.4484 22.2216ZM18.3189 22.2216C18.3189 22.8603 17.8373 23.2861 17.1705 23.2861C16.5037 23.2861 16.0407 22.8603 16.0407 22.2216C16.0407 21.5916 16.5037 21.1657 17.1705 21.1657C17.5037 21.1657 17.7815 21.2769 17.9944 21.4621C18.0972 21.5601 18.179 21.6779 18.2348 21.8085C18.2906 21.9391 18.3192 22.0796 18.3189 22.2216ZM24.1807 20.138L24.838 19.2673C23.8748 18.6745 23.301 17.7857 23.301 16.5541V15.6744H22.1525V16.5727C22.1525 17.2392 21.9764 17.7948 21.6895 18.2673C21.3931 18.7486 20.9764 19.1376 20.5228 19.4803L21.2447 20.3414C21.9119 19.8693 22.4857 19.2211 22.7544 18.5914C22.8933 18.8878 23.1063 19.193 23.3655 19.4617C23.6057 19.7227 23.8798 19.9501 24.1807 20.138ZM26.8104 20.3877H27.9217V15.3594H26.8104V17.2487H26.1068V15.452H24.9955V20.0359H26.1068V18.2115H26.8104V20.3877ZM27.8568 22.3324C27.8568 21.7677 27.6071 21.2769 27.1994 20.9342C26.7918 20.5915 26.2085 20.3877 25.5417 20.3877C24.8657 20.3877 24.2824 20.5919 23.8748 20.9342C23.4581 21.2769 23.2083 21.7677 23.2083 22.3324C23.2083 22.9252 23.4581 23.4254 23.8748 23.7678C24.2824 24.1013 24.8657 24.2957 25.5417 24.2957C26.2089 24.2957 26.7922 24.1013 27.1994 23.7678C27.6071 23.4251 27.8568 22.9252 27.8568 22.3324ZM26.6992 22.3324C26.6992 22.9343 26.218 23.3233 25.5417 23.3233C24.838 23.3233 24.3473 22.9343 24.3473 22.3324C24.3473 21.7399 24.838 21.3418 25.5417 21.3418C26.218 21.3418 26.6992 21.7399 26.6992 22.3324ZM34.9319 20.2397H36.0709V15.3594H34.9319V16.3689H33.2741V15.693H29.3016V19.6932H33.2741V19.0916H34.9319V20.2397ZM35.932 22.2216C35.932 21.6287 35.6913 21.1286 35.2932 20.7676C34.8856 20.4067 34.3208 20.1934 33.654 20.1934C32.9872 20.1934 32.4316 20.4063 32.0334 20.7676C31.6258 21.1286 31.3943 21.6287 31.3943 22.2216C31.3943 22.8417 31.6258 23.3419 32.0334 23.7032C32.4316 24.0459 32.9872 24.2494 33.654 24.2494C34.3208 24.2494 34.8856 24.0456 35.2932 23.7032C35.6913 23.3419 35.932 22.8417 35.932 22.2216ZM34.8021 22.2216C34.8021 22.8603 34.3208 23.2861 33.6537 23.2861C32.9872 23.2861 32.5242 22.8603 32.5242 22.2216C32.5242 21.5916 32.9872 21.1657 33.654 21.1657C33.9872 21.1657 34.2651 21.2769 34.478 21.4621C34.5808 21.5601 34.6625 21.6779 34.7183 21.8085C34.7741 21.9391 34.8024 22.0796 34.8021 22.2216ZM32.1261 16.6558V18.7208H30.4406V16.6558H32.1261ZM34.9319 17.3412V18.1189H33.2741V17.3412H34.9319Z" fill="white"/>
</g>
<defs>
<clipPath id="clip0_591_6651">
<rect width="40" height="40" fill="white"/>
</clipPath>
</defs>
</svg>
