<svg width="40" height="40" viewBox="0 0 40 40" fill="none" xmlns="http://www.w3.org/2000/svg">
<g clip-path="url(#clip0_591_6655)">
<path d="M0 20C0 21.17 0 21.31 0.03 22.31C0.06 24.83 0.47 27.34 1.23 29.75C1.88 31.67 2.89 33.45 4.21 34.99C5.8 36.7 7.79 37.99 10 38.75C12.28 39.53 14.75 39.91 19.55 40.01H20.44C25.24 39.91 27.71 39.53 29.99 38.75C32.2 37.99 34.19 36.7 35.78 34.99C37.1 33.45 38.12 31.68 38.76 29.75C39.52 27.34 39.93 24.84 39.96 22.31C39.99 21.32 39.99 21.18 39.99 20C39.99 18.82 39.99 18.69 39.96 17.7C39.93 15.17 39.52 12.67 38.76 10.26C38.11 8.34 37.1 6.56 35.78 5.02C34.19 3.31 32.2 2.02 29.99 1.26C27.71 0.47 25.24 0.1 20.44 0H19.55C14.75 0.1 12.28 0.48 10 1.26C7.79 2.02 5.8 3.31 4.21 5.02C2.89 6.56 1.87 8.33 1.23 10.26C0.47 12.66 0.07 15.17 0.03 17.69C0 18.68 0 18.82 0 20Z" fill="#0B3268"/>
<path fill-rule="evenodd" clip-rule="evenodd" d="M18.1192 17.3692C20.8077 17.3692 22.9885 15.2 23 12.5115C23 12.5115 23 12.5115 23 12.5H27.5V27.4885H21.8692V21.1192H18.1192V27.5H12.5V12.5H18.1308V17.3808L18.1192 17.3692Z" fill="white"/>
</g>
<defs>
<clipPath id="clip0_591_6655">
<rect width="40" height="40" fill="white"/>
</clipPath>
</defs>
</svg>
