<svg width="40" height="40" viewBox="0 0 40 40" fill="none" xmlns="http://www.w3.org/2000/svg">
<g clip-path="url(#clip0_591_6617)">
<path d="M0 20C0 21.1776 0 21.3084 0.028057 22.3084C0.102876 24.5234 0.336685 27.0654 1.22516 29.7476C1.85176 31.6449 3.03016 33.6916 4.20857 34.9813C5.70493 36.6261 7.77179 37.9718 10.007 38.7382C12.289 39.5232 14.758 39.9064 19.5557 40H20.4443C25.2514 39.8971 27.711 39.5232 29.993 38.7382C32.2282 37.9718 34.2857 36.6261 35.7914 34.9813C36.97 33.6823 38.1482 31.6449 38.775 29.7476C39.6632 27.0654 39.9064 24.514 39.9718 22.3084C40 21.3178 40 21.1776 40 20C40 18.8224 40 18.6823 39.9718 17.6916C39.8971 15.4766 39.6632 12.9346 38.775 10.2523C38.1482 8.35514 36.97 6.30839 35.7914 5.01868C34.2951 3.37383 32.2282 2.02804 29.993 1.26168C27.711 0.476636 25.242 0.0934579 20.4443 0H19.5557C14.7486 0.102804 12.289 0.476636 10.007 1.26168C7.77179 2.02804 5.71429 3.37383 4.20857 5.01868C3.03016 6.31775 1.85176 8.35514 1.22516 10.2523C0.346037 12.9346 0.102876 15.4766 0.028057 17.6916C0 18.6823 0 18.8224 0 20Z" fill="#1861A0"/>
<path d="M27.7319 12.1406C27.4583 12.1406 27.0903 12.2256 26.6186 12.3954C24.609 13.0935 22.8164 14.254 21.1748 15.9145L20.0332 17.2637L20.4766 17.8958C21.2314 18.9619 22.0239 20.7639 22.3919 22.2829C22.6183 23.1509 22.7032 23.6981 22.741 24.5944C22.741 24.7454 22.7504 24.9058 22.7598 25.0756C22.7598 25.2454 22.7598 25.4341 22.7598 25.6417C22.7598 26.7172 22.7787 27.9532 22.6655 27.9532H28.0527L28.3546 27.6418C28.5433 27.3682 28.5716 26.4059 28.5716 19.9903C28.5716 13.5747 28.5527 12.6218 28.3452 12.3859C28.1942 12.2256 28.0055 12.1406 27.7225 12.1406H27.7319Z" fill="white"/>
<path d="M12.3146 12.1406C12.041 12.1406 11.8523 12.2067 11.6825 12.3576C11.4372 12.5746 11.4277 12.9992 11.4277 19.962C11.4277 26.4059 11.4561 27.3682 11.6447 27.6418L11.8617 27.9532H17.2112C21.3436 27.9532 22.589 27.9154 22.6739 27.7834C22.7305 27.689 22.7777 26.7267 22.7682 25.6511C22.7588 24.0189 22.6928 23.4528 22.3909 22.2924C21.7304 19.745 20.4851 17.4524 18.683 15.7352C17.1169 14.2446 15.3243 13.0652 13.3902 12.3954C12.9278 12.235 12.5788 12.1501 12.3052 12.1501L12.3146 12.1406Z" fill="white"/>
<path d="M20.0322 17.2578L19.6925 17.6729C19.0887 18.4088 17.9848 20.8618 17.6169 22.2865C17.3149 23.447 17.2489 24.0131 17.2395 25.6547C17.2395 26.7302 17.2112 27.9567 17.3244 27.9567H22.6739C22.7871 27.9567 22.7776 26.7208 22.7682 25.6452C22.7588 24.0131 22.6739 23.4564 22.3908 22.2865C22.0229 20.7675 21.2303 18.9655 20.4756 17.8993L20.0322 17.2672V17.2578Z" fill="#1861A0"/>
<path d="M20.0327 18.4375L19.7496 18.8055C19.259 19.4659 18.3533 21.6453 18.0514 22.9096C17.8061 23.9474 17.7495 24.4474 17.7401 25.9004C17.7401 26.8627 17.7212 27.9477 17.8061 27.9477H22.1838C22.2781 27.9477 22.2687 26.8533 22.2593 25.8909C22.2499 24.438 22.1838 23.9379 21.9479 22.9001C21.646 21.551 21.0045 19.9471 20.3818 19.0036L20.0233 18.4375H20.0327Z" fill="white"/>
</g>
<defs>
<clipPath id="clip0_591_6617">
<rect width="40" height="40" fill="white"/>
</clipPath>
</defs>
</svg>
