<svg width="40" height="40" viewBox="0 0 40 40" fill="none" xmlns="http://www.w3.org/2000/svg">
<g clip-path="url(#clip0_588_19315)">
<path d="M0 20C0 21.1776 0 21.3084 0.0280636 22.3084C0.1029 24.5234 0.336763 27.0654 1.22544 29.7476C1.8522 31.6449 3.03087 33.6916 4.20954 34.9813C5.70629 36.6261 7.77361 37.9718 10.0094 38.7382C12.2919 39.5232 14.7615 39.9064 19.5603 40H20.449C25.2573 39.8971 27.7175 39.5232 30 38.7382C32.2358 37.9718 34.2938 36.6261 35.7904 34.9813C36.9693 33.6823 38.1479 31.6449 38.7746 29.7476C39.6632 27.0654 39.9064 24.514 39.9718 22.3084C40 21.3178 40 21.1776 40 20C40 18.8224 40 18.6916 39.9718 17.6916C39.8971 15.4766 39.6632 12.9346 38.7746 10.2523C38.1479 8.35514 36.9693 6.30839 35.7904 5.01868C34.2938 3.37383 32.2264 2.02804 30 1.26168C27.7175 0.476636 25.2479 0.0934579 20.449 0H19.5603C14.7521 0.102804 12.2919 0.476636 10.0094 1.26168C7.77361 2.02804 5.71561 3.37383 4.20954 5.01868C3.03087 6.31775 1.8522 8.35514 1.22544 10.2523C0.346118 12.9346 0.1029 15.4766 0.0280636 17.6916C0 18.6823 0 18.8224 0 20Z" fill="#229DEE"/>
<path d="M0 20C0 21.1776 0 21.3084 0.0280636 22.3084C0.1029 24.5234 0.336763 27.0654 1.22544 29.7476C1.8522 31.6449 3.03087 33.6916 4.20954 34.9813C5.70629 36.6261 7.77361 37.9718 10.0094 38.7382C12.2919 39.5232 14.7615 39.9064 19.5603 40H20.449C25.2573 39.8971 27.7175 39.5232 30 38.7382C32.2358 37.9718 34.2938 36.6261 35.7904 34.9813C36.9693 33.6823 38.1479 31.6449 38.7746 29.7476C39.6632 27.0654 39.9064 24.514 39.9718 22.3084C40 21.3178 40 21.1776 40 20C40 18.8224 40 18.6916 39.9718 17.6916C39.8971 15.4766 39.6632 12.9346 38.7746 10.2523C38.1479 8.35514 36.9693 6.30839 35.7904 5.01868C34.2938 3.37383 32.2264 2.02804 30 1.26168C27.7175 0.476636 25.2479 0.0934579 20.449 0H19.5603C14.7521 0.102804 12.2919 0.476636 10.0094 1.26168C7.77361 2.02804 5.71561 3.37383 4.20954 5.01868C3.03087 6.31775 1.8522 8.35514 1.22544 10.2523C0.346118 12.9346 0.1029 15.4766 0.0280636 17.6916C0 18.6823 0 18.8224 0 20Z" fill="#52C3F1"/>
<path d="M0 20C0 21.1776 0 21.3084 0.0280636 22.3084C0.1029 24.5234 0.336763 27.0654 1.22544 29.7476C1.8522 31.6449 3.03087 33.6916 4.20954 34.9813C5.70629 36.6261 7.77361 37.9718 10.0094 38.7382C12.2919 39.5232 14.7615 39.9064 19.5603 40H20.449C25.2573 39.8971 27.7175 39.5232 30 38.7382C32.2358 37.9718 34.2938 36.6261 35.7904 34.9813C36.9693 33.6823 38.1479 31.6449 38.7746 29.7476C39.6632 27.0654 39.9064 24.514 39.9718 22.3084C40 21.3178 40 21.1776 40 20C40 18.8224 40 18.6916 39.9718 17.6916C39.8971 15.4766 39.6632 12.9346 38.7746 10.2523C38.1479 8.35514 36.9693 6.30839 35.7904 5.01868C34.2938 3.37383 32.2264 2.02804 30 1.26168C27.7175 0.476636 25.2479 0.0934579 20.449 0H19.5603C14.7521 0.102804 12.2919 0.476636 10.0094 1.26168C7.77361 2.02804 5.71561 3.37383 4.20954 5.01868C3.03087 6.31775 1.8522 8.35514 1.22544 10.2523C0.346118 12.9346 0.1029 15.4766 0.0280636 17.6916C0 18.6823 0 18.8224 0 20Z" fill="#53C3F1"/>
<path d="M7.85742 23.1104C7.87989 27.0263 11.1261 30.1699 15.1024 30.1589C16.3155 30.1589 17.5061 29.85 18.5732 29.2654V24.7209C17.4611 26.1549 15.3831 26.4417 13.9117 25.3496C12.4402 24.2576 12.1595 22.217 13.2715 20.772C13.3389 20.6948 13.4062 20.6065 13.4736 20.5293C12.8783 19.4704 12.575 18.2791 12.575 17.0658C12.575 16.8783 12.575 16.6797 12.5975 16.4922C9.75571 17.4959 7.85742 20.1433 7.85742 23.1104Z" fill="white"/>
<path d="M12.5738 17.0611C12.5738 18.2744 12.877 19.4657 13.4723 20.5246C14.1014 19.8517 14.9887 19.4767 15.921 19.4767C16.2917 19.4767 16.6511 19.5319 16.9993 19.6532C16.6062 19.0796 16.404 18.4068 16.404 17.7229C16.4152 15.7705 18.0327 14.2042 20.0209 14.2152C21.4137 14.2152 22.6717 15.0204 23.2558 16.2558C23.8062 16.1345 24.3678 16.0683 24.9294 16.0683C25.7719 16.0683 26.603 16.2117 27.3893 16.4875C27.0411 12.4724 23.4468 9.5052 19.3581 9.84713C15.5279 10.167 12.585 13.2997 12.5625 17.0721" fill="white"/>
<path d="M23.2679 16.2578C23.7846 17.3609 23.6835 18.6404 22.9983 19.6552C23.3465 19.5449 23.706 19.4898 24.0766 19.4898C25.9075 19.4898 27.3902 20.9568 27.379 22.7548C27.3677 24.5527 25.8851 26.0088 24.0542 25.9977C23.0208 25.9977 22.0548 25.5234 21.4258 24.7182V29.2627C24.8741 31.182 29.2548 29.9907 31.2092 26.5934C33.1637 23.196 31.9506 18.9051 28.491 16.9858C27.4014 16.3792 26.1771 16.0703 24.9191 16.0703C24.3574 16.0703 23.7958 16.1365 23.2567 16.2578" fill="white"/>
</g>
<defs>
<clipPath id="clip0_588_19315">
<rect width="40" height="40" fill="white"/>
</clipPath>
</defs>
</svg>
