<svg width="40" height="40" viewBox="0 0 40 40" fill="none" xmlns="http://www.w3.org/2000/svg">
<g clip-path="url(#clip0_588_19358)">
<path d="M0 20.0031C0 21.1804 0 21.3113 0.0374007 22.311C0.102852 24.5254 0.345956 27.0669 1.23422 29.7485C1.86068 31.6453 3.0388 33.6915 4.21693 34.981C5.71296 36.6255 7.77932 37.9709 10.0047 38.737C12.2861 39.522 14.7546 39.9052 19.5512 39.9984H20.4395C25.2454 39.8955 27.7045 39.522 29.986 38.737C32.2207 37.9709 34.2777 36.6255 35.7832 34.981C36.9611 33.6822 38.1393 31.6453 38.7657 29.7485C39.6539 27.0669 39.8971 24.5161 39.9625 22.311C39.9907 21.3206 39.9907 21.1804 39.9907 20.0031C39.9907 18.8259 39.9907 18.695 39.9625 17.6953C39.8879 15.4808 39.6539 12.9394 38.7657 10.2578C38.1393 8.361 36.9611 6.31475 35.7832 5.02532C34.287 3.38086 32.2207 2.03538 29.986 1.2692C27.7045 0.484338 25.2361 0.101248 20.4395 0.0078125H19.5512C14.7452 0.110592 12.2861 0.484338 10.0047 1.2692C7.77 2.03538 5.71296 3.38086 4.21693 5.02532C3.0388 6.32411 1.86068 8.361 1.23422 10.2578C0.345956 12.9394 0.102852 15.4808 0.0374007 17.6953C0 18.6857 0 18.8259 0 20.0031Z" fill="#29B54F"/>
<path d="M25.1885 23.2655C25.2606 22.9057 25.2606 22.515 25.24 22.145C25.1679 21.0039 24.3848 20.0787 23.2823 19.7703C23.0968 19.7189 22.9113 19.6675 22.7259 19.6161V19.5544C23.2204 19.3694 23.6841 19.1227 24.0344 18.7217C24.3951 18.3106 24.6115 17.8377 24.6733 17.3031C24.7351 16.6966 24.6527 16.1826 24.4672 15.8126C24.3023 15.463 23.7975 14.5481 22.0973 14.4453H22.0664V25.1158C22.4992 25.1158 23.2204 25.013 23.6635 24.8691C24.4569 24.6224 25.003 24.0878 25.1782 23.2552L25.1885 23.2655Z" fill="white"/>
<path d="M26.743 8.93997H13.2656C10.8752 8.93997 8.92773 10.8932 8.92773 13.2781V26.7344C8.92773 29.1194 10.8854 31.0725 13.2656 31.0725H19.9837C20.0043 30.096 19.9734 12.2193 19.9734 12.2193C23.7137 11.9931 25.4241 13.3809 26.1866 14.7687C26.403 15.1593 26.5369 15.5294 26.6297 15.8686C26.8048 16.5265 26.7945 17.0508 26.7945 17.2255C26.7945 17.4414 26.7636 17.6779 26.7224 17.904C26.6915 18.0685 26.6399 18.2227 26.5781 18.3769C26.5472 18.4489 26.5266 18.5208 26.4854 18.5928C26.2072 19.117 25.8363 19.3843 25.8363 19.3843C25.8363 19.3843 26.1144 19.6722 26.2484 19.8469C26.8872 20.6796 27.2685 21.4403 27.3303 22.5403C27.3818 23.6299 27.1654 24.5757 26.4854 25.3775C26.3824 25.4906 26.2793 25.6037 26.166 25.7167C25.8157 26.0457 25.4447 26.3027 25.0429 26.5083C24.3422 26.8681 23.5385 27.0223 22.8276 27.1045C22.5081 27.1354 22.1578 27.1559 22.0342 27.1456C22.0342 27.2073 22.0342 29.5511 22.0238 30.7333C22.0238 30.7539 22.0238 30.9698 22.0238 31.0623H26.7224C29.1129 31.0623 31.0706 29.1091 31.0706 26.7242V13.2678C31.0706 10.8829 29.1129 8.92969 26.7224 8.92969L26.743 8.93997ZM18.6957 23.8149C18.4691 25.285 17.6859 26.3644 16.4392 27.1456C16.3568 27.197 16.2434 27.2279 16.1404 27.2176C15.3882 27.197 14.6463 27.1662 13.8942 27.1456C13.8117 27.1456 13.7396 27.1354 13.6572 27.1251C13.6984 27.0223 15.4397 25.6653 16.0373 24.8121C16.6865 23.8869 16.6968 23.1057 15.9549 22.2524C15.4912 21.7179 14.9452 21.2553 14.4197 20.7721C13.2244 19.6722 12.5341 18.3666 12.6577 16.7013C12.6783 16.4032 12.8019 14.5219 14.5536 13.165C15.924 12.0959 17.7684 12.1679 18.3557 12.2193C18.3969 12.2193 18.4691 12.2295 18.5206 12.2398H18.5309L18.5515 14.3163C18.5515 14.3163 18.1806 14.3163 18.0569 14.3163C15.45 14.3472 14.9967 16.105 15.0585 15.92C14.9246 16.3415 14.8936 16.8555 15.007 17.3283C15.1924 18.1096 15.6767 18.7059 16.2125 19.2815C16.7998 19.9189 17.4078 20.5357 17.9642 21.2039C18.5927 21.9543 18.8503 22.8384 18.6957 23.8252V23.8149Z" fill="white"/>
</g>
<defs>
<clipPath id="clip0_588_19358">
<rect width="40" height="40" fill="white"/>
</clipPath>
</defs>
</svg>
