<svg width="40" height="40" viewBox="0 0 40 40" fill="none" xmlns="http://www.w3.org/2000/svg">
<g clip-path="url(#clip0_588_19298)">
<path fill-rule="evenodd" clip-rule="evenodd" d="M4.60547 4.60643L9.99804 10.0009L19.9989 0H19.561C14.7528 0.102804 12.2925 0.476636 10.01 1.26168C7.96404 1.96298 6.06697 3.14951 4.60547 4.60643Z" fill="#008CCF"/>
<path fill-rule="evenodd" clip-rule="evenodd" d="M0 20.0012L9.99739 10.0038L4.60482 4.60938C4.46921 4.74455 4.33739 4.88202 4.20954 5.02166C3.03087 6.32073 1.8522 8.35812 1.22544 10.2553C0.346118 12.9376 0.1029 15.4796 0.0280636 17.6946C1.37942e-05 18.6847 0 18.8253 0 20.0012Z" fill="#0098D7"/>
<path fill-rule="evenodd" clip-rule="evenodd" d="M3.87686e-05 20.3571H20.3571L10.0036 10L0 20.0001C0 20.1312 1.21483e-08 20.2494 3.87686e-05 20.3571Z" fill="#008CCF"/>
<path fill-rule="evenodd" clip-rule="evenodd" d="M20.0013 0L10.0039 9.99739L20.0013 19.9982V0Z" fill="#007AC6"/>
<path fill-rule="evenodd" clip-rule="evenodd" d="M20.002 0V19.9982L29.9959 10.0009L20.002 0Z" fill="#0067B6"/>
<path fill-rule="evenodd" clip-rule="evenodd" d="M40.0002 20.0009L30.0028 10L20.002 20.0009H40.0002Z" fill="#004294"/>
<path fill-rule="evenodd" clip-rule="evenodd" d="M0 20L9.99739 30.0044L19.9982 20H0Z" fill="#007AC6"/>
<path fill-rule="evenodd" clip-rule="evenodd" d="M0.0280636 22.3101C0 21.3101 0 21.1793 0 20.0018V20L9.99739 30.0044L4.60368 35.3962C4.46832 35.2608 4.33686 35.123 4.20954 34.9831C3.03087 33.6933 1.8522 31.6466 1.22544 29.7494C0.336763 27.0672 0.1029 24.5251 0.0280636 22.3101Z" fill="#0067B6"/>
<path fill-rule="evenodd" clip-rule="evenodd" d="M19.3884 39.993H20.0016L10.0042 29.9922L4.60352 35.391C6.05909 36.8476 7.96366 38.0337 10.0092 38.7348C12.2643 39.5105 14.7021 39.8937 19.3884 39.993Z" fill="#0054A7"/>
<path fill-rule="evenodd" clip-rule="evenodd" d="M20.0013 20V39.9982L10.0039 29.9974L20.0013 20Z" fill="#004898"/>
<path fill-rule="evenodd" clip-rule="evenodd" d="M29.9959 30.0044L20.002 20H39.9966L29.9959 30.0044Z" fill="#092C86"/>
<path fill-rule="evenodd" clip-rule="evenodd" d="M20.002 39.9982V20L29.9959 30.0044L20.002 39.9982Z" fill="#004294"/>
<path fill-rule="evenodd" clip-rule="evenodd" d="M35.3982 35.3895L30.0028 29.9922L20.002 39.993H20.6071C25.3116 39.8855 27.7428 39.5112 30.0002 38.7348C32.0465 38.0333 33.9438 36.8465 35.3982 35.3895Z" fill="#092C86"/>
<path fill-rule="evenodd" clip-rule="evenodd" d="M39.9993 20L30.002 29.9974L35.3974 35.3947C35.5321 35.2597 35.663 35.1225 35.7897 34.983C36.9686 33.684 38.1472 31.6466 38.774 29.7494C39.6626 27.0671 39.9058 24.5158 39.9711 22.3101C39.9993 21.3195 39.9993 21.1793 39.9993 20.0019C39.9993 20.0014 39.9993 20.0005 39.9993 20Z" fill="#092C86"/>
<path fill-rule="evenodd" clip-rule="evenodd" d="M20.002 0L29.9959 10.0009L35.3938 4.60289C33.9387 3.14759 32.0359 1.96241 30.0002 1.26168C27.7177 0.476636 25.2481 0.0934579 20.4492 0H20.002Z" fill="#0054A7"/>
<path fill-rule="evenodd" clip-rule="evenodd" d="M35.3947 4.60156L30.002 9.99435L39.9993 19.9952C39.9993 18.8192 39.9993 18.688 39.9711 17.6885C39.8965 15.4736 39.6626 12.9315 38.774 10.2493C38.1472 8.3521 36.9686 6.30535 35.7897 5.01563C35.6622 4.87538 35.5304 4.73731 35.3947 4.60156Z" fill="#004898"/>
<path fill-rule="evenodd" clip-rule="evenodd" d="M39.8089 24.8229L27.1918 12.8047L7.75977 32.2854L14.8497 39.3751L27.1918 27.2172L35.4051 35.3859C35.5371 35.2533 35.6654 35.1186 35.7899 34.9818C36.9685 33.6827 38.1474 31.6453 38.7742 29.7481C39.3417 28.0343 39.6464 26.3738 39.8089 24.8229Z" fill="white"/>
</g>
<defs>
<clipPath id="clip0_588_19298">
<rect width="40" height="40" fill="white"/>
</clipPath>
</defs>
</svg>
