<svg width="40" height="40" viewBox="0 0 40 40" fill="none" xmlns="http://www.w3.org/2000/svg">
<g clip-path="url(#clip0_588_19236)">
<path d="M0 20C0 21.1776 0 21.3084 0.0280636 22.3084C0.1029 24.5234 0.336763 27.0654 1.22544 29.7476C1.8522 31.6449 3.03087 33.6916 4.20954 34.9813C5.70629 36.6261 7.77361 37.9718 10.0094 38.7382C12.2919 39.5232 14.7615 39.9064 19.5603 40H20.449C25.2573 39.8971 27.7175 39.5232 30 38.7382C32.2358 37.9718 34.2938 36.6261 35.7904 34.9813C36.9693 33.6823 38.1479 31.6449 38.7746 29.7476C39.6632 27.0654 39.9064 24.514 39.9718 22.3084C40 21.3178 40 21.1776 40 20C40 18.8224 40 18.6916 39.9718 17.6916C39.8971 15.4766 39.6632 12.9346 38.7746 10.2523C38.1479 8.35514 36.9693 6.30839 35.7904 5.01868C34.2938 3.37383 32.2264 2.02804 30 1.26168C27.7175 0.476636 25.2479 0.0934579 20.449 0H19.5603C14.7521 0.102804 12.2919 0.476636 10.0094 1.26168C7.77361 2.02804 5.71561 3.37383 4.20954 5.01868C3.03087 6.31775 1.8522 8.35514 1.22544 10.2523C0.346118 12.9346 0.1029 15.4766 0.0280636 17.6916C0 18.6823 0 18.8224 0 20Z" fill="#FFDF00"/>
<path d="M25.027 20.0025C25.6215 19.6525 26.137 19.1849 26.5414 18.6289C26.9458 18.0729 27.2304 17.4403 27.3775 16.7706C27.5245 16.1008 27.531 15.4082 27.3964 14.7358C27.2619 14.0635 26.9891 13.4258 26.5952 12.8624C26.0761 12.1382 25.3885 11.5489 24.5906 11.1444C23.7927 10.74 22.9081 10.5324 22.012 10.5392H12.8177C12.7357 10.5374 12.6563 10.5678 12.5968 10.6237C12.5373 10.6797 12.5025 10.7567 12.5 10.838V29.1656C12.502 29.2471 12.5365 29.3244 12.5959 29.3807C12.6554 29.437 12.7349 29.4675 12.817 29.4657H22.012C23.4289 29.5032 24.8029 28.9814 25.8319 28.0151C26.8609 27.0488 27.4609 25.717 27.5 24.3123C27.4925 23.4445 27.2614 22.593 26.8286 21.8387C26.3958 21.0844 25.7756 20.4523 25.027 20.0025ZM20.5134 24.3089H18.787V15.6953H20.5134V24.3089Z" fill="#1E1E1E"/>
</g>
<defs>
<clipPath id="clip0_588_19236">
<rect width="40" height="40" fill="white"/>
</clipPath>
</defs>
</svg>
