<svg width="40" height="40" viewBox="0 0 40 40" fill="none" xmlns="http://www.w3.org/2000/svg">
<g clip-path="url(#clip0_591_6111)">
<path d="M0 20C0 21.1776 0 21.3084 0.028057 22.3084C0.102876 24.5234 0.336685 27.0654 1.22516 29.7476C1.85176 31.6449 3.03016 33.6916 4.20857 34.9813C5.70493 36.6261 7.77179 37.9718 10.007 38.7382C12.289 39.5232 14.758 39.9064 19.5557 40H20.4443C25.2514 39.8971 27.711 39.5232 29.993 38.7382C32.2282 37.9718 34.2857 36.6261 35.7914 34.9813C36.97 33.6823 38.1389 31.6449 38.775 29.7476C39.6632 27.0654 39.9064 24.514 39.9718 22.3084C40 21.3178 40 21.1776 40 20C40 18.8224 40 18.6916 39.9718 17.6916C39.8971 15.4766 39.6632 12.9346 38.775 10.2523C38.1389 8.35514 36.97 6.30839 35.7914 5.01868C34.2951 3.37383 32.2282 2.02804 29.993 1.26168C27.711 0.476636 25.242 0.0934579 20.4443 0H19.5557C14.758 0.102804 12.289 0.476636 10.007 1.26168C7.77179 2.02804 5.71429 3.37383 4.20857 5.01868C3.03016 6.31775 1.85176 8.35514 1.22516 10.2523C0.346037 12.9346 0.102876 15.4766 0.028057 17.6916C0 18.6823 0 18.8224 0 20Z" fill="#0480CC"/>
<path d="M9.28516 20.2887C9.28516 20.126 9.41673 19.9836 9.57869 19.9836L15.156 19.9531C15.3179 19.9531 15.4597 20.0853 15.4597 20.2481C15.4597 20.2887 15.4597 20.3294 15.4394 20.3599L12.6963 27.2145C12.6558 27.3162 12.5445 27.3976 12.423 27.3976C12.342 27.3976 12.2712 27.3569 12.2104 27.3162C12.2104 27.3162 12.2003 27.3162 12.2003 27.3061C10.4796 25.4653 9.38637 23.0143 9.28516 20.2989V20.2887Z" fill="white"/>
<path d="M15.1863 29.2275L18.4962 20.9694C18.4962 20.9694 18.4962 20.9694 18.4962 20.9592C18.729 20.3592 19.3161 19.9219 20.0044 19.9219C20.6522 19.9219 21.2089 20.288 21.4721 20.8372L24.9541 29.1766C24.9541 29.1766 24.9744 29.258 24.9744 29.2987C24.9744 29.4106 24.9136 29.5021 24.8327 29.5631C24.8327 29.5631 24.8327 29.5631 24.8225 29.5631C23.4054 30.2852 21.7859 30.692 20.0854 30.7123C18.3747 30.7225 16.7653 30.336 15.328 29.6343C15.2369 29.5834 15.166 29.4817 15.166 29.3699C15.166 29.3292 15.166 29.2987 15.1863 29.258" fill="white"/>
<path d="M24.5812 20.2959C24.5812 20.2959 24.5609 20.2146 24.5508 20.1739C24.5508 20.0112 24.6824 19.8688 24.8444 19.8688L30.4216 19.8281C30.5836 19.8281 30.7152 19.9603 30.7152 20.1231C30.6646 22.8384 29.6017 25.3098 27.9012 27.1811C27.8405 27.2319 27.7696 27.2726 27.6887 27.2726C27.5672 27.2726 27.4559 27.2014 27.4154 27.0896L24.5812 20.2756V20.2959Z" fill="white"/>
<path d="M29.8545 16.7641L23.3257 16.8149H23.2953C23.184 16.8149 23.0828 16.7335 23.0423 16.6318L22.5159 15.3707C21.7973 13.5096 21.4531 11.7299 21.4531 10.0925V9.59417C21.4531 9.43146 21.5746 9.28906 21.7467 9.28906H21.7872H21.7973C25.6741 9.9501 28.8524 12.7062 30.1177 16.3674C30.1177 16.3674 30.1278 16.4284 30.1278 16.4691C30.1278 16.6318 29.9962 16.7641 29.8343 16.7641" fill="white"/>
<path d="M17.413 15.3965L16.9069 16.6678C16.8664 16.7593 16.7854 16.8305 16.6943 16.8509H16.6639H16.6336L10.0947 16.9017C9.92259 16.9017 9.79102 16.7695 9.79102 16.5966C9.79102 16.5661 9.79102 16.5356 9.81127 16.5051C11.0259 12.8337 14.1638 10.0166 18.0406 9.30469C18.0406 9.30469 18.0709 9.30469 18.0811 9.30469C18.243 9.30469 18.3847 9.4369 18.3847 9.59962V10.1081C18.4151 11.7455 18.1013 13.5253 17.4029 15.3965" fill="white"/>
</g>
<defs>
<clipPath id="clip0_591_6111">
<rect width="40" height="40" fill="white"/>
</clipPath>
</defs>
</svg>
