<svg width="40" height="40" viewBox="0 0 40 40" fill="none" xmlns="http://www.w3.org/2000/svg">
<g clip-path="url(#clip0_591_6204)">
<path d="M0 20C0 21.175 0 21.312 0.032 22.305C0.0669118 24.8303 0.471195 27.3368 1.232 29.745C1.87817 31.6663 2.89125 33.4439 4.215 34.979C5.80749 36.6889 7.7968 37.9799 10.007 38.738C12.29 39.524 14.756 39.902 19.557 40H20.444C25.244 39.9 27.712 39.524 29.994 38.738C32.2048 37.98 34.1948 36.6889 35.788 34.979C37.1104 33.4431 38.123 31.6657 38.77 29.745C39.5303 27.3367 39.9346 24.8302 39.97 22.305C40 21.312 40 21.175 40 20C40 18.825 40 18.689 39.97 17.7C39.9346 15.1748 39.5303 12.6683 38.77 10.26C38.1228 8.33908 37.1102 6.56145 35.788 5.025C34.1947 3.31539 32.2047 2.02468 29.994 1.267C27.712 0.476 25.246 0.1 20.444 0H19.557C14.757 0.1 12.29 0.476 10.007 1.263C7.79687 2.02071 5.80754 3.31144 4.215 5.021C2.89145 6.55665 1.8784 8.3345 1.232 10.256C0.471195 12.6642 0.0669118 15.1707 0.032 17.696C0 18.689 0 18.826 0 20Z" fill="#01448B"/>
<path d="M13.0407 21.1576C12.7934 20.2517 12.8702 19.2879 13.2578 18.4325C13.6454 17.5772 14.3195 16.884 15.1637 16.4726C19.0487 14.5326 23.0117 12.7476 26.9637 10.8906C27.2142 11.8135 27.13 12.7953 26.7258 13.662C26.3217 14.5287 25.6237 15.2244 24.7557 15.6256C20.9127 17.5336 16.9977 19.2996 13.0457 21.1576" fill="white"/>
<path d="M13.9587 25.2639C13.7461 24.5405 13.7723 23.7677 14.0335 23.0604C14.2947 22.353 14.7769 21.7486 15.4087 21.3369C16.5117 20.6922 17.6509 20.1116 18.8207 19.5979C20.2487 18.9119 21.6927 18.2559 23.1297 17.5859C23.3613 18.3527 23.3218 19.1758 23.0178 19.9168C22.7139 20.6579 22.164 21.2717 21.4607 21.6549C18.9907 22.9129 16.4687 24.0649 13.9607 25.2669" fill="white"/>
<path d="M14.8355 29.1084C14.3555 26.0514 16.6295 25.0624 19.7845 23.8984C19.9127 24.4427 19.8825 25.0123 19.6975 25.5399C19.5125 26.0676 19.1805 26.5313 18.7405 26.8764C17.5525 27.7074 16.2205 28.3304 14.8405 29.1084" fill="white"/>
<path d="M0 19.9609C0 21.1359 0 21.2717 0.0321429 22.2645C0.103571 24.4752 0.342857 27.0252 1.23214 29.7038C1.86071 31.6038 3.03571 33.6431 4.21429 34.9395C5.71429 36.5824 7.775 37.9288 10.0071 38.6967C12.2893 39.4824 14.7571 39.861 19.5571 39.961H20.4429C25.2429 39.861 27.7107 39.4824 29.9929 38.6967C32.225 37.9288 34.2857 36.5824 35.7857 34.9395C36.9679 33.6431 38.1393 31.6038 38.7679 29.7038C39.6571 27.0217 39.8964 24.4752 39.9679 22.2645C40 21.2717 40 21.1359 40 19.9609C40 18.7859 40 18.6502 39.9679 17.6574C39.8964 15.4467 39.6571 12.9002 38.7679 10.2181C38.1393 8.31808 36.9679 6.2788 35.7857 4.98237C34.2857 3.33951 32.225 1.99308 29.9929 1.22165C27.7107 0.435936 25.2429 0.0573661 20.4429 -0.0390625H19.5571C14.7571 0.0609375 12.2893 0.435936 10.0071 1.22165C7.775 1.98951 5.71429 3.33594 4.21429 4.98237C3.03571 6.27523 1.86071 8.31808 1.23214 10.2181C0.342857 12.8967 0.103571 15.4467 0.0321429 17.6574C0 18.6502 0 18.7859 0 19.9609Z" fill="#0367B3"/>
<path d="M20.1778 31.0509C26.2411 31.0509 31.1564 26.1356 31.1564 20.0723C31.1564 14.009 26.2411 9.09375 20.1778 9.09375C14.1145 9.09375 9.19922 14.009 9.19922 20.0723C9.19922 26.1356 14.1145 31.0509 20.1778 31.0509Z" fill="#0098D5"/>
<path d="M20.1742 12.731C25.1635 12.731 29.4242 15.8025 31.0635 20.1096C31.0635 20.0596 31.0671 20.0096 31.0671 19.9596C31.0671 13.9453 26.1706 9.07031 20.1314 9.07031C14.0921 9.07031 9.19922 13.9489 9.19922 19.9596C9.19922 20.0882 9.20279 20.2132 9.20993 20.3382C10.7814 15.9096 15.0992 12.7275 20.1778 12.7275L20.1742 12.731Z" fill="#0083CA"/>
<path d="M20.182 12.8158C25.182 12.8158 29.4463 15.898 31.0642 20.2087C31.0642 20.173 31.0642 20.1408 31.0642 20.1051C29.4249 15.7944 25.1642 12.7266 20.1749 12.7266C15.1856 12.7266 10.782 15.9087 9.20703 20.3373C9.20703 20.373 9.20703 20.4123 9.20703 20.4516C10.757 16.0194 15.0856 12.8194 20.1749 12.8194L20.182 12.8158Z" fill="#0083CA"/>
<path d="M20.1684 12.9203C25.197 12.9203 29.472 16.031 31.0613 20.3596C31.0613 20.3096 31.0613 20.2596 31.0648 20.2132C29.447 15.906 25.1827 12.8203 20.1827 12.8203C15.1827 12.8203 10.7648 16.0203 9.21484 20.4525C9.21484 20.4917 9.21484 20.5275 9.21841 20.5667C10.7434 16.1346 15.0648 12.9239 20.1684 12.9239V12.9203Z" fill="#0085CB"/>
<path d="M20.1687 12.9219C15.0652 12.9219 10.7437 16.1362 9.21875 20.5647C9.21875 20.5969 9.22589 20.6326 9.22589 20.6647C10.733 16.2397 15.0616 13.0183 20.1723 13.0183C25.283 13.0183 29.4937 16.1469 31.058 20.4754C31.058 20.4397 31.058 20.4004 31.058 20.3612C29.4723 16.0326 25.1937 12.9219 20.1652 12.9219H20.1687Z" fill="#0086CC"/>
<path d="M20.171 13.0192C15.0603 13.0192 10.7282 16.2406 9.22461 20.6656C9.22461 20.7013 9.23175 20.7371 9.23175 20.7728C10.7139 16.3478 15.0496 13.1156 20.171 13.1156C25.2925 13.1156 29.5068 16.2585 31.0496 20.5871C31.0496 20.5478 31.0532 20.5121 31.0568 20.4728C29.4925 16.1442 25.2103 13.0156 20.171 13.0156V13.0192Z" fill="#0088CC"/>
<path d="M20.1717 13.21C25.2288 13.21 29.5217 16.3672 31.0431 20.6958C31.0431 20.66 31.0503 20.6243 31.0503 20.5886C29.511 16.2565 25.2217 13.1172 20.1717 13.1172C15.1217 13.1172 10.7146 16.3493 9.23242 20.7743C9.23242 20.8065 9.23599 20.8386 9.23956 20.8708C10.7039 16.4529 15.0467 13.21 20.1717 13.21Z" fill="#0089CD"/>
<path d="M20.1704 13.2109C15.0454 13.2109 10.7026 16.4538 9.23828 20.8717C9.23828 20.9074 9.24185 20.9431 9.24542 20.9788C10.6847 16.5645 15.0311 13.3074 20.1633 13.3074C25.2954 13.3074 29.5347 16.4824 31.0276 20.8145C31.0276 20.7752 31.0347 20.7359 31.0383 20.6967C29.5204 16.3681 25.2276 13.2109 20.1669 13.2109H20.1704Z" fill="#008BCE"/>
<path d="M20.1679 13.4047C25.2464 13.4047 29.55 16.5868 31.025 20.9118C31.025 20.8797 31.0286 20.844 31.0321 20.8118C29.5393 16.4797 25.2357 13.3047 20.1679 13.3047C15.1 13.3047 10.6893 16.5618 9.25 20.9761C9.25 21.0118 9.25357 21.044 9.25714 21.0797C10.675 16.669 15.0214 13.4047 20.1679 13.4047Z" fill="#008DCF"/>
<path d="M20.1685 13.4062C15.0221 13.4062 10.6757 16.6705 9.25781 21.0813C9.25781 21.1134 9.26495 21.142 9.26853 21.1741C10.665 16.7741 15.015 13.5063 20.1614 13.5063C25.3078 13.5063 29.5685 16.7063 31.015 21.0348C31.0185 20.9955 31.0221 20.9563 31.0221 20.917C29.5471 16.592 25.2435 13.4098 20.165 13.4098L20.1685 13.4062Z" fill="#008ED0"/>
<path d="M20.1679 13.6C25.2643 13.6 29.5786 16.8036 31.0072 21.1214C31.0072 21.0893 31.0143 21.0571 31.0179 21.0286C29.5715 16.7 25.2572 13.5 20.1643 13.5C15.0715 13.5 10.6679 16.7714 9.27148 21.1679C9.27506 21.2036 9.27863 21.2357 9.28577 21.2679C10.6608 16.875 15.0143 13.5964 20.1715 13.5964L20.1679 13.6Z" fill="#0090D0"/>
<path d="M20.167 13.6016C15.0098 13.6016 10.6562 16.8801 9.28125 21.273C9.28482 21.3016 9.28839 21.3337 9.29196 21.3623C10.6491 16.9801 15.0027 13.6944 20.1634 13.6944C25.3241 13.6944 29.592 16.9158 30.992 21.2301C30.9955 21.1944 31.0027 21.1587 31.0062 21.123C29.5777 16.8051 25.2634 13.6016 20.167 13.6016Z" fill="#0092D1"/>
<path d="M20.1573 13.7917C25.2751 13.7917 29.6001 17.0203 30.9787 21.331C30.9823 21.2989 30.9858 21.2632 30.993 21.231C29.5894 16.9132 25.2715 13.6953 20.1644 13.6953C15.0573 13.6953 10.6501 16.9846 9.29297 21.3632C9.29654 21.3953 9.30011 21.4275 9.30725 21.4596C10.6394 17.0846 14.993 13.7882 20.1608 13.7882L20.1573 13.7917Z" fill="#0093D2"/>
<path d="M20.1563 13.7891C14.9884 13.7891 10.6349 17.0855 9.30273 21.4605C9.30631 21.4891 9.30988 21.5212 9.31345 21.5498C10.6277 17.1855 14.9813 13.8855 20.1563 13.8855C25.3313 13.8855 29.6063 17.1283 30.9634 21.4319C30.967 21.3998 30.9706 21.3641 30.9777 21.3319C29.5992 17.0212 25.2742 13.7926 20.1563 13.7926V13.7891Z" fill="#0095D3"/>
<path d="M20.1648 13.9792C25.2934 13.9792 29.6184 17.2257 30.9576 21.5185C30.9612 21.49 30.9648 21.4578 30.9684 21.4292C29.6112 17.1257 25.2862 13.8828 20.1612 13.8828C15.0362 13.8828 10.6326 17.1864 9.31836 21.5471C9.32193 21.5792 9.32907 21.6114 9.33265 21.6435C10.6255 17.29 14.9862 13.9792 20.1648 13.9792Z" fill="#0097D4"/>
<path d="M20.1642 13.9844C14.9856 13.9844 10.6249 17.2987 9.33203 21.6487C9.3356 21.6737 9.34275 21.7022 9.34632 21.7272C10.6213 17.3915 14.9785 14.0844 20.1535 14.0844C25.3285 14.0844 29.6285 17.3487 30.9392 21.6415C30.9463 21.6022 30.9499 21.5629 30.957 21.5237C29.6177 17.2308 25.2927 13.9844 20.1642 13.9844Z" fill="#0098D5"/>
<path d="M20.1528 14.1746C25.2993 14.1746 29.6314 17.4388 30.9243 21.7138C30.9278 21.6888 30.935 21.6603 30.9386 21.6353C29.6314 17.3424 25.2957 14.0781 20.1528 14.0781C15.01 14.0781 10.6171 17.3853 9.3457 21.721C9.34927 21.746 9.35642 21.7746 9.35999 21.7996C10.6171 17.4817 14.9743 14.171 20.1564 14.171L20.1528 14.1746Z" fill="#009AD5"/>
<path d="M20.1539 14.1797C14.9717 14.1797 10.6181 17.4868 9.35742 21.8083C9.36099 21.8368 9.36814 21.869 9.37171 21.8975C10.6074 17.594 14.9681 14.2797 20.1503 14.2797C25.3324 14.2797 29.6324 17.5511 30.9039 21.8118C30.9074 21.7833 30.9146 21.7511 30.9181 21.7225C29.6253 17.4475 25.2931 14.1832 20.1467 14.1832L20.1539 14.1797Z" fill="#009CD6"/>
<path d="M20.1503 14.3699C25.3039 14.3699 29.6432 17.6484 30.8932 21.902C30.9003 21.8699 30.9039 21.8377 30.911 21.8056C29.6396 17.5449 25.3039 14.2734 20.1575 14.2734C15.011 14.2734 10.6146 17.5877 9.37891 21.8913C9.38248 21.9199 9.38962 21.9449 9.39319 21.9734C10.611 17.6842 14.9682 14.3663 20.1539 14.3663L20.1503 14.3699Z" fill="#009ED7"/>
<path d="M20.1494 14.375C14.9637 14.375 10.6065 17.6929 9.38867 21.9821C9.39581 22.0143 9.39939 22.0429 9.40653 22.075C10.5994 17.7964 14.9565 14.4679 20.1494 14.4679C25.3422 14.4679 29.6494 17.7536 30.878 21.9929C30.8815 21.9643 30.8887 21.9357 30.8922 21.9071C29.6422 17.6536 25.303 14.375 20.1494 14.375Z" fill="#00A0D8"/>
<path d="M20.1455 14.5574C25.317 14.5574 29.6562 17.8538 30.8598 22.0788C30.867 22.0467 30.8705 22.0145 30.8777 21.9859C29.6527 17.7467 25.3134 14.4609 20.1491 14.4609C14.9848 14.4609 10.5991 17.7895 9.40625 22.0681C9.41339 22.0967 9.41696 22.1252 9.42054 22.1502C10.5955 17.8895 14.9455 14.5574 20.1455 14.5574Z" fill="#00A1D9"/>
<path d="M20.1469 14.5625C14.9469 14.5625 10.5969 17.8946 9.42188 22.1554C9.42902 22.1839 9.43616 22.2089 9.43973 22.2375C10.5933 17.9946 14.9433 14.6625 20.1433 14.6625C25.3433 14.6625 29.6612 17.9589 30.8397 22.1732C30.8469 22.1446 30.8504 22.1125 30.8576 22.0839C29.654 17.8554 25.3147 14.5625 20.1433 14.5625H20.1469Z" fill="#00A3DA"/>
<path d="M20.1469 14.7569C25.3255 14.7569 29.6648 18.0605 30.8255 22.2569C30.8326 22.2283 30.8398 22.2033 30.8434 22.1748C29.6612 17.9605 25.3219 14.6641 20.1469 14.6641C14.9719 14.6641 10.5969 17.9962 9.44336 22.2391C9.4505 22.2641 9.45407 22.2891 9.46122 22.3141C10.6005 18.0926 14.9505 14.7605 20.1469 14.7605V14.7569Z" fill="#00A5DB"/>
<path d="M20.1467 14.7536C14.9502 14.7536 10.6002 18.0857 9.46094 22.3071C9.46808 22.3321 9.47165 22.3571 9.47879 22.3786C10.6002 18.1821 14.9538 14.8536 20.1502 14.8536C25.3467 14.8536 29.6681 18.1571 30.8074 22.3357C30.8145 22.3071 30.8217 22.2786 30.8252 22.25C29.6645 18.0536 25.3252 14.75 20.1467 14.75V14.7536Z" fill="#00A7DC"/>
<path d="M20.1428 14.9558C25.3249 14.9558 29.6678 18.2701 30.7857 22.4344C30.7928 22.4022 30.7999 22.3737 30.8071 22.3415C29.6642 18.1629 25.3285 14.8594 20.1499 14.8594C14.9714 14.8594 10.6035 18.1879 9.47852 22.3844C9.48566 22.4129 9.48923 22.4379 9.49637 22.4665C10.5964 18.2844 14.9464 14.9558 20.1428 14.9558Z" fill="#00A9DD"/>
<path d="M20.1425 14.9531C14.9425 14.9531 10.5961 18.2817 9.49609 22.4638C9.50324 22.4888 9.50681 22.5138 9.51395 22.5388C10.5997 18.3817 14.9425 15.0496 20.1425 15.0496C25.3425 15.0496 29.6675 18.3603 30.7675 22.5067C30.7747 22.4817 30.7782 22.4567 30.7854 22.4353C29.6675 18.271 25.3282 14.9567 20.1425 14.9567V14.9531Z" fill="#00ABDE"/>
<path d="M20.1422 15.1433C25.328 15.1433 29.6672 18.4612 30.7494 22.5862C30.7565 22.5576 30.7601 22.5326 30.7672 22.504C29.6672 18.3612 25.328 15.0469 20.1422 15.0469C14.9565 15.0469 10.5958 18.379 9.51367 22.5362C9.52081 22.5647 9.52439 22.5897 9.53153 22.6183C10.5958 18.479 14.9387 15.1433 20.1422 15.1433Z" fill="#00ADDE"/>
<path d="M20.142 15.1442C14.9384 15.1442 10.5955 18.4763 9.53125 22.6192C9.53839 22.6442 9.54196 22.6656 9.54911 22.6906C10.5955 18.5728 14.9384 15.2406 20.1384 15.2406C25.3384 15.2406 29.6741 18.5621 30.7277 22.6728C30.7348 22.6442 30.742 22.6156 30.7491 22.5835C29.667 18.4585 25.3313 15.1406 20.142 15.1406V15.1442Z" fill="#00AFDF"/>
<path d="M20.1329 15.3386C25.3294 15.3386 29.6686 18.66 30.7079 22.7493C30.7151 22.7243 30.7222 22.6993 30.7294 22.6743C29.6758 18.5636 25.3329 15.2422 20.1401 15.2422C14.9472 15.2422 10.5972 18.5708 9.55078 22.6922C9.55792 22.7172 9.56507 22.7422 9.57221 22.7636C10.6008 18.6708 14.9329 15.3386 20.1365 15.3386H20.1329Z" fill="#00B1E0"/>
<path d="M20.1326 15.3317C14.9291 15.3317 10.5969 18.6638 9.56836 22.7567C9.5755 22.7781 9.58264 22.7996 9.58622 22.821C10.6005 18.7531 14.9362 15.4246 20.1362 15.4246C25.3362 15.4246 29.6648 18.7424 30.6862 22.8031C30.6934 22.7817 30.7005 22.7603 30.7041 22.7388C29.6684 18.6496 25.3291 15.3281 20.1291 15.3281L20.1326 15.3317Z" fill="#00B3E1"/>
<path d="M20.1359 15.5304C25.3288 15.5304 29.6609 18.8446 30.6645 22.8875C30.6717 22.8625 30.6788 22.8375 30.6859 22.8161C29.6645 18.7554 25.3288 15.4375 20.1359 15.4375C14.9431 15.4375 10.6002 18.7625 9.58594 22.8339C9.59308 22.8589 9.60022 22.8839 9.60737 22.9089C10.6038 18.8589 14.9359 15.5375 20.1359 15.5375V15.5304Z" fill="#0DB5E2"/>
<path d="M20.136 15.527C14.936 15.527 10.6003 18.852 9.60742 22.8984C9.61456 22.9199 9.62171 22.9449 9.62885 22.9663C10.6074 18.9449 14.9431 15.6234 20.1396 15.6234C25.336 15.6234 29.661 18.9413 30.6467 22.9592C30.6538 22.9342 30.661 22.9056 30.6681 22.8806C29.6646 18.8413 25.3289 15.5234 20.1396 15.5234L20.136 15.527Z" fill="#19B7E3"/>
<path d="M20.1325 15.7179C25.3289 15.7179 29.661 19.0429 30.6218 23.0429C30.6289 23.0143 30.636 22.9857 30.6468 22.9607C29.661 18.9429 25.3325 15.625 20.1396 15.625C14.9468 15.625 10.611 18.9464 9.62891 22.9679C9.63605 22.9893 9.64319 23.0143 9.64676 23.0357C10.611 19.0393 14.9396 15.7179 20.1325 15.7179Z" fill="#21B9E4"/>
<path d="M20.1322 15.7188C14.9393 15.7188 10.6108 19.0402 9.64648 23.0366C9.65006 23.0545 9.6572 23.0723 9.66077 23.0902C10.6179 19.1152 14.9393 15.8116 20.1322 15.8116C25.3251 15.8116 29.6501 19.1152 30.6072 23.0902C30.6108 23.0759 30.6143 23.0616 30.6215 23.0438C29.6643 19.0438 25.3322 15.7188 20.1322 15.7188Z" fill="#28BBE5"/>
<path d="M20.1316 15.9054C25.3173 15.9054 29.6387 19.1911 30.5923 23.1375C30.5959 23.1232 30.5994 23.1089 30.6066 23.0911C29.6494 19.1161 25.3244 15.8125 20.1316 15.8125C14.9387 15.8125 10.6173 19.1161 9.66016 23.0911C9.66373 23.1054 9.6673 23.1196 9.67444 23.1339C10.628 19.1875 14.9459 15.9018 20.1316 15.9018V15.9054Z" fill="#37BDE6"/>
<path d="M20.1329 15.9062C14.9472 15.9062 10.6294 19.192 9.67578 23.1384C9.67935 23.1527 9.68292 23.167 9.69007 23.1848C10.6436 19.2598 14.9579 15.9884 20.1365 15.9884C25.3151 15.9884 29.6365 19.2634 30.5829 23.192C30.5865 23.1741 30.5936 23.1598 30.5972 23.142C29.6401 19.192 25.3222 15.9098 20.1365 15.9098L20.1329 15.9062Z" fill="#43BFE6"/>
<path d="M20.132 16.085C25.3034 16.085 29.6141 19.335 30.5641 23.2386C30.5677 23.2243 30.5748 23.21 30.5784 23.1958C29.632 19.2636 25.3141 15.9922 20.132 15.9922C14.9498 15.9922 10.6391 19.2636 9.68555 23.1886C9.68912 23.2065 9.69626 23.2208 9.7034 23.2386C10.6534 19.3386 14.9605 16.0886 20.132 16.0886V16.085Z" fill="#4DC0E7"/>
<path d="M20.1317 16.0817C14.9603 16.0817 10.6531 19.3317 9.70312 23.2317C9.7067 23.246 9.71384 23.2567 9.71741 23.271C10.6674 19.3996 14.9638 16.1638 20.1317 16.1638C25.2996 16.1638 29.6031 19.396 30.5531 23.271C30.5567 23.2567 30.5638 23.246 30.5674 23.2317C29.6174 19.3281 25.3067 16.0781 20.1353 16.0781L20.1317 16.0817Z" fill="#56C2E8"/>
<path d="M20.1366 16.2498C25.2938 16.2498 29.5902 19.4605 30.5402 23.3105C30.5438 23.2962 30.5509 23.2855 30.5545 23.2712C29.6045 19.3962 25.3009 16.1641 20.133 16.1641C14.9652 16.1641 10.6688 19.3998 9.71875 23.2712C9.72232 23.2855 9.72946 23.2998 9.73304 23.3141C10.683 19.4641 14.983 16.2533 20.1402 16.2533L20.1366 16.2498Z" fill="#5EC4E8"/>
<path d="M20.1357 16.25C14.9821 16.25 10.6821 19.4643 9.72852 23.3107C9.73209 23.3286 9.73923 23.3429 9.74637 23.3607C10.6928 19.5357 14.9821 16.3429 20.1321 16.3429C25.2821 16.3429 29.5749 19.5357 30.5214 23.3607C30.5285 23.3429 30.5321 23.3286 30.5392 23.3107C29.5892 19.4607 25.2928 16.25 20.1357 16.25Z" fill="#65C6E9"/>
<path d="M20.1318 16.4295C25.2747 16.4295 29.5604 19.6009 30.5068 23.4009C30.5104 23.3866 30.5175 23.3723 30.5211 23.3616C29.5747 19.5366 25.2818 16.3438 20.1318 16.3438C14.9818 16.3438 10.6961 19.5366 9.74609 23.3616C9.74967 23.3759 9.75681 23.3866 9.76038 23.4009C10.7068 19.6045 14.989 16.4295 20.1318 16.4295Z" fill="#6DC7EA"/>
<path d="M20.1331 16.4297C14.9903 16.4297 10.7081 19.6047 9.76172 23.4011C9.76529 23.4154 9.77243 23.4297 9.776 23.444C10.726 19.6725 15.0081 16.5225 20.1367 16.5225C25.2653 16.5225 29.5439 19.6725 30.4939 23.444C30.4974 23.4297 30.5046 23.4154 30.5081 23.4011C29.5617 19.6047 25.276 16.4297 20.1331 16.4297Z" fill="#74C9EA"/>
<path d="M20.1329 16.6127C25.2614 16.6127 29.5329 19.7484 30.4793 23.4949C30.4864 23.477 30.49 23.4627 30.4972 23.4449C29.5472 19.6734 25.2686 16.5234 20.14 16.5234C15.0114 16.5234 10.7293 19.6734 9.7793 23.4449C9.78644 23.4592 9.79001 23.477 9.79715 23.4913C10.7436 19.7449 15.0114 16.6092 20.1364 16.6092L20.1329 16.6127Z" fill="#7ACBEB"/>
<path d="M20.1323 16.6094C15.0073 16.6094 10.7358 19.7451 9.79297 23.4915C9.79654 23.5058 9.80368 23.5165 9.80725 23.5308C10.7537 19.8129 15.018 16.6987 20.1358 16.6987C25.2537 16.6987 29.5215 19.8129 30.468 23.5308C30.4715 23.5165 30.4751 23.5058 30.4823 23.4915C29.5358 19.7451 25.2644 16.6094 20.1358 16.6094H20.1323Z" fill="#81CDEC"/>
<path d="M20.1368 16.7924C25.244 16.7924 29.5047 19.8817 30.4511 23.5746C30.4547 23.5603 30.4618 23.546 30.4654 23.5353C29.519 19.8138 25.2511 16.7031 20.1333 16.7031C15.0154 16.7031 10.7511 19.8174 9.80469 23.5353C9.80826 23.5496 9.8154 23.5638 9.81897 23.5746C10.7654 19.8817 15.0297 16.7924 20.1368 16.7924Z" fill="#87CFEC"/>
<path d="M20.1362 16.7926C15.0291 16.7926 10.7648 19.8819 9.81836 23.5748C9.82193 23.5891 9.82907 23.6033 9.83264 23.6141C10.7791 19.9498 15.0326 16.8783 20.1326 16.8783C25.2326 16.8783 29.4898 19.9533 30.4326 23.6212C30.4398 23.6033 30.4434 23.5891 30.4505 23.5712C29.5041 19.8783 25.2469 16.7891 20.1362 16.7891V16.7926Z" fill="#8ED1ED"/>
<path d="M20.1288 16.9679C25.2288 16.9679 29.4788 20.025 30.4181 23.6679C30.4252 23.6536 30.4288 23.6357 30.4359 23.6179C29.4931 19.95 25.2359 16.875 20.1359 16.875C15.0359 16.875 10.7824 19.9464 9.83594 23.6107C9.84308 23.625 9.84665 23.6429 9.85022 23.6571C10.7931 20.0179 15.0324 16.9679 20.1288 16.9679Z" fill="#94D3EE"/>
<path d="M20.1282 16.9688C15.0318 16.9688 10.7925 20.0223 9.84961 23.658C9.85318 23.6723 9.86032 23.6866 9.8639 23.7009C10.8068 20.0866 15.0496 17.0509 20.1318 17.0509C25.2139 17.0509 29.4639 20.0902 30.4032 23.708C30.4068 23.6937 30.4103 23.683 30.4175 23.6687C29.4782 20.0259 25.2282 16.9688 20.1282 16.9688Z" fill="#9AD5EF"/>
<path d="M20.1311 17.1397C25.2061 17.1397 29.4454 20.154 30.3883 23.7433C30.3919 23.729 30.399 23.7183 30.4026 23.704C29.4633 20.0862 25.2169 17.0469 20.1311 17.0469C15.0454 17.0469 10.8061 20.0826 9.86328 23.6969C9.86685 23.7112 9.874 23.7219 9.87757 23.7362C10.824 20.1504 15.0597 17.1397 20.1311 17.1397Z" fill="#A0D7F0"/>
<path d="M20.1325 17.1406C15.061 17.1406 10.8253 20.1513 9.87891 23.7371C9.88248 23.7513 9.88962 23.7656 9.89676 23.7799C10.8396 20.2228 15.061 17.2335 20.1289 17.2335C25.1968 17.2335 29.4289 20.2263 30.3718 23.7871C30.3789 23.7728 30.3825 23.7585 30.3896 23.7442C29.4468 20.1549 25.2075 17.1406 20.1325 17.1406Z" fill="#A6D9F0"/>
<path d="M20.1322 17.3165C25.1893 17.3165 29.4108 20.2879 30.3572 23.8237C30.3608 23.8129 30.3679 23.7987 30.3715 23.7879C29.4286 20.2237 25.2001 17.2344 20.1286 17.2344C15.0572 17.2344 10.8393 20.2237 9.89648 23.7808C9.90006 23.7951 9.9072 23.8058 9.91077 23.8201C10.8608 20.2915 15.0786 17.3201 20.1322 17.3201V17.3165Z" fill="#ACDCF1"/>
<path d="M20.1316 17.3203C15.078 17.3203 10.8566 20.2917 9.91016 23.8203C9.91373 23.831 9.92087 23.8453 9.92444 23.856C10.8744 20.3525 15.0852 17.406 20.1316 17.406C25.178 17.406 29.3959 20.356 30.3423 23.8632C30.3459 23.8525 30.353 23.8382 30.3566 23.8275C29.4102 20.2917 25.1887 17.3203 20.1316 17.3203Z" fill="#B2DEF2"/>
<path d="M20.131 17.4991C25.1703 17.4991 29.3738 20.4241 30.3274 23.9027C30.331 23.8884 30.3381 23.8777 30.3417 23.8634C29.3953 20.3562 25.181 17.4062 20.131 17.4062C15.081 17.4062 10.8738 20.3527 9.92383 23.8563C9.93097 23.8705 9.93454 23.8848 9.94168 23.8991C10.8917 20.4241 15.0953 17.4955 20.131 17.4955V17.4991Z" fill="#B8E0F3"/>
<path d="M20.1326 17.5C15.0934 17.5 10.8898 20.425 9.94336 23.9036C9.94693 23.9179 9.95407 23.9286 9.95765 23.9429C10.9112 20.4964 15.1076 17.5893 20.1326 17.5893C25.1576 17.5893 29.3612 20.4964 30.3112 23.95C30.3184 23.9357 30.3219 23.9214 30.3291 23.9071C29.3791 20.4286 25.1719 17.5036 20.1326 17.5036V17.5Z" fill="#BDE2F4"/>
<path d="M20.132 17.6746C25.1499 17.6746 29.3427 20.5567 30.2963 23.9781C30.2999 23.9638 30.307 23.9531 30.3106 23.9388C29.3606 20.4853 25.1642 17.5781 20.132 17.5781C15.0999 17.5781 10.907 20.4817 9.95703 23.9317C9.9606 23.9424 9.96775 23.9567 9.97132 23.9674C10.9285 20.546 15.1177 17.671 20.132 17.671V17.6746Z" fill="#C3E5F5"/>
<path d="M20.1314 17.6719C15.1171 17.6719 10.9243 20.5504 9.9707 23.9683C9.97427 23.979 9.98142 23.9933 9.98499 24.004C10.9421 20.6147 15.1243 17.7576 20.1314 17.7576C25.1386 17.7576 29.3243 20.6183 30.2778 24.0112C30.2814 24.0004 30.2886 23.9862 30.2921 23.9754C29.3421 20.5504 25.1493 17.6719 20.1278 17.6719H20.1314Z" fill="#C9E7F5"/>
<path d="M20.1363 17.8513C25.1328 17.8513 29.3078 20.6871 30.2649 24.0549C30.2685 24.0442 30.2756 24.0299 30.2792 24.0192C29.3256 20.6228 25.1435 17.7656 20.1328 17.7656C15.122 17.7656 10.9435 20.6228 9.98633 24.0121C9.99347 24.0263 9.99704 24.0406 10.0042 24.0585C10.9613 20.6942 15.1399 17.8549 20.1363 17.8549V17.8513Z" fill="#CEE9F6"/>
<path d="M20.136 17.8516C15.1396 17.8516 10.961 20.6908 10.0039 24.0551C10.0075 24.0658 10.0146 24.0801 10.0182 24.0908C10.9789 20.7516 15.1468 17.9373 20.1325 17.9373C25.1182 17.9373 29.2932 20.7551 30.2468 24.098C30.2539 24.0837 30.2575 24.0694 30.2646 24.0551C29.3075 20.6873 25.1325 17.8516 20.136 17.8516Z" fill="#D4ECF7"/>
<path d="M20.1319 18.0232C25.114 18.0232 29.2747 20.8196 30.2319 24.1339C30.2354 24.1232 30.2426 24.1089 30.2461 24.0982C29.289 20.7554 25.1176 17.9375 20.1319 17.9375C15.1461 17.9375 10.9783 20.7518 10.0176 24.0911C10.0211 24.1018 10.0283 24.1161 10.0319 24.1268C10.9926 20.8196 15.1533 18.0232 20.1319 18.0232Z" fill="#DAEEF8"/>
<path d="M20.1313 18.0234C15.1527 18.0234 10.992 20.8199 10.0312 24.127C10.0384 24.1413 10.042 24.1556 10.0491 24.1734C11.0098 20.8913 15.1705 18.1163 20.1348 18.1163C25.0991 18.1163 29.2563 20.8877 30.217 24.1734C30.2205 24.1627 30.2277 24.1484 30.2313 24.1342C29.2741 20.8199 25.1098 18.0234 20.1313 18.0234Z" fill="#DFF1F9"/>
<path d="M20.1297 18.1993C25.094 18.1993 29.244 20.9565 30.2011 24.2208C30.2083 24.2065 30.2154 24.1886 30.2225 24.1743C29.2618 20.8886 25.1047 18.1172 20.1404 18.1172C15.1761 18.1172 11.0154 20.8922 10.0547 24.1743C10.0583 24.185 10.0654 24.1993 10.069 24.21C11.0333 20.9529 15.1725 18.1993 20.1297 18.1993Z" fill="#E5F3FA"/>
<path d="M20.1291 18.2031C15.1719 18.2031 11.0291 20.9567 10.0684 24.2138C10.0719 24.2246 10.0791 24.2353 10.0826 24.2496C11.0505 21.0246 15.1826 18.296 20.1291 18.296C25.0755 18.296 29.2219 21.0281 30.1826 24.2603C30.1862 24.2496 30.1934 24.2353 30.2005 24.2246C29.2434 20.9638 25.0934 18.2031 20.1291 18.2031Z" fill="#EBF6FB"/>
<path d="M20.1324 18.3783C25.0717 18.3783 29.2002 21.0891 30.1681 24.2891C30.1716 24.2783 30.1788 24.2641 30.1859 24.2533C29.2252 21.0212 25.0824 18.2891 20.1324 18.2891C15.1824 18.2891 11.0538 21.0176 10.0859 24.2426C10.0931 24.2569 10.1002 24.2712 10.1038 24.2855C11.0717 21.0891 15.2002 18.3783 20.1359 18.3783H20.1324Z" fill="#F1F8FD"/>
<path d="M20.1318 18.375C15.196 18.375 11.0675 21.0821 10.0996 24.2821C10.1032 24.2929 10.1103 24.3071 10.1175 24.3179C11.0889 21.1464 15.2103 18.4643 20.1318 18.4643C25.0532 18.4643 29.1818 21.15 30.1496 24.3214C30.1532 24.3107 30.1603 24.3 30.1639 24.2857C29.1996 21.0821 25.0675 18.375 20.1282 18.375H20.1318Z" fill="#F7FBFE"/>
<path d="M31.6147 19.9563C31.6147 13.6455 26.4825 8.53125 20.1361 8.53125C13.7897 8.53125 8.65039 13.642 8.65039 19.9563C8.65039 20.5813 8.70396 21.1955 8.80039 21.792C8.80396 21.8241 8.81111 21.8527 8.81825 21.8813C8.82539 21.9134 8.82896 21.9491 8.83611 21.9812C8.84325 22.0098 8.84682 22.042 8.85396 22.0705C8.8611 22.1027 8.86468 22.1384 8.87182 22.1705C8.87896 22.1991 8.88253 22.2312 8.8861 22.2598C8.89325 22.2884 8.90039 22.317 8.90753 22.3491C8.91468 22.3741 8.91825 22.3991 8.92539 22.4277C8.93253 22.4527 8.9361 22.4813 8.94325 22.5063C8.95039 22.5348 8.95753 22.5634 8.96468 22.5955C8.97182 22.6205 8.97539 22.6491 8.98253 22.6741C8.98968 22.7063 8.99682 22.7384 9.00396 22.767C9.0111 22.792 9.01825 22.8205 9.02539 22.8455C9.03253 22.8741 9.04325 22.8991 9.05039 22.9277C9.05753 22.9527 9.06468 22.9741 9.07182 22.9991C9.07896 23.0241 9.0861 23.0455 9.09325 23.0705C9.10039 23.0991 9.10753 23.1241 9.11825 23.1527C9.12539 23.1777 9.13253 23.1991 9.13968 23.2241C9.14682 23.2527 9.15396 23.2777 9.16468 23.3063C9.17182 23.3277 9.17896 23.3527 9.1861 23.3741C9.19325 23.3991 9.20396 23.4205 9.2111 23.4455C9.21825 23.467 9.22539 23.4884 9.23253 23.5098C9.23968 23.5313 9.24682 23.5527 9.25396 23.5741C9.26111 23.5991 9.27182 23.6241 9.27896 23.6527C9.2861 23.6741 9.29325 23.6991 9.30039 23.7205C9.3111 23.7455 9.31825 23.7705 9.32539 23.7991C9.33253 23.8205 9.33968 23.8455 9.34682 23.867C9.35396 23.892 9.36468 23.9134 9.37539 23.9384C9.38253 23.9598 9.38968 23.9777 9.40039 23.9991C9.40753 24.0205 9.41825 24.0455 9.42896 24.067C9.4361 24.0884 9.44325 24.1062 9.45396 24.1277C9.4611 24.1455 9.46825 24.167 9.47896 24.1848C9.4861 24.1991 9.48968 24.2134 9.49682 24.2277C9.50039 24.2384 9.50396 24.2491 9.5111 24.2598C9.51468 24.2705 9.51825 24.2812 9.52539 24.2955C9.53253 24.3098 9.5361 24.3241 9.54325 24.3384C9.54682 24.3491 9.55039 24.3598 9.55753 24.3705C9.56111 24.3812 9.56468 24.392 9.57182 24.4062C9.57896 24.4205 9.58253 24.4312 9.58968 24.4455C9.59325 24.4562 9.60039 24.467 9.60396 24.4741C9.60753 24.4848 9.61468 24.4955 9.61825 24.5063C9.62539 24.5205 9.62896 24.5312 9.6361 24.5455C9.63968 24.5562 9.64682 24.567 9.65039 24.5741C9.65396 24.5848 9.6611 24.5955 9.66468 24.6063C9.66825 24.617 9.67539 24.6277 9.67896 24.6384C9.68611 24.6527 9.68968 24.6634 9.69682 24.6777C9.70039 24.6884 9.70753 24.6991 9.71111 24.7098C9.71468 24.7205 9.72182 24.7313 9.72539 24.742C9.73253 24.7527 9.7361 24.767 9.74325 24.7812C9.74682 24.792 9.75396 24.8027 9.75753 24.8134C9.7611 24.8241 9.76825 24.8348 9.77182 24.8455C9.77896 24.8563 9.78253 24.8705 9.78968 24.8848C9.79325 24.8955 9.80039 24.9062 9.80396 24.917C9.80753 24.9277 9.81468 24.9348 9.81825 24.9455C9.82182 24.9562 9.82896 24.9634 9.83253 24.9741C9.83968 24.9848 9.84325 24.9955 9.85039 25.0098C9.85396 25.0205 9.8611 25.0277 9.86468 25.0384C9.86825 25.0491 9.87539 25.0563 9.87896 25.067C9.88611 25.0777 9.88968 25.092 9.89682 25.1027C9.90039 25.1134 9.90753 25.1205 9.91111 25.1313C9.91468 25.142 9.92182 25.1491 9.92539 25.1598C9.93253 25.1705 9.93611 25.1848 9.94325 25.1955C9.94682 25.2062 9.95396 25.2134 9.95753 25.2241C10.3182 25.917 10.7468 26.5705 11.2361 27.1705C11.2361 27.1705 11.2361 27.1705 11.2397 27.1741C11.2397 27.1741 11.2432 27.1813 11.2468 27.1848C11.2468 27.1848 11.2468 27.1848 11.2504 27.1884C11.2504 27.1884 11.254 27.1955 11.2575 27.1991C11.2575 27.1991 11.2611 27.2027 11.2647 27.2063C11.2647 27.2063 11.2682 27.2098 11.2718 27.2134C11.2718 27.2134 11.2718 27.2134 11.2754 27.217C11.2754 27.217 11.2754 27.2205 11.279 27.2241C11.279 27.2241 11.279 27.2277 11.2825 27.2313C11.2825 27.2313 11.2825 27.2348 11.2861 27.2384C11.2861 27.2384 11.2861 27.242 11.2932 27.2455C11.2932 27.2455 11.2932 27.2455 11.2968 27.2491C11.2968 27.2491 11.2968 27.2491 11.3004 27.2527C11.3004 27.2527 11.304 27.2563 11.3075 27.2598C11.3075 27.2598 11.3075 27.2598 11.3111 27.2634C11.3111 27.2634 11.3111 27.267 11.3147 27.2705C11.3147 27.2705 11.3147 27.2705 11.3182 27.2741C11.3182 27.2741 11.3182 27.2741 11.3182 27.2777C11.3182 27.2777 11.3182 27.2813 11.3218 27.2848C11.3218 27.2848 11.3218 27.2848 11.3218 27.2884C11.3218 27.2884 11.3254 27.292 11.329 27.2955C11.329 27.2955 11.329 27.2955 11.3325 27.2991C11.3325 27.2991 11.3361 27.3027 11.3397 27.3062C11.3432 27.3134 11.3504 27.317 11.354 27.3241C11.3575 27.3277 11.3611 27.3348 11.3647 27.3384C11.3718 27.3455 11.3754 27.3527 11.3825 27.3598C11.3861 27.367 11.3932 27.3705 11.3968 27.3777C11.4004 27.3812 11.404 27.3848 11.4075 27.392C11.4111 27.3991 11.4182 27.4027 11.4218 27.4098C11.4254 27.4134 11.4325 27.4205 11.4361 27.4241C11.4397 27.4277 11.4432 27.4348 11.4468 27.4384C11.4504 27.442 11.4575 27.4491 11.4611 27.4527C11.4647 27.4598 11.4718 27.4634 11.4754 27.4705C11.479 27.4741 11.4825 27.4813 11.4861 27.4848C11.4897 27.492 11.4968 27.4955 11.5004 27.5027C11.504 27.5063 11.5075 27.5134 11.5147 27.517C11.5182 27.5205 11.5218 27.5277 11.529 27.5312C11.5325 27.5348 11.5397 27.542 11.5432 27.5455C11.5468 27.5527 11.554 27.5563 11.5575 27.5634C11.5611 27.567 11.5647 27.5741 11.5682 27.5777C11.5718 27.5813 11.579 27.5884 11.5825 27.5955C11.5861 27.5991 11.5932 27.6063 11.5968 27.6134C11.6004 27.617 11.604 27.6241 11.6111 27.6277C11.6147 27.6313 11.6218 27.6384 11.6254 27.6455C11.629 27.6527 11.6361 27.6562 11.6397 27.6634C11.6432 27.667 11.6468 27.6705 11.6504 27.6741C11.6575 27.6812 11.6611 27.6848 11.6682 27.692C11.6718 27.6991 11.679 27.7027 11.6825 27.7063C11.6861 27.7134 11.6932 27.717 11.6968 27.7205C11.7004 27.7277 11.7075 27.7312 11.7111 27.7348C11.7147 27.7384 11.7218 27.7455 11.7254 27.7491C11.729 27.7527 11.7361 27.7598 11.7397 27.7634C11.7432 27.767 11.7504 27.7741 11.754 27.7777C11.7575 27.7848 11.7647 27.7884 11.7682 27.7955C13.8682 30.0134 16.8397 31.3991 20.1361 31.3991C23.4325 31.3991 26.4111 30.0062 28.5075 27.7848C28.5111 27.7812 28.5182 27.7741 28.5218 27.7705C28.5254 27.7634 28.5325 27.7598 28.5361 27.7527C28.5397 27.7491 28.5468 27.742 28.5504 27.7384C28.554 27.7313 28.5611 27.7277 28.5647 27.7241C28.5682 27.717 28.5754 27.7134 28.579 27.7098C28.5825 27.7027 28.5897 27.6991 28.5932 27.6955C28.5968 27.692 28.6004 27.6884 28.604 27.6813C28.604 27.6813 28.6075 27.6777 28.6111 27.6741C28.6111 27.6741 28.6182 27.667 28.6218 27.6634C28.6254 27.6562 28.6325 27.6527 28.6361 27.6455C28.6397 27.642 28.6432 27.6384 28.6468 27.6313C28.654 27.6241 28.6575 27.617 28.6647 27.6134C28.6682 27.6098 28.6718 27.6027 28.6754 27.5991C28.679 27.5955 28.6825 27.5884 28.6861 27.5848C28.6897 27.5812 28.6968 27.5741 28.7004 27.5705C28.704 27.5634 28.7111 27.5598 28.7147 27.5527C28.7182 27.5491 28.7218 27.542 28.729 27.5384C28.7325 27.5348 28.7361 27.5277 28.7432 27.5241C28.7504 27.517 28.754 27.5098 28.7611 27.5063C28.7647 27.5027 28.7682 27.4955 28.7754 27.492C28.779 27.4884 28.7825 27.4813 28.7897 27.4777C28.7932 27.4741 28.8004 27.467 28.804 27.4634C28.8075 27.4563 28.8147 27.4527 28.8182 27.4455C28.8218 27.442 28.829 27.4348 28.8325 27.4312C28.8361 27.4241 28.8432 27.4205 28.8468 27.4134C28.8504 27.4098 28.854 27.4063 28.8575 27.3991C28.8611 27.3955 28.8647 27.3884 28.8718 27.3848C28.8754 27.3777 28.8825 27.3741 28.8861 27.367C28.8897 27.3634 28.8932 27.3562 28.8968 27.3527C28.9004 27.3491 28.904 27.342 28.9111 27.3384C28.9147 27.3312 28.9218 27.3277 28.9254 27.3205C28.9254 27.3205 28.929 27.317 28.9325 27.3134C28.9325 27.3134 28.9325 27.3134 28.9361 27.3098C28.9361 27.3098 28.9397 27.3062 28.9432 27.3027C28.9432 27.3027 28.9432 27.3027 28.9468 27.2991C28.9468 27.2991 28.9468 27.2991 28.9504 27.2955C28.9504 27.2955 28.9504 27.2955 28.954 27.292C28.954 27.292 28.954 27.2884 28.9575 27.2848C28.9575 27.2848 28.9575 27.2812 28.9611 27.2777C28.9611 27.2777 28.9611 27.2777 28.9647 27.2741C28.9647 27.2741 28.9647 27.2705 28.9682 27.267C28.9682 27.267 28.9718 27.2634 28.9754 27.2598C28.9754 27.2598 28.9754 27.2563 28.979 27.2527C28.979 27.2527 28.9825 27.2455 28.9861 27.2455C28.9861 27.2455 28.9861 27.242 28.9897 27.2384C28.9897 27.2384 28.9932 27.2348 28.9968 27.2313C28.9968 27.2313 28.9968 27.2313 29.0004 27.2277C29.0004 27.2277 29.004 27.2241 29.0075 27.2205C29.0075 27.2205 29.0075 27.217 29.0111 27.2134C29.0111 27.2134 29.0147 27.2063 29.0182 27.2063C29.0182 27.2063 29.0182 27.2062 29.0182 27.2027C29.0182 27.2027 29.0218 27.1955 29.0254 27.1955C29.0254 27.1955 29.029 27.192 29.0325 27.1884C29.0325 27.1884 29.0361 27.1848 29.0397 27.1813C29.0397 27.1813 29.0432 27.1777 29.0468 27.1741C29.0468 27.1741 29.0504 27.1705 29.054 27.167C29.054 27.167 29.0575 27.1634 29.0611 27.1598C29.0611 27.1598 29.0647 27.1562 29.0682 27.1527C29.0682 27.1527 29.0718 27.1491 29.0754 27.1455C29.0754 27.1455 29.0754 27.1455 29.0754 27.142C29.554 26.5527 29.9718 25.9134 30.3254 25.2348C30.329 25.2241 30.3361 25.217 30.3397 25.2063C30.3432 25.1955 30.3504 25.1884 30.354 25.1777C30.3575 25.167 30.3647 25.1598 30.3682 25.1491C30.3754 25.1348 30.3825 25.1205 30.3897 25.1062C30.3932 25.0955 30.4004 25.0884 30.404 25.0777C30.4075 25.067 30.4147 25.0598 30.4182 25.0491C30.4254 25.0384 30.429 25.0277 30.4361 25.0134C30.4397 25.0027 30.4468 24.9955 30.4504 24.9848C30.454 24.9741 30.4611 24.967 30.4647 24.9562C30.4682 24.9455 30.4754 24.9384 30.479 24.9277C30.4861 24.917 30.4897 24.9027 30.4968 24.8884C30.5004 24.8777 30.5075 24.867 30.5111 24.8563C30.5147 24.8455 30.5182 24.8348 30.5254 24.8277C30.529 24.817 30.5325 24.8063 30.5397 24.7991C30.5468 24.7848 30.5504 24.7741 30.5575 24.7598C30.5611 24.7491 30.5682 24.7384 30.5718 24.7277C30.5754 24.717 30.5825 24.7062 30.5861 24.6991C30.5932 24.6848 30.5968 24.6741 30.604 24.6598C30.6111 24.6455 30.6147 24.6348 30.6218 24.6205C30.6254 24.6098 30.6325 24.5991 30.6361 24.5884C30.6397 24.5777 30.6468 24.567 30.6504 24.5598C30.6575 24.5455 30.6611 24.5348 30.6682 24.5205C30.6718 24.5098 30.679 24.4991 30.6825 24.4884C30.6861 24.4777 30.6932 24.467 30.6968 24.4562C30.704 24.442 30.7075 24.4313 30.7147 24.417C30.7182 24.4063 30.7218 24.3955 30.729 24.3848C30.7325 24.3741 30.7361 24.3634 30.7432 24.3527C30.7468 24.342 30.754 24.3277 30.7575 24.317C30.7647 24.3027 30.7682 24.2884 30.7754 24.2741C30.779 24.2634 30.7825 24.2527 30.7897 24.2384C30.7932 24.2277 30.8004 24.217 30.804 24.2027C30.8147 24.1777 30.8254 24.1527 30.8325 24.1277C30.8432 24.1062 30.8504 24.0813 30.8611 24.0598C30.8682 24.0384 30.879 24.0134 30.8897 23.992C30.8968 23.9705 30.904 23.9527 30.9147 23.9313C30.9254 23.9063 30.9325 23.8848 30.9397 23.8598C30.9504 23.8312 30.9575 23.8027 30.9682 23.7741C30.979 23.7491 30.9861 23.7241 30.9932 23.6955C31.0004 23.6741 31.0075 23.6491 31.0147 23.6277C31.0254 23.5991 31.0361 23.5705 31.0432 23.542C31.0504 23.517 31.0611 23.492 31.0682 23.467C31.0754 23.442 31.0861 23.4205 31.0932 23.3955C31.1004 23.3705 31.1075 23.3455 31.1182 23.317C31.1254 23.2884 31.1325 23.2634 31.1432 23.2348C31.1504 23.2098 31.1575 23.1812 31.1647 23.1562C31.1754 23.1241 31.1825 23.0955 31.1897 23.0634C31.1968 23.0348 31.204 23.0098 31.2147 22.9812C31.2218 22.9563 31.229 22.9348 31.2361 22.9098C31.2468 22.8741 31.2575 22.8384 31.2647 22.8027C31.2718 22.7777 31.2754 22.7491 31.2825 22.7205C31.2897 22.692 31.2968 22.6634 31.304 22.6313C31.3111 22.6027 31.3182 22.5741 31.3254 22.542C31.3325 22.5098 31.3397 22.4777 31.3468 22.4455C31.354 22.4205 31.3575 22.392 31.3647 22.367C31.3718 22.3348 31.379 22.3027 31.3861 22.267C31.3932 22.2384 31.3968 22.2063 31.404 22.1741C31.4111 22.1348 31.4182 22.0991 31.4254 22.0598C31.4325 22.0241 31.4361 21.992 31.4432 21.9563C31.4504 21.9241 31.454 21.8884 31.4611 21.8563C31.4647 21.8277 31.4718 21.7991 31.4754 21.7705C31.4825 21.7312 31.4897 21.6884 31.4932 21.6491C31.4968 21.617 31.5004 21.5848 31.504 21.5563C31.579 21.0313 31.6182 20.4991 31.6182 19.9527H31.6147V19.9563ZM31.0647 20.1062C31.0647 20.142 31.0647 20.1741 31.0647 20.2098C31.0647 20.2598 31.0647 20.3098 31.0611 20.3563C31.0611 20.3955 31.0611 20.4313 31.0611 20.4705C31.0611 20.5098 31.0575 20.5455 31.054 20.5848C31.054 20.6205 31.0468 20.6562 31.0468 20.692C31.0468 20.7312 31.0397 20.7705 31.0361 20.8098C31.0361 20.842 31.0325 20.8777 31.029 20.9098C31.029 20.9491 31.0254 20.9884 31.0218 21.0277C31.0218 21.0598 31.0147 21.092 31.0111 21.1205C31.0075 21.1562 31.0004 21.192 30.9968 21.2277C30.9932 21.2598 30.9897 21.2955 30.9825 21.3277C30.979 21.3598 30.9754 21.3955 30.9682 21.4277C30.9647 21.4563 30.9611 21.4884 30.9575 21.517C30.9504 21.5563 30.9468 21.5955 30.9397 21.6348C30.9361 21.6598 30.929 21.6884 30.9254 21.7134C30.9218 21.742 30.9147 21.7741 30.9111 21.8027C30.904 21.8348 30.9004 21.867 30.8932 21.8991C30.8897 21.9277 30.8825 21.9562 30.879 21.9848C30.8718 22.017 30.8682 22.0491 30.8611 22.0777C30.854 22.1063 30.8504 22.1384 30.8432 22.167C30.8361 22.1955 30.829 22.2241 30.8254 22.2491C30.8182 22.2777 30.8111 22.3063 30.8075 22.3348C30.8004 22.367 30.7932 22.3955 30.7861 22.4277C30.779 22.4527 30.7754 22.4777 30.7682 22.4991C30.7611 22.5277 30.7575 22.5527 30.7504 22.5813C30.7432 22.6098 30.7361 22.6384 30.729 22.6705C30.7218 22.6955 30.7147 22.7205 30.7075 22.7455C30.7004 22.767 30.6932 22.7884 30.6897 22.8098C30.6825 22.8348 30.6754 22.8598 30.6682 22.8813C30.6611 22.9062 30.654 22.9348 30.6468 22.9598C30.6397 22.9884 30.6325 23.017 30.6218 23.042C30.6182 23.0562 30.6147 23.0705 30.6075 23.0884C30.604 23.1027 30.6004 23.1205 30.5932 23.1348C30.5897 23.1527 30.5825 23.167 30.579 23.1848C30.5754 23.1991 30.5682 23.2134 30.5647 23.2277C30.5611 23.242 30.554 23.2527 30.5504 23.267C30.5468 23.2813 30.5397 23.292 30.5361 23.3063C30.5325 23.3241 30.5254 23.3384 30.5182 23.3563C30.5147 23.3705 30.5075 23.3848 30.504 23.3955C30.5004 23.4098 30.4932 23.4241 30.4897 23.4384C30.4825 23.4562 30.479 23.4705 30.4718 23.4884C30.4682 23.5027 30.4647 23.5134 30.4575 23.5277C30.454 23.542 30.4468 23.5562 30.4432 23.567C30.4361 23.5848 30.4325 23.5991 30.4254 23.617C30.4182 23.6312 30.4147 23.6491 30.4075 23.667C30.404 23.6812 30.4004 23.692 30.3932 23.7062C30.3897 23.7205 30.3825 23.7312 30.379 23.7455C30.3718 23.7598 30.3682 23.7741 30.3611 23.7884C30.3575 23.7991 30.3504 23.8134 30.3468 23.8241C30.3432 23.8348 30.3361 23.8491 30.3325 23.8598C30.329 23.8741 30.3218 23.8848 30.3182 23.8991C30.3111 23.9134 30.3075 23.9277 30.3004 23.942C30.2968 23.9563 30.2897 23.967 30.2861 23.9813C30.2825 23.992 30.2754 24.0063 30.2718 24.017C30.2682 24.0277 30.2611 24.042 30.2575 24.0527C30.2504 24.067 30.2468 24.0813 30.2397 24.0955C30.2361 24.1063 30.229 24.1205 30.2254 24.1313C30.2218 24.1455 30.2147 24.1563 30.2111 24.1705C30.204 24.1848 30.1968 24.2027 30.1897 24.217C30.1861 24.2277 30.179 24.242 30.1718 24.2527C30.1682 24.2634 30.1611 24.2777 30.154 24.2884C30.1504 24.2991 30.1432 24.3098 30.1397 24.3241C29.7361 25.242 29.2075 26.0955 28.579 26.8598C28.579 26.8598 28.579 26.8598 28.5754 26.8634C28.5754 26.8634 28.5718 26.8705 28.5682 26.8705C28.5682 26.8705 28.5647 26.8741 28.5611 26.8777C28.5611 26.8777 28.5575 26.8813 28.554 26.8848C28.554 26.8848 28.5504 26.8884 28.5468 26.892C28.5468 26.892 28.5432 26.8955 28.5397 26.8991C28.5397 26.8991 28.5361 26.9027 28.5325 26.9062C28.5325 26.9062 28.529 26.9098 28.5254 26.9134C28.5254 26.9134 28.5218 26.917 28.5182 26.9205C28.5182 26.9205 28.5147 26.9277 28.5111 26.9277C28.5111 26.9277 28.5111 26.9312 28.5075 26.9348C28.5075 26.9348 28.504 26.9384 28.5004 26.942C28.5004 26.942 28.5004 26.942 28.4968 26.9455C28.4968 26.9455 28.4932 26.9491 28.4897 26.9527C28.4897 26.9527 28.4897 26.9562 28.4861 26.9598C28.4861 26.9598 28.4825 26.967 28.479 26.967C28.479 26.967 28.4754 26.9705 28.4718 26.9741C28.4718 26.9741 28.4682 26.9777 28.4647 26.9812C28.4647 26.9812 28.4611 26.9848 28.4575 26.9884C28.4575 26.9884 28.4575 26.9884 28.454 26.992C28.454 26.992 28.4504 26.9955 28.4468 26.9991C28.4468 26.9991 28.4468 27.0027 28.4432 27.0063C28.4432 27.0063 28.4432 27.0063 28.4397 27.0098C28.4397 27.0098 28.4397 27.0098 28.4361 27.0134C28.4361 27.0134 28.4361 27.0134 28.4325 27.017C28.4325 27.017 28.4325 27.0205 28.429 27.0241C28.429 27.0241 28.429 27.0241 28.4254 27.0277C28.4254 27.0277 28.4218 27.0312 28.4182 27.0348C28.4147 27.042 28.4075 27.0455 28.404 27.0527L28.3897 27.067C28.3897 27.067 28.379 27.0777 28.3754 27.0813C28.3682 27.0884 28.3647 27.0955 28.3575 27.0991C28.354 27.1027 28.3468 27.1098 28.3432 27.1134C28.3397 27.117 28.3361 27.1241 28.3325 27.1277C28.329 27.1348 28.3218 27.1384 28.3182 27.1455C28.3147 27.1527 28.3075 27.1562 28.304 27.1634C28.3004 27.1705 28.2932 27.1741 28.2897 27.1813C28.2861 27.1884 28.279 27.192 28.2754 27.1991C28.2718 27.2027 28.2647 27.2098 28.2611 27.2134C28.2575 27.217 28.254 27.2241 28.2468 27.2277C28.2397 27.2348 28.2361 27.242 28.229 27.2491C28.2254 27.2527 28.2182 27.2598 28.2147 27.2634C28.2111 27.267 28.204 27.2741 28.2004 27.2777C28.1932 27.2848 28.1897 27.2884 28.1825 27.2955C28.179 27.3027 28.1718 27.3062 28.1682 27.3134C28.1647 27.317 28.1575 27.3241 28.154 27.3277C28.1504 27.3312 28.1432 27.3384 28.1397 27.342C28.1325 27.3491 28.1254 27.3563 28.1218 27.3634C28.1218 27.3634 28.1147 27.3705 28.1111 27.3741C28.1182 27.3777 28.1254 27.3813 28.1325 27.3848C28.1254 27.3848 28.1182 27.3777 28.1075 27.3777C28.1004 27.3848 28.0968 27.3884 28.0897 27.3955C28.0825 27.4027 28.079 27.4063 28.0718 27.4134C28.0682 27.417 28.0611 27.4241 28.0575 27.4277C28.0504 27.4348 28.0468 27.4384 28.0397 27.4455L28.0218 27.4634C28.0218 27.4634 28.0111 27.4741 28.004 27.4812C28.0004 27.4848 27.9932 27.492 27.9897 27.4955C27.9825 27.5027 27.979 27.5063 27.9718 27.5134C27.9647 27.5205 27.9611 27.5241 27.954 27.5312C27.5968 27.8955 27.2147 28.2348 26.8111 28.5455C26.7968 28.5563 26.7861 28.567 26.7718 28.5777C26.5754 28.7277 26.3718 28.8705 26.1647 29.0098C26.154 29.017 26.1432 29.0241 26.1325 29.0313C25.9432 29.1563 25.7468 29.2741 25.5468 29.3884C25.5182 29.4063 25.4897 29.4205 25.4575 29.4384C25.2432 29.5563 25.029 29.6705 24.804 29.7741C24.7968 29.7741 24.7897 29.7813 24.7825 29.7848C24.5682 29.8848 24.3504 29.9777 24.129 30.0634C24.1004 30.0741 24.0718 30.0884 24.0397 30.0991C23.5682 30.2777 23.0825 30.4277 22.5825 30.542C22.5682 30.542 22.554 30.5491 22.5397 30.5527C21.7611 30.7277 20.954 30.8241 20.1254 30.8241H20.1218C18.729 30.8241 17.3968 30.5634 16.1718 30.0884C15.6861 29.9027 15.2182 29.6812 14.7682 29.4312C14.7575 29.4241 14.7468 29.417 14.7325 29.4098C14.5182 29.2884 14.3075 29.1598 14.1004 29.0241C14.0968 29.0241 14.0897 29.017 14.0861 29.0134C13.879 28.8777 13.679 28.7348 13.4825 28.5848C13.4611 28.567 13.4397 28.5527 13.4182 28.5348C13.2432 28.3991 13.0754 28.2598 12.9111 28.117C12.8861 28.0955 12.8647 28.0777 12.8397 28.0562C12.6647 27.8991 12.4932 27.7384 12.329 27.5705C12.3218 27.5634 12.3147 27.5562 12.304 27.5491C12.2968 27.542 12.2932 27.5384 12.2861 27.5312C12.279 27.5241 12.2754 27.5205 12.2718 27.5134C12.2682 27.5098 12.2611 27.5027 12.2575 27.4955C12.254 27.492 12.2504 27.4884 12.2468 27.4848C12.2468 27.4848 12.2432 27.4813 12.2397 27.4777C12.2325 27.4705 12.229 27.467 12.2218 27.4598C12.2147 27.4527 12.2111 27.4491 12.204 27.442C12.1968 27.4348 12.1932 27.4313 12.1861 27.4241C12.179 27.417 12.1754 27.4134 12.1682 27.4062C12.1647 27.4027 12.1611 27.3991 12.154 27.392C12.1468 27.3848 12.1432 27.3813 12.1361 27.3741C12.129 27.367 12.1254 27.3634 12.1182 27.3563C12.1147 27.3527 12.1075 27.3455 12.104 27.342C12.0968 27.3348 12.0932 27.3313 12.0861 27.3241C12.079 27.317 12.0754 27.3134 12.0682 27.3062C12.0647 27.3027 12.0575 27.2955 12.054 27.292C12.0468 27.2848 12.0432 27.2813 12.0361 27.2741C12.0325 27.267 12.0254 27.2634 12.0182 27.2563C12.0147 27.2527 12.0075 27.2455 12.004 27.242C12.0004 27.2384 11.9932 27.2313 11.9897 27.2277C11.9861 27.2205 11.979 27.217 11.9754 27.2098C11.9718 27.2063 11.9647 27.1991 11.9611 27.1955C11.9575 27.1884 11.9504 27.1848 11.9468 27.1777C11.9432 27.1705 11.9361 27.167 11.9325 27.1598C11.929 27.1562 11.9254 27.1491 11.9182 27.1455C11.9147 27.1384 11.9075 27.1348 11.904 27.1277C11.9004 27.1205 11.8932 27.117 11.8897 27.1098C11.8861 27.1062 11.8825 27.0991 11.879 27.0955C11.8754 27.0884 11.8682 27.0848 11.8647 27.0777C11.8575 27.0705 11.854 27.0634 11.8468 27.0563C11.8432 27.0527 11.8397 27.0455 11.8361 27.042C11.8325 27.0348 11.8254 27.0312 11.8218 27.0241C11.8218 27.0241 11.8182 27.0205 11.8147 27.017C11.8147 27.017 11.8147 27.017 11.8111 27.0134C11.8111 27.0134 11.8075 27.0098 11.8075 27.0063C11.8075 27.0063 11.8075 27.0063 11.804 27.0027C11.804 27.0027 11.8004 26.9991 11.7968 26.9955C11.7968 26.9955 11.7968 26.9955 11.7932 26.992C11.7932 26.992 11.7932 26.992 11.7897 26.9884C11.7897 26.9884 11.7861 26.9848 11.7825 26.9812C11.7825 26.9812 11.7825 26.9813 11.779 26.9777C11.779 26.9777 11.779 26.9741 11.7718 26.9705C11.7718 26.9705 11.7718 26.9705 11.7682 26.967C11.7682 26.967 11.7682 26.9634 11.7647 26.9598C11.7647 26.9598 11.7611 26.9563 11.7575 26.9527C11.7575 26.9527 11.7575 26.9491 11.754 26.9455C11.754 26.9455 11.754 26.942 11.7504 26.9384C11.7504 26.9384 11.7504 26.9348 11.7468 26.9312C11.7468 26.9312 11.7468 26.9313 11.7432 26.9277C11.7432 26.9277 11.7397 26.9241 11.7361 26.9205C11.7361 26.9205 11.7325 26.917 11.729 26.9134C11.729 26.9134 11.7254 26.9062 11.7218 26.9062C11.7218 26.9062 11.7218 26.9063 11.7182 26.9027C11.7182 26.9027 11.7147 26.8955 11.7111 26.8955C11.7111 26.8955 11.7111 26.8955 11.7075 26.892C11.579 26.7384 11.4575 26.5812 11.3397 26.4241C11.3111 26.3848 11.2861 26.3455 11.2575 26.3098C11.1504 26.1598 11.0432 26.0063 10.9432 25.8491C10.9075 25.7955 10.8754 25.742 10.8397 25.692C10.7218 25.5063 10.6111 25.3134 10.504 25.1205C10.479 25.0741 10.4575 25.0277 10.4325 24.9812C10.3504 24.8241 10.2718 24.6598 10.1968 24.4991C10.179 24.4598 10.1575 24.4241 10.1432 24.3884C10.1432 24.3884 10.1432 24.3884 10.1468 24.3884C10.1397 24.3705 10.129 24.3491 10.1218 24.3312C10.1182 24.3205 10.1111 24.3063 10.104 24.2955C10.0968 24.2812 10.0897 24.267 10.0861 24.2527C10.0825 24.242 10.0754 24.2312 10.0718 24.217C10.0682 24.2063 10.0611 24.192 10.0575 24.1813C10.0504 24.167 10.0468 24.1527 10.0397 24.1348C10.0361 24.1241 10.029 24.1098 10.0254 24.0991C10.0218 24.0884 10.0147 24.0741 10.0111 24.0634C10.004 24.0491 10.0004 24.0348 9.99325 24.017C9.98968 24.0063 9.98253 23.992 9.97896 23.9813C9.97539 23.9705 9.96825 23.9562 9.96468 23.9455C9.9611 23.9312 9.95396 23.9205 9.95039 23.9063C9.94325 23.892 9.93968 23.8777 9.93253 23.8634C9.92896 23.8527 9.92182 23.8384 9.91825 23.8277C9.91468 23.8134 9.90753 23.8027 9.90396 23.7884C9.89682 23.7741 9.89325 23.7598 9.88611 23.7455C9.88253 23.7312 9.87539 23.7205 9.87182 23.7062C9.86825 23.692 9.86111 23.6777 9.85753 23.6634C9.85039 23.6491 9.84682 23.6312 9.84325 23.617C9.83968 23.6027 9.83253 23.5884 9.82896 23.5777C9.82539 23.5634 9.81825 23.5491 9.81468 23.5384C9.8111 23.5241 9.80396 23.5134 9.80039 23.4991C9.79325 23.4848 9.78968 23.467 9.78253 23.4527C9.77896 23.4384 9.77182 23.4241 9.76825 23.4098C9.76468 23.3955 9.75753 23.3848 9.75396 23.3705C9.74682 23.3527 9.74325 23.3384 9.73611 23.3205C9.73253 23.3062 9.72539 23.292 9.72182 23.2777C9.71825 23.2634 9.71111 23.2527 9.70753 23.2384C9.70396 23.2205 9.69682 23.2063 9.68968 23.1884C9.6861 23.1741 9.68253 23.1598 9.67539 23.142C9.67182 23.1277 9.66825 23.1134 9.6611 23.0991C9.65396 23.0813 9.65039 23.0634 9.64682 23.0455C9.63968 23.0241 9.63253 22.9991 9.62896 22.9777C9.62182 22.9562 9.61468 22.9313 9.60753 22.9098C9.60039 22.8848 9.59325 22.8598 9.58611 22.8348C9.57896 22.8134 9.57182 22.792 9.56825 22.7705C9.5611 22.7455 9.55396 22.7205 9.54682 22.6991C9.53968 22.6741 9.53611 22.6527 9.52896 22.6277C9.52182 22.5991 9.51825 22.5741 9.5111 22.5455C9.50396 22.5205 9.50039 22.4955 9.49325 22.4705C9.48611 22.442 9.47896 22.417 9.47539 22.3884C9.46825 22.3634 9.46468 22.342 9.45753 22.317C9.45039 22.292 9.44682 22.267 9.43968 22.242C9.43253 22.2134 9.42539 22.1884 9.42182 22.1598C9.41468 22.1313 9.41111 22.1063 9.40753 22.0777C9.40039 22.0455 9.39682 22.017 9.38968 21.9848C9.3861 21.9562 9.37896 21.9312 9.37539 21.9027C9.37182 21.8741 9.36468 21.842 9.3611 21.8134C9.35753 21.7884 9.35039 21.7598 9.34682 21.7348C9.34325 21.7098 9.3361 21.6813 9.33253 21.6562C9.32896 21.6241 9.32182 21.592 9.31825 21.5598C9.31468 21.5312 9.3111 21.4991 9.30753 21.4705C9.30396 21.4384 9.30039 21.4062 9.29325 21.3741C9.28968 21.3455 9.28611 21.3134 9.28253 21.2848C9.27896 21.2491 9.27182 21.217 9.26825 21.1848C9.26825 21.1527 9.26111 21.1241 9.25753 21.092C9.25753 21.0562 9.25396 21.0241 9.25039 20.9884C9.25039 20.9527 9.24682 20.917 9.24325 20.8812C9.24325 20.8491 9.23968 20.817 9.23611 20.7848C9.23611 20.7491 9.22896 20.7134 9.22896 20.6777C9.22896 20.6455 9.22182 20.6098 9.22182 20.5777C9.22182 20.5384 9.22182 20.5027 9.21825 20.4634C9.21825 20.4277 9.21825 20.3884 9.21825 20.3491C9.21468 20.2241 9.20753 20.0955 9.20753 19.9705C9.20753 13.9598 14.1004 9.08125 20.1397 9.08125C26.179 9.08125 31.0754 13.9562 31.0754 19.9705C31.0754 20.0205 31.0754 20.0705 31.0718 20.1205L31.0647 20.1062Z" fill="white"/>
<path d="M20.1315 22.7045H20.135C23.8458 22.7045 27.285 23.3259 30.1243 24.383C29.7208 25.2795 29.1993 26.1116 28.5815 26.858C28.5815 26.858 28.585 26.858 28.5886 26.8616C29.2208 26.0973 29.7458 25.2438 30.1493 24.3259C29.1815 21.1509 25.0565 18.4688 20.1315 18.4688C15.2065 18.4688 11.0886 21.1509 10.1172 24.3223C10.1243 24.3402 10.135 24.3616 10.1422 24.3795C12.9886 23.3223 16.4243 22.7009 20.1315 22.7009V22.7045Z" fill="white"/>
<path d="M30.1244 24.3817C27.2851 23.3246 23.8458 22.7031 20.1351 22.7031H20.1315C16.4244 22.7031 12.9887 23.3246 10.1422 24.3817C10.1422 24.3817 10.1422 24.3817 10.1387 24.3817C10.1565 24.421 10.178 24.4567 10.1922 24.4924C10.2672 24.6567 10.3458 24.8174 10.428 24.9746C10.453 25.021 10.4744 25.0674 10.4994 25.1138C10.6065 25.3067 10.7172 25.4996 10.8351 25.6853C10.8672 25.7388 10.903 25.7924 10.9387 25.8424C11.0387 25.9996 11.1458 26.1531 11.253 26.3031C11.2815 26.3424 11.3065 26.3817 11.3351 26.4174C11.453 26.5781 11.5744 26.7353 11.703 26.8853C11.703 26.8853 11.703 26.8853 11.7065 26.8888C11.7065 26.8888 11.7101 26.896 11.7137 26.896C11.7137 26.896 11.7137 26.896 11.7172 26.8996C11.7172 26.8996 11.7208 26.9067 11.7244 26.9067C11.7244 26.9067 11.728 26.9103 11.7315 26.9138C11.7315 26.9138 11.7351 26.9174 11.7387 26.921C11.7387 26.921 11.7387 26.921 11.7422 26.9246C11.7422 26.9246 11.7422 26.9281 11.7458 26.9317C11.7458 26.9317 11.7458 26.9353 11.7494 26.9388C11.7494 26.9388 11.7494 26.9424 11.753 26.946C11.753 26.946 11.7565 26.9496 11.7601 26.9531C11.7601 26.9531 11.7601 26.9567 11.7637 26.9603C11.7637 26.9603 11.7637 26.9603 11.7672 26.9638C11.7672 26.9638 11.7672 26.9674 11.7744 26.971C11.7744 26.971 11.7744 26.971 11.778 26.9746C11.778 26.9746 11.7815 26.9781 11.7851 26.9817C11.7851 26.9817 11.7851 26.9817 11.7887 26.9853C11.7887 26.9853 11.7887 26.9853 11.7922 26.9888C11.7922 26.9888 11.7958 26.9924 11.7994 26.996C11.7994 26.996 11.7994 26.996 11.803 26.9996C11.803 26.9996 11.8065 27.0031 11.8065 27.0067C11.8065 27.0067 11.8065 27.0067 11.8101 27.0103C11.8101 27.0103 11.8137 27.0138 11.8172 27.0174C11.8208 27.0246 11.828 27.0281 11.8315 27.0353C11.8351 27.0388 11.8387 27.046 11.8422 27.0496C11.8494 27.0567 11.853 27.0638 11.8601 27.071C11.8637 27.0781 11.8708 27.0817 11.8744 27.0888C11.878 27.0924 11.8815 27.0996 11.8851 27.1031C11.8887 27.1103 11.8958 27.1138 11.8994 27.121C11.903 27.1281 11.9101 27.1317 11.9137 27.1388C11.9172 27.1424 11.9208 27.1496 11.928 27.1531C11.9315 27.1603 11.9387 27.1638 11.9422 27.171C11.9458 27.1781 11.953 27.1817 11.9565 27.1888C11.9601 27.1924 11.9672 27.1996 11.9708 27.2031C11.9744 27.2103 11.9815 27.2138 11.9851 27.221C11.9887 27.2246 11.9958 27.2317 11.9994 27.2353C12.003 27.2388 12.0101 27.246 12.0137 27.2496C12.0172 27.2567 12.0244 27.2603 12.0315 27.2674C12.0387 27.2746 12.0422 27.2781 12.0494 27.2853C12.053 27.2888 12.0601 27.296 12.0637 27.2996C12.0708 27.3067 12.0744 27.3103 12.0815 27.3174C12.0887 27.3246 12.0922 27.3281 12.0994 27.3353C12.103 27.3388 12.1101 27.346 12.1137 27.3496C12.1208 27.3567 12.1244 27.3603 12.1315 27.3674C12.1387 27.3746 12.1422 27.3781 12.1494 27.3853C12.153 27.3888 12.1565 27.3924 12.1637 27.3996C12.1708 27.4067 12.1744 27.4103 12.1815 27.4174C12.1887 27.4246 12.1922 27.4281 12.1994 27.4353C12.2065 27.4424 12.2101 27.446 12.2172 27.4531C12.2244 27.4603 12.228 27.4638 12.2351 27.471C12.2351 27.471 12.2387 27.4746 12.2422 27.4781C12.2458 27.4817 12.2494 27.4853 12.253 27.4888C12.2565 27.4924 12.2637 27.4996 12.2672 27.5067C12.2744 27.5138 12.278 27.5174 12.2815 27.5246C12.2887 27.5317 12.2922 27.5353 12.2994 27.5424C12.3065 27.5496 12.3137 27.5567 12.3244 27.5638C12.4887 27.7317 12.6601 27.8924 12.8351 28.0496C12.8565 28.071 12.8815 28.0888 12.9065 28.1103C13.0708 28.2531 13.2422 28.396 13.4137 28.5281C13.4351 28.546 13.4565 28.5603 13.478 28.5781C13.6744 28.7281 13.8744 28.871 14.0815 29.0067C14.0851 29.0067 14.0922 29.0138 14.0958 29.0174C14.303 29.1531 14.5137 29.2817 14.728 29.4031C14.7387 29.4103 14.7494 29.4174 14.7637 29.4246C15.2137 29.6746 15.6815 29.896 16.1672 30.0817C17.3922 30.5531 18.7244 30.8174 20.1172 30.8174C20.9458 30.8174 21.7565 30.721 22.5315 30.546C22.5458 30.546 22.5601 30.5388 22.5744 30.5353C23.0744 30.421 23.5601 30.2746 24.0315 30.0924C24.0601 30.0817 24.0887 30.071 24.1208 30.0567C24.3422 29.971 24.5601 29.8781 24.7744 29.7781C24.7815 29.7781 24.7887 29.771 24.7958 29.7674C25.0172 29.6638 25.2351 29.5496 25.4494 29.4317C25.478 29.4138 25.5065 29.3996 25.5387 29.3817C25.7387 29.2674 25.9315 29.1496 26.1244 29.0246C26.1351 29.0174 26.1458 29.0103 26.1565 29.0031C26.3637 28.8674 26.5672 28.721 26.7637 28.571C26.778 28.5603 26.7922 28.5496 26.803 28.5388C27.2065 28.2281 27.5887 27.8888 27.9458 27.5246C27.953 27.5174 27.9565 27.5138 27.9637 27.5067C27.9708 27.4996 27.9744 27.496 27.9815 27.4888C27.9851 27.4853 27.9922 27.4781 27.9958 27.4746C28.003 27.4674 28.0065 27.4638 28.0137 27.4567L28.0315 27.4388C28.0315 27.4388 28.0422 27.4281 28.0494 27.421C28.053 27.4174 28.0601 27.4103 28.0637 27.4067C28.0708 27.3996 28.0744 27.396 28.0815 27.3888C28.0887 27.3817 28.0922 27.3781 28.0994 27.371C28.1065 27.371 28.1137 27.3781 28.1244 27.3781C28.1172 27.3746 28.1101 27.371 28.103 27.3674C28.103 27.3674 28.1101 27.3603 28.1137 27.3567C28.1208 27.3496 28.128 27.3424 28.1315 27.3353C28.1351 27.3317 28.1422 27.3246 28.1458 27.321C28.1494 27.3174 28.1565 27.3103 28.1601 27.3067C28.1637 27.2996 28.1708 27.296 28.1744 27.2888C28.1815 27.2817 28.1851 27.2781 28.1922 27.271C28.1958 27.2674 28.203 27.2603 28.2065 27.2567C28.2101 27.2531 28.2172 27.246 28.2208 27.2424C28.228 27.2353 28.2315 27.2281 28.2387 27.221C28.2422 27.2174 28.2458 27.2103 28.253 27.2067C28.2565 27.2031 28.2637 27.196 28.2672 27.1924C28.2708 27.1853 28.278 27.1817 28.2815 27.1746C28.2851 27.1674 28.2922 27.1638 28.2958 27.1567C28.2994 27.1496 28.3065 27.146 28.3101 27.1388C28.3137 27.1317 28.3208 27.1281 28.3244 27.121C28.328 27.1174 28.3315 27.1103 28.3351 27.1067C28.3387 27.1031 28.3458 27.096 28.3494 27.0924C28.3565 27.0853 28.3601 27.0781 28.3672 27.0746C28.3708 27.071 28.378 27.0638 28.3815 27.0603L28.3958 27.046C28.3958 27.046 28.4065 27.0353 28.4101 27.0281C28.4101 27.0281 28.4137 27.0246 28.4172 27.021C28.4172 27.021 28.4172 27.021 28.4208 27.0174C28.4208 27.0174 28.4208 27.0138 28.4244 27.0103C28.4244 27.0103 28.4244 27.0103 28.428 27.0067C28.428 27.0067 28.428 27.0067 28.4315 27.0031C28.4315 27.0031 28.4315 27.0031 28.4351 26.9996C28.4351 26.9996 28.4351 26.996 28.4387 26.9924C28.4387 26.9924 28.4422 26.9888 28.4458 26.9853C28.4458 26.9853 28.4458 26.9853 28.4494 26.9817C28.4494 26.9817 28.453 26.9781 28.4565 26.9746C28.4565 26.9746 28.4601 26.971 28.4637 26.9674C28.4637 26.9674 28.4672 26.9638 28.4708 26.9603C28.4708 26.9603 28.4744 26.9531 28.478 26.9531C28.478 26.9531 28.478 26.9496 28.4815 26.946C28.4815 26.946 28.4851 26.9424 28.4887 26.9388C28.4887 26.9388 28.4887 26.9388 28.4922 26.9353C28.4922 26.9353 28.4958 26.9317 28.4994 26.9281C28.4994 26.9281 28.4994 26.9246 28.503 26.921C28.503 26.921 28.5065 26.9138 28.5101 26.9138C28.5101 26.9138 28.5137 26.9103 28.5172 26.9067C28.5172 26.9067 28.5208 26.9031 28.5244 26.8996C28.5244 26.8996 28.528 26.896 28.5315 26.8924C28.5315 26.8924 28.5351 26.8888 28.5387 26.8853C28.5387 26.8853 28.5422 26.8817 28.5458 26.8781C28.5458 26.8781 28.5494 26.8746 28.553 26.871C28.553 26.871 28.5565 26.8674 28.5601 26.8638C28.5601 26.8638 28.5637 26.8567 28.5672 26.8567C28.5672 26.8567 28.5672 26.8567 28.5708 26.8531C28.5708 26.8531 28.5672 26.8531 28.5637 26.8496C29.1815 26.0996 29.703 25.271 30.1065 24.3746L30.1244 24.3817Z" fill="#0367B3"/>
</g>
<defs>
<clipPath id="clip0_591_6204">
<rect width="40" height="40" fill="white"/>
</clipPath>
</defs>
</svg>
