<svg width="40" height="40" viewBox="0 0 40 40" fill="none" xmlns="http://www.w3.org/2000/svg">
<g clip-path="url(#clip0_591_6025)">
<path d="M0 20.0031C0 21.1804 0 21.3112 0.0280505 22.311C0.102852 24.5254 0.336606 27.0669 1.22487 29.7485C1.85133 31.6453 3.02945 33.6915 4.20757 34.9809C5.70361 36.6253 7.77 37.971 10.0047 38.7371C12.2861 39.5221 14.7546 39.9049 19.5512 39.9985H20.4395C25.2454 39.8956 27.7045 39.5221 29.986 38.7371C32.2207 37.971 34.2777 36.6253 35.7736 34.9809C36.9518 33.6822 38.13 31.6453 38.7564 29.7485C39.6446 27.0669 39.8879 24.5161 39.9532 22.311C39.9814 21.3206 39.9814 21.1804 39.9814 20.0031C39.9814 18.8258 39.9814 18.6857 39.9532 17.6953C39.8786 15.4808 39.6446 12.9394 38.7564 10.2578C38.13 8.36098 36.9518 6.31473 35.7736 5.02534C34.2777 3.38085 32.2113 2.03538 29.986 1.2692C27.7045 0.484336 25.2361 0.101249 20.4395 0.0078125H19.5512C14.7452 0.110592 12.2861 0.484336 10.0047 1.2692C7.77 2.03538 5.71296 3.38085 4.20757 5.02534C3.02945 6.32409 1.85133 8.36098 1.22487 10.2578C0.345956 12.9394 0.102852 15.4808 0.0280505 17.6953C0 18.6857 0 18.8258 0 20.0031Z" fill="#E78001"/>
<path d="M13.6204 14.8125C13.5722 15.1136 12.9367 19.3663 12.8789 19.7709H14.304C14.3425 19.4698 14.9877 15.2171 15.0455 14.8125H13.6204Z" fill="white"/>
<path d="M25.2824 14.8125C25.2343 15.1136 24.5988 19.3663 24.541 19.7709H27.8823C27.9112 19.5545 27.9979 18.9806 28.046 18.6983H26.0239L26.1587 17.7856H27.9979C28.0364 17.5693 28.1038 17.0612 28.1519 16.7883H26.3128L26.4476 15.8851H28.4216C28.4504 15.6687 28.5371 15.0948 28.5853 14.8219H25.2921L25.2824 14.8125Z" fill="white"/>
<path d="M9.40394 17.6462C9.40394 17.6462 10.598 15.0305 10.6943 14.8047H12.4853C12.4853 15.1528 12.2446 19.4056 12.2446 19.7631H10.9542L11.1661 16.2913C11.1661 16.2913 9.71209 19.5373 9.6158 19.7631H8.59509L8.13291 16.2913C8.10402 16.4512 7.61294 18.7658 7.35294 19.7631H6.07227C6.20709 19.3209 7.18923 15.0682 7.26627 14.8047H8.98991L9.39434 17.6462H9.40394Z" fill="white"/>
<path d="M22.7776 18.7658C22.7776 18.7658 22.8739 19.5749 22.9028 19.7631H24.2701C24.1931 19.3585 23.4516 15.0964 23.3939 14.8047H21.6606C21.5643 15.0117 19.5903 19.2738 19.3496 19.7631H20.7362C20.8133 19.5938 21.1599 18.7658 21.1599 18.7658H22.768H22.7776ZM21.5547 17.7402L22.3731 15.8961L22.6428 17.7402H21.5547Z" fill="white"/>
<path d="M17.0299 15.744H17.3477C17.5691 15.744 17.8098 15.7628 17.9543 15.9321C18.0602 16.0544 18.0987 16.2144 18.0698 16.4308C18.0698 16.4308 18.0217 16.8071 17.7713 16.9295C17.7713 16.9295 17.5884 17.0424 17.2899 17.0518H16.6447L17.8676 19.7709H19.2542L18.2046 17.6821C18.8401 17.5693 19.3313 17.3905 19.4564 16.4496C19.4757 16.3273 19.4853 16.2144 19.4853 16.1109C19.4853 15.7628 19.389 15.4805 19.2061 15.2735C18.8594 14.8972 18.272 14.8125 17.8387 14.8125H15.884C15.8359 15.1136 15.2003 19.3663 15.1426 19.7615H16.4425C16.481 19.4886 17.0395 15.7345 17.0395 15.7345" fill="white"/>
<path d="M33.9277 14.2812C33.0996 17.5743 30.1146 19.3714 28.3524 20.3311L28.2754 20.237C28.9976 19.6819 31.4626 17.9318 32.2522 15.0434L33.9181 14.2812H33.9277Z" fill="white"/>
<path d="M21.9688 22.589C21.9688 22.589 22.0167 22.5797 22.0455 22.5703C22.0167 22.5703 21.9975 22.5797 21.9688 22.589Z" fill="white"/>
<path d="M19.6957 23.0078C19.6957 23.0078 19.6382 23.0078 19.6094 23.0265C19.6382 23.0265 19.6669 23.0172 19.6957 23.0078Z" fill="white"/>
<path d="M22.5173 22.4609C22.421 22.4892 22.3151 22.508 22.2188 22.5269C22.3151 22.4986 22.421 22.4798 22.5173 22.4609Z" fill="white"/>
<path d="M24.7711 21.8516C24.6267 21.8986 24.4822 21.9363 24.3281 21.9834C24.4822 21.9363 24.6267 21.8892 24.7711 21.8516Z" fill="white"/>
<path d="M22.8742 22.3828C22.8068 22.4015 22.749 22.4108 22.6816 22.4296C22.7394 22.4108 22.8068 22.4015 22.8742 22.3828Z" fill="white"/>
<path d="M18.473 22.576L18.0975 22.3972C17.9723 22.322 17.693 22.1714 17.693 21.8986C17.693 21.7668 17.7508 21.654 17.8375 21.5787C17.953 21.4846 18.136 21.447 18.3285 21.4846C18.5693 21.5222 18.8581 21.6728 19.1663 21.9268C19.3107 21.654 19.59 21.1459 19.6959 20.9577C19.3396 20.6754 19.0026 20.5249 18.4826 20.4402C17.8471 20.3555 17.2405 20.4778 16.8168 20.7883C16.4508 21.0518 16.2294 21.4375 16.1716 21.908C16.162 21.9832 16.1523 22.0679 16.1523 22.1432C16.1523 22.3972 16.2101 22.6231 16.3257 22.8112C17.096 22.7924 17.9048 22.7548 18.7233 22.6889C18.6463 22.6513 18.5693 22.6042 18.4826 22.5666" fill="white"/>
<path d="M24.2415 20.6172C24.2126 20.8242 24.1067 21.4734 24.0586 21.7933C25.06 21.5204 26.2829 21.1347 27.4095 20.6172H24.2415Z" fill="white"/>
<path d="M24.7709 21.8513C24.6264 21.8984 24.482 21.936 24.3279 21.9831C24.299 21.9924 24.2702 22.0019 24.2316 22.0113C24.1739 22.0301 24.1161 22.0489 24.0487 22.0677C24.0198 22.0677 23.9813 22.0866 23.9524 22.0959C23.7502 22.1524 23.5383 22.2088 23.3169 22.2653C23.2783 22.2747 23.2398 22.2841 23.1917 22.2935C23.1339 22.3123 23.0665 22.3218 23.0087 22.3406C22.9606 22.35 22.9124 22.3594 22.8739 22.3782C22.8065 22.3876 22.7487 22.4064 22.6813 22.4253C22.6235 22.4347 22.5658 22.4535 22.508 22.4629C22.4117 22.4911 22.3154 22.5099 22.2095 22.5288C22.1517 22.5382 22.094 22.557 22.0362 22.5664C22.0073 22.5664 21.988 22.5758 21.9592 22.5852C21.3718 22.7169 20.7555 22.8298 20.0911 22.9427C20.0815 22.9427 20.0622 22.9427 20.0526 22.9427C19.937 22.9616 19.8118 22.9804 19.6867 22.9992H19.6C19.4748 23.0274 19.34 23.0557 19.2148 23.0651C19.2052 23.0651 19.1956 23.0651 19.1859 23.0651C18.483 23.1686 17.7319 23.2532 16.952 23.3191C16.8364 23.3285 16.7113 23.3379 16.5861 23.3473C16.5764 23.3473 16.5572 23.3473 16.5475 23.3473C16.432 23.3473 16.3068 23.3661 16.1817 23.3756C16.172 23.3756 16.1528 23.3756 16.1432 23.3756C16.018 23.3756 15.8928 23.3944 15.7676 23.3944C15.758 23.3944 15.7483 23.3944 15.7387 23.3944C15.6135 23.3944 15.4787 23.4038 15.3535 23.4132H15.3439C14.6795 23.4414 14.0055 23.4602 13.3025 23.4602H13.2448C13.0907 23.4602 12.9366 23.4602 12.7729 23.4602C12.744 23.4602 12.7055 23.4602 12.6767 23.4602C12.1085 23.4602 11.5308 23.432 10.9338 23.4038H10.9242C10.0286 23.3567 9.09458 23.2814 8.1413 23.1779L9.24865 22.1901C9.24865 22.1901 9.89383 22.3688 10.7797 22.5288C10.616 21.5691 10.4619 20.7317 10.4427 20.6094H8.70944C8.60351 20.8163 6.62954 25.0785 6.39844 25.5678H7.78504C7.86208 25.3984 8.32426 24.3352 8.32426 24.3352H9.76865C9.76865 24.3352 9.91308 25.3702 9.94197 25.5678H11.3093C11.2804 25.4078 11.1456 24.6646 10.9915 23.7895C11.9641 23.846 12.9463 23.8554 13.8514 23.8366C13.8995 23.9118 13.9188 23.9871 13.9188 24.0718C13.9188 24.1 13.9188 24.1282 13.9188 24.1659C13.8995 24.2788 13.8418 24.3729 13.7455 24.4293C13.5529 24.5516 13.2833 24.5234 13.1003 24.4952C12.6574 24.4199 12.3107 24.1 12.0219 23.8366C11.8485 24.1094 11.473 24.6928 11.3478 24.8809C11.8678 25.3326 12.4359 25.6148 13.0329 25.6901C13.6395 25.7748 14.2366 25.6431 14.6795 25.3326C15.0647 25.0597 15.3054 24.6646 15.3824 24.1753C15.4017 24.0342 15.4113 23.9024 15.4113 23.7801C16.3839 23.7425 17.2023 23.686 17.7223 23.639C17.8957 23.7613 17.9823 23.9024 17.9823 24.0624C17.9823 24.0906 17.9823 24.1188 17.9823 24.1565C17.963 24.2694 17.9053 24.3634 17.809 24.4199C17.6164 24.5422 17.3468 24.514 17.1638 24.4858C16.7209 24.4105 16.3742 24.0906 16.0854 23.8272C15.912 24.1 15.5365 24.6834 15.4113 24.8716C15.9313 25.3232 16.4994 25.6054 17.0964 25.6807C17.7031 25.7654 18.3001 25.6337 18.743 25.3232C19.1282 25.0503 19.3785 24.6551 19.4556 24.1659C19.5037 23.893 19.4941 23.6578 19.4267 23.4414C19.6482 23.4132 19.86 23.3756 20.0622 23.3473C19.9082 24.3917 19.7637 25.3608 19.7348 25.5396H23.0761C23.105 25.3232 23.1917 24.7492 23.2398 24.4669H21.2081L21.3429 23.5543H23.182C23.2109 23.3661 23.2783 22.9333 23.3169 22.6511C23.5672 22.5758 23.6924 22.5288 23.6924 22.5288C23.6924 22.5288 24.3183 22.35 25.1175 22.0677C25.002 22.8392 24.6457 25.2103 24.5975 25.549H26.0419C26.0804 25.2573 26.6004 21.8231 26.6004 21.8231H27.65C27.6789 21.6067 27.7848 20.9293 27.8233 20.6188C27.2841 20.9104 26.2538 21.3621 24.7901 21.8231" fill="white"/>
<path d="M14.8632 22.8206C14.738 22.7265 14.5936 22.6418 14.4203 22.576L14.0447 22.3972H14.0351C13.9099 22.322 13.6306 22.1714 13.6306 21.8986C13.6306 21.7668 13.6788 21.654 13.7751 21.5787C13.8906 21.4846 14.0736 21.447 14.2662 21.4846C14.5165 21.5222 14.7958 21.6728 15.1039 21.9268C15.2484 21.654 15.5276 21.1459 15.6335 20.9577C15.2773 20.6754 14.9402 20.5249 14.4203 20.4402C13.7847 20.3555 13.1781 20.4778 12.7544 20.7883C12.3885 21.0518 12.167 21.4375 12.1093 21.908C12.0996 21.9832 12.0996 22.0679 12.0996 22.1432C12.0996 22.3596 12.1381 22.5572 12.2152 22.7266C12.2441 22.7266 12.2729 22.7266 12.3018 22.7266C12.947 22.7736 13.8329 22.8112 14.8536 22.8206" fill="white"/>
<path d="M21.6027 21.6882H23.5767C23.6152 21.4718 23.6922 20.8979 23.7404 20.625H20.4568C20.4376 20.7567 20.3124 21.5941 20.168 22.5538C20.6205 22.4974 21.0731 22.4315 21.516 22.3656L21.6123 21.6976L21.6027 21.6882Z" fill="white"/>
</g>
<defs>
<clipPath id="clip0_591_6025">
<rect width="40" height="40" fill="white"/>
</clipPath>
</defs>
</svg>
