<svg width="40" height="40" viewBox="0 0 40 40" fill="none" xmlns="http://www.w3.org/2000/svg">
<g clip-path="url(#clip0_591_6106)">
<path d="M0 20.0031C0 21.1804 0 21.3112 0.0280505 22.311C0.102852 24.5254 0.336606 27.0669 1.22487 29.7485C1.85133 31.6453 3.02945 33.6915 4.20757 34.9809C5.70361 36.6253 7.77 37.971 9.99532 38.7371C12.2767 39.5221 14.7452 39.9049 19.5419 39.9985H20.4301C25.2267 39.8956 27.6952 39.5221 29.9766 38.7371C32.2113 37.971 34.2684 36.6253 35.7736 34.9809C36.9518 33.6822 38.13 31.6453 38.7564 29.7485C39.6446 27.0669 39.8879 24.5161 39.9532 22.311C39.9814 21.3206 39.9814 21.1804 39.9814 20.0031C39.9814 18.8258 39.9814 18.695 39.9532 17.6953C39.8786 15.4808 39.6446 12.9394 38.7564 10.2578C38.13 8.36098 36.9518 6.31473 35.7736 5.02534C34.2777 3.38085 32.2113 2.03538 29.9766 1.2692C27.6952 0.484336 25.2267 0.101249 20.4301 0.0078125H19.5419C14.7359 0.110592 12.2767 0.484336 9.99532 1.2692C7.76064 2.03538 5.70361 3.38085 4.20757 5.02534C3.02945 6.32409 1.85133 8.36098 1.22487 10.2578C0.345956 12.9394 0.102852 15.4808 0.0280505 17.6953C0 18.6857 0 18.8258 0 20.0031Z" fill="#D4332C"/>
<path d="M20.0085 30.5637C14.1553 30.5637 9.38672 25.7984 9.38672 19.9494C9.38672 17.52 10.1908 15.2308 11.7149 13.3341L11.771 13.2874C12.9211 12.5679 14.015 12.4838 14.6883 13.0538C15.2305 13.5116 15.3615 14.3151 15.0249 15.128C14.8004 15.6793 14.1646 16.1091 13.5569 16.5203C13.1922 16.7725 12.8089 17.0248 12.5377 17.2958C11.7055 18.1273 11.3503 19.4354 11.6308 20.6501C11.8364 21.5191 12.3133 22.1451 12.9585 22.36C13.0894 22.4067 13.267 22.4441 13.3512 22.388C13.5008 22.2853 13.5101 21.8181 13.5195 21.3789C13.5288 20.566 13.5475 19.4635 14.361 18.7814C15.324 18.0433 17.1006 18.3516 17.9515 19.4074C18.3348 19.8839 19.008 21.164 17.0538 22.8178C16.4554 23.257 16.2591 23.4625 15.9692 23.7615C15.8851 23.855 15.7822 23.9578 15.67 24.0699C14.8753 24.8641 14.6789 25.7517 15.109 26.6207C15.8664 28.1717 18.4003 29.3584 20.4199 29.1154C23.1034 28.7884 23.8795 27.0692 24.2815 24.3969C24.4592 23.1916 24.4311 22.3787 24.4031 21.6499C24.375 20.9211 24.347 20.239 24.5433 19.3327V19.3046C25.0669 17.8938 25.9926 17.6041 26.7032 17.6134C28.4049 17.6321 30.2563 19.342 30.6303 20.4352V20.4726L30.6396 20.51C30.3404 26.1441 25.684 30.5637 20.0459 30.5637H20.0085ZM12.0141 13.6144C10.5648 15.4364 9.79811 17.6228 9.79811 19.94C9.79811 25.5649 14.3797 30.1432 20.0085 30.1432C25.6373 30.1432 29.8823 25.9199 30.1908 20.5286C29.8261 19.5569 28.0964 18.0339 26.6658 18.0246C25.8336 18.0246 25.2633 18.4918 24.9173 19.4354C24.7397 20.2857 24.7584 20.9118 24.7864 21.6405C24.8145 22.3787 24.8519 23.2196 24.6649 24.4623C24.2535 27.2467 23.3745 29.1715 20.4479 29.5265C18.232 29.7975 15.5578 28.5268 14.7163 26.8075C14.2114 25.7704 14.4451 24.6959 15.3615 23.7802C15.4736 23.6681 15.5671 23.5653 15.6606 23.4812C15.9599 23.1729 16.1749 22.9486 16.792 22.4908C17.9795 21.4817 18.2787 20.4819 17.6242 19.669C16.9229 18.8094 15.3801 18.5104 14.6134 19.0991C13.9496 19.6504 13.9402 20.6128 13.9215 21.3789C13.9215 22.0049 13.9122 22.4908 13.5849 22.7244C13.3979 22.8552 13.1455 22.8645 12.8182 22.7524C12.0328 22.4815 11.4531 21.7526 11.2193 20.7435C10.9108 19.3981 11.3035 17.9311 12.2385 17.0061C12.5377 16.7071 12.9304 16.4361 13.3138 16.1745C13.8748 15.7914 14.4545 15.4084 14.6321 14.9692C14.9033 14.3151 14.8191 13.7078 14.4171 13.3621C14.015 13.0164 13.1735 12.9136 12.0234 13.6144H12.0141Z" fill="white"/>
<path d="M19.9342 9.44531C16.5588 9.44531 13.5574 11.015 11.6032 13.4631C13.8565 12.0615 15.3152 13.3976 14.6139 15.0888C14.2773 15.9111 12.8654 16.4904 12.1174 17.2379C10.3877 18.9664 10.8458 22.162 12.6317 22.7786C14.268 23.3392 12.7252 20.3586 14.268 19.0692C15.9136 17.8078 20.1492 20.0129 16.7551 22.8814C15.9603 23.4701 15.8388 23.6569 15.3245 24.1802C12.5382 26.9552 17.0543 30.104 20.3549 29.7022C23.2815 29.3472 24.0857 27.4224 24.4877 24.6941C24.8524 22.1993 24.3568 21.3304 24.7495 19.5271C25.9931 16.098 30.0043 19.0132 30.5747 20.6763C30.584 20.4895 30.6027 20.3026 30.6027 20.1063C30.6027 14.2292 25.8248 9.44531 19.9342 9.44531ZM27.0309 16.3782C26.5354 17.0603 25.3105 17.0136 24.2913 16.2755C23.2722 15.5373 22.8421 14.3881 23.3376 13.706C23.8238 13.0239 25.058 13.0706 26.0772 13.8088C27.0964 14.5376 27.5265 15.6868 27.0309 16.3689V16.3782Z" fill="white"/>
</g>
<defs>
<clipPath id="clip0_591_6106">
<rect width="40" height="40" fill="white"/>
</clipPath>
</defs>
</svg>
