<svg width="40" height="40" viewBox="0 0 40 40" fill="none" xmlns="http://www.w3.org/2000/svg">
<g clip-path="url(#clip0_591_6061)">
<path d="M0 20C0 21.1776 0 21.3084 0.0280636 22.3084C0.1029 24.5234 0.336763 27.0654 1.22544 29.7476C1.8522 31.6449 3.03087 33.6916 4.20954 34.9813C5.70629 36.6261 7.77361 37.9718 10.0094 38.7382C12.2919 39.5232 14.7615 39.9064 19.5603 40H20.449C25.2573 39.8971 27.7175 39.5232 30 38.7382C32.2358 37.9718 34.2938 36.6261 35.7904 34.9813C36.9693 33.6823 38.1479 31.6449 38.7746 29.7476C39.6632 27.0654 39.9064 24.514 39.9718 22.3084C40 21.3178 40 21.1776 40 20C40 18.8224 40 18.6916 39.9718 17.6916C39.8971 15.4766 39.6632 12.9346 38.7746 10.2523C38.1479 8.35514 36.9693 6.30839 35.7904 5.01868C34.2938 3.37383 32.2264 2.02804 30 1.26168C27.7175 0.476636 25.2479 0.0934579 20.449 0H19.5603C14.7521 0.102804 12.2919 0.476636 10.0094 1.26168C7.77361 2.02804 5.71561 3.37383 4.20954 5.01868C3.03087 6.31775 1.8522 8.35514 1.22544 10.2523C0.346118 12.9346 0.1029 15.4766 0.0280636 17.6916C0 18.6823 0 18.8224 0 20Z" fill="#003CDC"/>
<path d="M8.3812 19.8959L9.02663 19.02C8.54745 18.7895 8.05848 18.4392 7.69909 17.9687C7.33934 17.5171 7.09977 16.9639 7.09977 16.309V15.5529H5.90109V16.3275C5.90109 16.9915 5.67056 17.5814 5.30173 18.0885C4.93291 18.6051 4.44395 19.0106 3.92773 19.3057L4.64688 20.145C5.06181 19.8959 5.46727 19.5823 5.79945 19.2229C6.12252 18.8817 6.38027 18.5034 6.53709 18.1441C6.91534 18.8447 7.49616 19.4164 8.3812 19.8959ZM10.7419 18.2635H12.0788V17.2957H10.7415V15.3594H9.59802V20.2278H10.7415L10.7419 18.2635ZM5.90109 24.0913H10.7415V20.5599H5.90109V24.0913ZM9.59838 21.5281V23.1326H7.03513V21.5281H9.59838ZM16.7904 20.0433L17.4358 19.1489C16.9472 18.9002 16.4586 18.5681 16.1174 18.1256C15.758 17.6921 15.5366 17.1574 15.5366 16.4658V15.5529H14.3194V16.4847C14.3194 17.1117 14.1074 17.6649 13.7662 18.1444C13.4249 18.6331 12.9178 19.0571 12.3555 19.4259L13.0652 20.2837C13.5081 20.0161 13.9044 19.6658 14.2362 19.3246C14.5593 18.9833 14.808 18.6239 14.9463 18.2918C15.0937 18.5869 15.3427 18.9097 15.6654 19.2139C15.9885 19.5369 16.3846 19.8223 16.7904 20.0433ZM18.3764 20.2739H19.5199V15.3594H18.3764V16.8898H16.7628V17.9041H18.3764V20.2739ZM19.3812 22.1917C19.3812 21.6018 19.1417 21.1037 18.7452 20.7443C18.3394 20.3846 17.7771 20.1726 17.1131 20.1726C16.4492 20.1726 15.8959 20.3846 15.4996 20.7443C15.0937 21.1037 14.8632 21.6018 14.8632 22.1917C14.8632 22.8095 15.0937 23.3076 15.4996 23.6669C15.8959 24.0082 16.4492 24.2111 17.1131 24.2111C17.7771 24.2111 18.3394 24.0082 18.7452 23.6669C19.1417 23.3076 19.3812 22.8095 19.3812 22.1917ZM18.2566 22.1917C18.2566 22.828 17.7771 23.252 17.1131 23.252C16.4492 23.252 15.9882 22.828 15.9882 22.192C15.9882 21.5647 16.4492 21.1407 17.1131 21.1407C17.4449 21.1407 17.7216 21.2514 17.9336 21.4359C18.0358 21.5333 18.1172 21.6506 18.1728 21.7806C18.2283 21.9105 18.2568 22.0504 18.2566 22.1917ZM25.1169 16.5304H27.0438V15.5714H21.751V16.5304H23.6873C23.5494 16.8898 23.1987 17.222 22.7653 17.4801C22.3318 17.7477 21.8251 17.9593 21.3822 18.0428L21.8527 18.983C22.3565 18.8651 22.8408 18.6756 23.2909 18.4203C23.7338 18.1717 24.1393 17.858 24.4065 17.5171C24.674 17.8489 25.0708 18.1441 25.5224 18.3931C25.9649 18.6417 26.472 18.8356 26.9606 18.9554L27.4311 18.0333C26.9145 17.895 26.3798 17.7106 25.9649 17.4525C25.5499 17.2035 25.2276 16.8993 25.1169 16.5304ZM20.6351 20.3661H28.1775V19.3979H20.6354L20.6351 20.3661ZM26.7483 22.6436C26.7483 22.0809 26.4902 21.6384 26.0752 21.3157C25.6418 21.0115 25.0701 20.8365 24.4061 20.8365C23.7701 20.8365 23.1893 21.0115 22.7558 21.3157C22.3224 21.6203 22.0552 22.0813 22.0552 22.6436C22.0552 23.2339 22.3409 23.6855 22.7834 23.9897C23.2263 24.2848 23.8162 24.4326 24.4061 24.4326C24.9869 24.4326 25.5677 24.2757 26.0106 23.9806C26.4535 23.6855 26.7483 23.2339 26.7483 22.6436ZM25.6418 22.6436C25.6418 22.9017 25.5035 23.1137 25.2824 23.2615C25.061 23.4088 24.7473 23.5011 24.4061 23.5011C23.6684 23.5011 23.1613 23.1598 23.1613 22.6436C23.1613 22.1274 23.6684 21.7677 24.4065 21.7677C24.7477 21.7677 25.061 21.8599 25.2821 22.0073C25.5035 22.1641 25.6418 22.3855 25.6418 22.6436ZM28.8051 18.6882L28.9154 19.7206C29.5582 19.7024 30.2007 19.6748 30.8427 19.6379V20.8826H31.9673V19.5638C32.9264 19.4901 33.867 19.3979 34.8076 19.2872V20.0713H33.0923V20.9378H34.8076V21.8969H35.9417V15.3594H34.8076V18.3651C34.4108 18.4112 34.0143 18.4483 33.6089 18.4849C33.7377 17.6827 33.7933 16.8717 33.7838 16.0785V15.7834H29.4876V16.7701H32.6226C32.6407 17.3048 32.595 17.9136 32.5028 18.5681C31.2856 18.6512 30.0499 18.6878 28.8051 18.6878V18.6882ZM30.9716 23.9345H36.0706V22.9573H32.0966V21.3803H30.9716V23.9345Z" fill="white"/>
</g>
<defs>
<clipPath id="clip0_591_6061">
<rect width="40" height="40" fill="white"/>
</clipPath>
</defs>
</svg>
