<svg width="40" height="40" viewBox="0 0 40 40" fill="none" xmlns="http://www.w3.org/2000/svg">
<g clip-path="url(#clip0_591_6167)">
<path d="M0 20C0 21.1776 0 21.3084 0.0280636 22.3084C0.1029 24.5234 0.336763 27.0654 1.22544 29.7476C1.8522 31.6449 3.03087 33.6916 4.20954 34.9813C5.70629 36.6261 7.77361 37.9718 10.0094 38.7382C12.2919 39.5232 14.7615 39.9064 19.5603 40H20.449C25.2573 39.8971 27.7175 39.5232 30 38.7382C32.2358 37.9718 34.2938 36.6261 35.7904 34.9813C36.9693 33.6823 38.1479 31.6449 38.7746 29.7476C39.6632 27.0654 39.9064 24.514 39.9718 22.3084C40 21.3178 40 21.1776 40 20C40 18.8224 40 18.6916 39.9718 17.6916C39.8971 15.4766 39.6632 12.9346 38.7746 10.2523C38.1479 8.35514 36.9693 6.30839 35.7904 5.01868C34.2938 3.37383 32.2264 2.02804 30 1.26168C27.7175 0.476636 25.2479 0.0934579 20.449 0H19.5603C14.7521 0.102804 12.2919 0.476636 10.0094 1.26168C7.77361 2.02804 5.71561 3.37383 4.20954 5.01868C3.03087 6.31775 1.8522 8.35514 1.22544 10.2523C0.346118 12.9346 0.1029 15.4766 0.0280636 17.6916C0 18.6823 0 18.8224 0 20Z" fill="#5A280B"/>
<path d="M19.0155 23.0238C19.2225 23.0238 19.5881 23.2091 20.0879 23.7848C22.3651 26.4491 25.044 28.735 28.0261 30.5587C28.3782 30.7645 28.5724 30.9177 28.5724 31.1191C28.5724 31.2594 28.5527 31.4163 28.2466 31.4163C26.7309 31.231 25.2399 30.8788 23.8003 30.3661C22.9822 29.9596 21.2196 28.4404 19.1196 24.5953C18.8726 24.2508 18.7052 23.8548 18.6297 23.4364C18.6233 23.3342 18.6573 23.2335 18.7244 23.1565C18.7914 23.0795 18.886 23.0324 18.9873 23.0256C18.9966 23.0236 19.0061 23.023 19.0155 23.0238Z" fill="#488AC9"/>
<path d="M25.8986 11.126C25.8986 11.126 26.4344 12.2473 21.2148 13.0276C21.7837 11.3176 22.1579 10.1926 22.1579 10.1926C22.2767 9.91535 22.2858 9.60278 22.1833 9.31899C22.0808 9.03524 21.8745 8.80181 21.6067 8.66671C21.4814 8.60849 21.3459 8.57571 21.208 8.57031C20.9392 8.59896 20.685 8.70849 20.4787 8.88478C20.2724 9.06106 20.1234 9.29592 20.0512 9.55874L18.4999 13.3272C17.0948 13.4392 15.683 13.4392 14.2779 13.3272C13.3335 13.2277 13.0904 13.7825 13.0904 14.3502C13.0904 15.3387 14.7341 16.3431 15.785 16.2338C16.4446 16.1677 16.8329 16.1375 17.3681 16.08L11.5985 30.0683C11.3793 30.591 11.2029 31.4275 12.1907 31.4275C13.1786 31.4275 15.4096 30.465 15.782 29.3548C15.9388 28.8865 17.0883 25.4307 18.3676 21.5813C19.5618 21.3435 20.768 21.1723 21.9809 21.0686C22.5933 21.0686 22.9044 21.3614 22.9044 21.7092C22.9044 22.5123 21.0837 24.8259 17.5519 27.6745C17.163 27.9871 17.4857 28.2348 17.6835 28.2348C19.1965 27.5204 20.6052 26.6 21.87 25.4993C23.1892 24.4398 25.506 21.679 25.506 19.7385C25.506 18.9731 25.1869 18.2725 23.7379 18.2725C22.2623 18.3305 20.7906 18.4647 19.3285 18.6747C19.6715 17.6417 20.0095 16.6273 20.3262 15.6797C23.0557 15.2787 24.6799 15.018 25.6457 14.8049C26.9648 14.5065 28.0206 13.7022 28.0206 12.8725C28.0298 11.1051 25.8986 11.126 25.8986 11.126Z" fill="white"/>
</g>
<defs>
<clipPath id="clip0_591_6167">
<rect width="40" height="40" fill="white"/>
</clipPath>
</defs>
</svg>
