<svg width="40" height="40" viewBox="0 0 40 40" fill="none" xmlns="http://www.w3.org/2000/svg">
<g clip-path="url(#clip0_591_6097)">
<mask id="mask0_591_6097" style="mask-type:luminance" maskUnits="userSpaceOnUse" x="0" y="0" width="40" height="40">
<path d="M40 0H0V40H40V0Z" fill="white"/>
</mask>
<g mask="url(#mask0_591_6097)">
<path d="M0 20C0 21.1776 0 21.3084 0.0280636 22.3084C0.1029 24.5234 0.336763 27.0654 1.22544 29.7476C1.8522 31.6449 3.03087 33.6916 4.20954 34.9813C5.70625 36.6261 7.77361 37.9718 10.0094 38.7382C12.2919 39.5232 14.7615 39.9064 19.5603 40H20.449C25.2573 39.8971 27.7175 39.5232 30 38.7382C32.2358 37.9718 34.2937 36.6261 35.7904 34.9813C36.9693 33.6823 38.1479 31.6449 38.7746 29.7476C39.6632 27.0654 39.9064 24.514 39.9718 22.3084C40 21.3178 40 21.1776 40 20C40 18.8224 40 18.6916 39.9718 17.6916C39.8971 15.4766 39.6632 12.9346 38.7746 10.2523C38.1479 8.35514 36.9693 6.30839 35.7904 5.01868C34.2937 3.37383 32.2264 2.02804 30 1.26168C27.7175 0.476636 25.2479 0.0934579 20.449 0H19.5603C14.7521 0.102804 12.2919 0.476636 10.0094 1.26168C7.77361 2.02804 5.71561 3.37383 4.20954 5.01868C3.03087 6.31775 1.8522 8.35514 1.22544 10.2523C0.346118 12.9346 0.1029 15.4766 0.0280636 17.6916C0 18.6823 0 18.8224 0 20Z" fill="#0A1E5A"/>
<mask id="mask1_591_6097" style="mask-type:luminance" maskUnits="userSpaceOnUse" x="6" y="13" width="29" height="14">
<path d="M34.9992 13.2109H6.42773V26.4252H34.9992V13.2109Z" fill="white"/>
</mask>
<g mask="url(#mask1_591_6097)">
<path d="M23.1893 21.4481C23.9393 21.4481 24.3559 21.5543 24.3671 22.0563C24.3719 22.332 24.1846 22.6528 23.9812 22.81C23.5227 23.1641 23.1199 23.2019 20.9678 23.2019H10.3502L12.4015 14.6368H8.85405C8.61723 14.6368 8.52823 14.7046 8.45762 14.9861L6.51284 23.0142C6.14687 24.6099 6.97023 26.0696 8.80852 26.0696C10.6465 26.0696 12.1179 26.0696 13.6789 26.0696C14.9123 26.0696 16.5635 24.7231 17.2333 23.4791C17.2698 23.4106 17.2933 23.3666 17.3211 23.3093C17.3211 23.3093 17.3353 23.2921 17.3395 23.3168C17.3395 23.318 17.3401 23.318 17.3401 23.318C17.2333 23.7651 16.8604 25.3458 16.7992 25.6031C16.7207 25.9389 16.8957 26.0663 17.0571 26.0663C17.0571 26.0663 21.0282 26.0663 22.2968 26.0663C26.7406 26.0663 28.4748 23.9525 28.6272 21.4146C28.712 19.9884 27.8099 19.0658 25.2572 19.0658C25.2572 19.0658 23.9948 19.0658 23.2967 19.0658C22.5994 19.0658 21.8853 18.8365 21.8853 18.2708C21.8853 17.7039 22.6607 17.2118 23.7139 17.2118H28.4854C28.4854 17.2118 28.9026 15.5413 28.985 15.1919C29.0882 14.7523 28.9561 14.625 28.635 14.625H22.7373C19.3118 14.625 17.7746 16.9161 17.7746 18.5502C17.7746 20.186 19.0927 21.4454 22.4929 21.4454L23.1893 21.4481Z" fill="white"/>
<path d="M25.5059 13.2109H34.9984L30.1159 15.719C30.1159 15.719 30.3126 14.8975 30.3718 14.6531C30.433 14.3927 30.3506 14.1969 29.9829 14.1227C29.6172 14.0488 25.5059 13.2109 25.5059 13.2109Z" fill="#ED164B"/>
</g>
</g>
</g>
<defs>
<clipPath id="clip0_591_6097">
<rect width="40" height="40" fill="white"/>
</clipPath>
</defs>
</svg>
