<svg width="40" height="40" viewBox="0 0 40 40" fill="none" xmlns="http://www.w3.org/2000/svg">
<g clip-path="url(#clip0_591_6077)">
<path d="M0 20C0 21.1776 0 21.3084 0.0280636 22.3084C0.1029 24.5234 0.336763 27.0654 1.22544 29.7476C1.8522 31.6449 3.03087 33.6916 4.20954 34.9813C5.70629 36.6261 7.77361 37.9718 10.0094 38.7382C12.2919 39.5232 14.7615 39.9064 19.5603 40H20.449C25.2573 39.8971 27.7175 39.5232 30 38.7382C32.2358 37.9718 34.2938 36.6261 35.7904 34.9813C36.9693 33.6823 38.1479 31.6449 38.7746 29.7476C39.6632 27.0654 39.9064 24.514 39.9718 22.3084C40 21.3178 40 21.1776 40 20C40 18.8224 40 18.6916 39.9718 17.6916C39.8971 15.4766 39.6632 12.9346 38.7746 10.2523C38.1479 8.35514 36.9693 6.30839 35.7904 5.01868C34.2938 3.37383 32.2264 2.02804 30 1.26168C27.7175 0.476636 25.2479 0.0934579 20.449 0H19.5603C14.7521 0.102804 12.2919 0.476636 10.0094 1.26168C7.77361 2.02804 5.71561 3.37383 4.20954 5.01868C3.03087 6.31775 1.8522 8.35514 1.22544 10.2523C0.346118 12.9346 0.1029 15.4766 0.0280636 17.6916C0 18.6823 0 18.8224 0 20Z" fill="#457C26"/>
<path d="M29.0869 22.2569L27.7736 21.3706C27.3479 21.6852 26.8347 21.8594 26.3055 21.8693C25.7762 21.8792 25.257 21.7241 24.8198 21.4255C24.8198 21.4255 20.8286 18.7288 20.4593 18.4739C20.2466 18.3232 19.9923 18.2422 19.7316 18.2422C19.4709 18.2422 19.2166 18.3232 19.0039 18.4739L14.6286 21.4321C14.1912 21.7303 13.6721 21.8851 13.1429 21.8753C12.6137 21.8654 12.1007 21.6914 11.6747 21.3772L10.3621 22.2634C9.83134 22.6326 9.46349 23.1924 9.33513 23.826C9.20677 24.4597 9.32788 25.1185 9.67316 25.6651C9.83727 25.9333 10.0539 26.1654 10.3102 26.3475C10.5665 26.5296 10.8569 26.6579 11.1642 26.7247C11.4714 26.7914 11.7889 26.7952 12.0977 26.7359C12.4064 26.6765 12.6999 26.5553 12.9605 26.3794L19.0539 22.2585C19.2464 22.1098 19.4827 22.0291 19.7258 22.0291C19.9691 22.0291 20.2053 22.1098 20.3978 22.2585L26.4896 26.3794C26.7501 26.5555 27.0437 26.6769 27.3525 26.7364C27.6612 26.7959 27.9788 26.7921 28.2861 26.7254C28.5933 26.6586 28.8839 26.5302 29.1402 26.348C29.3964 26.1657 29.613 25.9334 29.777 25.6651C30.1227 25.1184 30.2442 24.4594 30.1161 23.8254C29.9879 23.1914 29.62 22.6313 29.0891 22.2618L29.0869 22.2569Z" fill="white"/>
<path d="M19.2774 14.6169C19.4148 14.5303 19.5738 14.4844 19.7362 14.4844C19.8986 14.4844 20.0576 14.5303 20.195 14.6169C20.4444 14.7713 23.0982 16.5905 23.0982 16.5905C23.5144 16.8733 24.0147 17.0056 24.5163 16.9656C25.0178 16.9257 25.4908 16.7158 25.857 16.3707L27.3637 17.3899C27.8146 17.7042 28.1268 18.1803 28.2357 18.719C28.3444 19.2577 28.2414 19.8177 27.9478 20.2823C27.8081 20.5101 27.6237 20.7073 27.4057 20.8619C27.1877 21.0166 26.9406 21.1254 26.6793 21.1819C26.4181 21.2383 26.1483 21.2413 25.8859 21.1906C25.6234 21.1398 25.374 21.0364 25.1526 20.8867C25.1526 20.8867 20.8252 17.9658 20.4049 17.7158C20.2024 17.5901 19.9688 17.5234 19.7304 17.5234C19.4921 17.5234 19.2584 17.5901 19.0559 17.7158C18.7049 17.9317 14.2868 20.8812 14.2868 20.8812C13.8362 21.1694 13.2898 21.2676 12.7671 21.1544C12.2443 21.0411 11.7875 20.7256 11.4966 20.2768C11.2041 19.8127 11.1016 19.2538 11.2103 18.7161C11.3191 18.1784 11.6308 17.7033 12.0807 17.3894L13.5889 16.3707C13.9549 16.7162 14.4279 16.9263 14.9296 16.9662C15.4313 17.0062 15.9317 16.8737 16.3477 16.5905C16.3477 16.5905 19.0164 14.7817 19.2774 14.6169Z" fill="white"/>
<path d="M20.2462 13.8825L23.438 16.0578C23.6252 16.1714 23.8333 16.246 24.0501 16.2772C24.2669 16.3082 24.4878 16.2952 24.6993 16.2387C24.9109 16.1823 25.1088 16.0835 25.2813 15.9486C25.4537 15.8136 25.5971 15.6452 25.7027 15.4534C25.9129 15.0849 25.9821 14.6526 25.8977 14.2369C25.8132 13.8212 25.5807 13.4502 25.2434 13.1929L20.2182 9.79626C20.072 9.69987 19.9009 9.64844 19.7259 9.64844C19.5508 9.64844 19.3797 9.69987 19.2335 9.79626L14.2001 13.1929C13.8416 13.466 13.602 13.8667 13.5314 14.3117C13.4608 14.7568 13.5645 15.2119 13.8209 15.5825C14.0541 15.9274 14.4113 16.1692 14.8181 16.2577C15.2249 16.3462 15.6501 16.2746 16.0055 16.0578L19.2435 13.8825C19.3852 13.7688 19.5614 13.7068 19.7432 13.7068C19.9249 13.7068 20.1011 13.7688 20.2428 13.8825H20.2462Z" fill="white"/>
<path d="M23.1508 29.1159L20.5383 24.7006C20.4967 24.5909 20.4337 24.4906 20.3528 24.4057C20.2719 24.3207 20.1748 24.2528 20.0673 24.206C19.9598 24.1592 19.844 24.1343 19.7267 24.1329C19.6094 24.1315 19.493 24.1536 19.3844 24.1978C19.2741 24.2451 19.1744 24.314 19.091 24.4003C19.0076 24.4866 18.9422 24.5887 18.8987 24.7006L16.2861 29.1159C15.9482 29.6577 16.0284 30.522 16.9624 30.522H22.4668C23.4086 30.5171 23.4888 29.6593 23.1508 29.1159Z" fill="white"/>
</g>
<defs>
<clipPath id="clip0_591_6077">
<rect width="40" height="40" fill="white"/>
</clipPath>
</defs>
</svg>
