<svg width="40" height="40" viewBox="0 0 40 40" fill="none" xmlns="http://www.w3.org/2000/svg">
<g clip-path="url(#clip0_591_6533)">
<path d="M0 20C0 21.1776 0 21.3084 0.0280636 22.3084C0.1029 24.5234 0.336763 27.0654 1.22544 29.7476C1.8522 31.6449 3.03087 33.6916 4.20954 34.9813C5.70629 36.6261 7.77361 37.9718 10.0094 38.7382C12.2919 39.5232 14.7615 39.9064 19.5603 40H20.449C25.2573 39.8971 27.7175 39.5232 30 38.7382C32.2358 37.9718 34.2938 36.6261 35.7904 34.9813C36.9693 33.6823 38.1479 31.6449 38.7746 29.7476C39.6632 27.0654 39.9064 24.514 39.9718 22.3084C40 21.3178 40 21.1776 40 20C40 18.8224 40 18.6916 39.9718 17.6916C39.8971 15.4766 39.6632 12.9346 38.7746 10.2523C38.1479 8.35514 36.9693 6.30839 35.7904 5.01868C34.2938 3.37383 32.2264 2.02804 30 1.26168C27.7175 0.476636 25.2479 0.0934579 20.449 0H19.5603C14.7521 0.102804 12.2919 0.476636 10.0094 1.26168C7.77361 2.02804 5.71561 3.37383 4.20954 5.01868C3.03087 6.31775 1.8522 8.35514 1.22544 10.2523C0.346118 12.9346 0.1029 15.4766 0.0280636 17.6916C0 18.6823 0 18.8224 0 20Z" fill="#1585B4"/>
<path d="M12.4154 6.85119C12.0312 7.02729 11.6859 7.27829 11.3999 7.58954C11.1139 7.90076 10.8929 8.26597 10.7498 8.66372L5.43733 23.7393C5.29836 24.1294 5.24279 24.5442 5.27411 24.957C5.30543 25.3699 5.42301 25.7716 5.61918 26.1362C6.02704 26.8922 6.71718 27.4563 7.53918 27.7056L24.9567 33.2287C25.7941 33.494 26.701 33.4324 27.4948 33.0562C27.8791 32.8804 28.2242 32.6295 28.51 32.3182C28.7957 32.0069 29.0163 31.6416 29.1586 31.2437L34.4711 16.17C34.6035 15.7715 34.6538 15.3503 34.619 14.9319C34.5842 14.5134 34.465 14.1064 34.2686 13.7353C34.0722 13.3642 33.8026 13.0367 33.4761 12.7726C33.1497 12.5085 32.7731 12.3133 32.3692 12.1987L14.9517 6.67747C14.1146 6.41297 13.2085 6.47433 12.4148 6.84933" fill="white"/>
<path d="M20.9285 21.3343C19.9575 22.361 18.7616 23.1485 17.4348 23.635L16.6479 23.9237V16.9362L17.4248 17.2206C18.7529 17.7038 19.9509 18.4883 20.9248 19.5125C21.6196 18.4622 22.0289 17.249 22.1123 15.9925C22.1847 14.3665 21.7321 12.7604 20.8215 11.4114C19.9109 10.0624 18.5905 9.04206 17.0554 8.50117L14.541 7.7106C14.0071 7.53503 13.426 7.57256 12.9191 7.81542C12.4122 8.05824 12.0188 8.48756 11.821 9.01367L6.49355 24.0987C6.40887 24.3603 6.37801 24.6365 6.40287 24.9104C6.42773 25.1843 6.50776 25.4504 6.63816 25.6925C6.76855 25.9347 6.94658 26.148 7.16158 26.3195C7.37662 26.491 7.62408 26.6172 7.88919 26.6906L19.9792 30.5031C21.2442 29.2476 22.0077 27.5738 22.1267 25.7956C22.2285 24.2176 21.8074 22.6501 20.9285 21.3356M13.941 24.3524H12.7392V16.5206H13.941V24.3524Z" fill="#008AD3"/>
<path d="M20.2288 20.4203C19.544 19.6586 18.719 19.0358 17.7988 18.5859V22.2653C18.7208 21.8135 19.5461 21.1872 20.2288 20.4203Z" fill="#EC4315"/>
<path d="M31.9844 13.211L20.8906 9.71094C22.2795 11.1078 23.1234 12.955 23.2702 14.9193C23.4171 16.8836 22.8571 18.8357 21.6913 20.4235C22.8263 21.9583 23.3939 23.8392 23.2975 25.7456C23.2011 27.652 22.4466 29.466 21.1625 30.8785L25.3313 32.191C25.8655 32.3653 26.4464 32.3268 26.953 32.0833C27.4595 31.8398 27.8525 31.4102 28.05 30.8841L33.3788 15.8041C33.4629 15.5422 33.4933 15.2661 33.4681 14.9922C33.4429 14.7183 33.3628 14.4523 33.2323 14.2102C33.1019 13.968 32.9239 13.7547 32.709 13.583C32.4942 13.4113 32.2468 13.2848 31.9819 13.211M29.0444 24.3266L27.5444 24.3328L24.4631 20.4141L27.5919 16.4985L29.1025 16.4935L25.9675 20.4197L29.0444 24.3266Z" fill="#004593"/>
</g>
<defs>
<clipPath id="clip0_591_6533">
<rect width="40" height="40" fill="white"/>
</clipPath>
</defs>
</svg>
