<svg width="40" height="40" viewBox="0 0 40 40" fill="none" xmlns="http://www.w3.org/2000/svg">
<g clip-path="url(#clip0_591_6510)">
<path d="M0 19.9972C0 21.1669 0 21.3069 0.0300075 22.3066C0.060015 24.826 0.470118 27.3354 1.23031 29.7448C1.88047 31.6643 2.89072 33.4438 4.21104 34.9734C5.80146 36.6829 7.79196 37.9726 10.0025 38.7326C12.2831 39.5222 14.7537 39.8922 19.5549 39.9922H20.4451C25.2463 39.8922 27.7069 39.5122 29.9975 38.7326C32.208 37.9726 34.1985 36.6829 35.7889 34.9734C37.1093 33.4338 38.1296 31.6643 38.7696 29.7448C39.53 27.3354 39.94 24.836 39.97 22.3066C40 21.3169 40 21.1769 40 19.9972C40 18.8175 40 18.6875 39.97 17.6978C39.94 15.1784 39.53 12.669 38.7696 10.2596C38.1196 8.34011 37.1093 6.56054 35.7889 5.02093C34.1985 3.31136 32.208 2.02168 29.9975 1.26187C27.7169 0.472068 25.2463 0.0921626 20.4451 -0.0078125H19.5549C14.7537 0.0921626 12.2831 0.472068 10.0025 1.25187C7.79196 2.01168 5.80146 3.30136 4.21104 5.01093C2.89072 6.55054 1.88047 8.32011 1.23031 10.2496C0.470118 12.669 0.0700175 15.1684 0.0300075 17.6978C0 18.6875 0 18.8275 0 19.9972Z" fill="#00854A"/>
<path d="M16.6053 17.6475C15.9717 17.0606 15.2017 16.5774 14.2717 16.2497C13.8056 16.084 13.0356 15.8438 12.3794 15.8438C11.8161 15.8438 11.3361 16.023 11.2121 16.5882C10.9801 17.6669 11.088 26.9257 11.1723 27.9957C11.2314 28.7844 11.5611 29.2444 12.4793 29.226C18.8815 29.1224 20.5605 21.3186 16.6053 17.6475Z" fill="white"/>
<path d="M23.9398 10.2093C23.3647 9.67649 22.6586 9.2376 21.8215 8.94174C21.3968 8.78842 20.6987 8.57031 20.1027 8.57031C19.5867 8.57031 19.1539 8.73713 19.0384 9.24946C18.8274 10.2256 18.9284 18.6319 19.0014 19.6074C19.0572 20.3195 19.3542 20.7363 20.1881 20.7244C26.0023 20.6267 27.5315 13.5415 23.9398 10.2093Z" fill="white"/>
<path d="M26.5069 18.0268C25.7858 17.3584 24.896 16.8055 23.8457 16.4336C23.3088 16.2419 22.4303 15.9688 21.685 15.9688C21.039 15.9688 20.4892 16.1744 20.3485 16.8196C20.0789 18.0483 20.2089 28.6093 20.3018 29.8343C20.3737 30.7348 20.7437 31.253 21.7897 31.2379C29.0988 31.1202 31.0201 22.215 26.5069 18.0268Z" fill="white"/>
</g>
<defs>
<clipPath id="clip0_591_6510">
<rect width="40" height="40" fill="white"/>
</clipPath>
</defs>
</svg>
