<svg width="40" height="40" viewBox="0 0 40 40" fill="none" xmlns="http://www.w3.org/2000/svg">
<g clip-path="url(#clip0_591_6659)">
<path d="M0 20C0 21.17 0 21.31 0.03 22.31C0.06 24.83 0.47 27.34 1.23 29.75C1.88 31.67 2.89 33.45 4.21 34.99C5.8 36.7 7.79 37.99 10 38.75C12.28 39.53 14.75 39.91 19.55 40.01H20.44C25.24 39.91 27.71 39.53 29.99 38.75C32.2 37.99 34.19 36.7 35.78 34.99C37.1 33.45 38.12 31.68 38.76 29.75C39.52 27.34 39.93 24.84 39.96 22.31C39.99 21.32 39.99 21.18 39.99 20C39.99 18.82 39.99 18.69 39.96 17.7C39.93 15.17 39.52 12.67 38.76 10.26C38.11 8.34 37.1 6.56 35.78 5.02C34.19 3.31 32.2 2.02 29.99 1.26C27.71 0.47 25.24 0.1 20.44 0H19.55C14.75 0.1 12.28 0.48 10 1.26C7.79 2.02 5.8 3.31 4.21 5.02C2.89 6.56 1.87 8.33 1.23 10.26C0.47 12.66 0.07 15.17 0.03 17.69C0 18.68 0 18.82 0 20Z" fill="#F4731C"/>
<path d="M17.2601 20.2411C16.9901 17.7711 19.5801 15.7911 23.0501 15.8111C26.5201 15.8311 29.5501 17.8611 29.8201 20.3311C30.0901 22.8011 27.5001 24.7811 24.0301 24.7511C20.5601 24.7211 17.5301 22.7011 17.2601 20.2311M30.4601 21.0011C30.1501 17.9311 26.6601 15.4311 22.6601 15.3911C18.6601 15.3511 15.6801 17.8111 16.0001 20.8811C16.3201 23.9511 19.8001 26.4511 23.8001 26.4911C27.8001 26.5311 30.7701 24.0711 30.4601 21.0011Z" fill="white"/>
<path d="M24.4392 26.5463C22.5992 28.5963 19.4392 28.7663 17.3892 26.9263C15.4592 24.9563 15.4992 21.7963 17.4592 19.8763C19.2992 17.8263 22.4592 17.6563 24.5092 19.4963C26.4392 21.4663 26.3992 24.6163 24.4392 26.5463ZM17.1492 19.8063C14.8592 22.0463 14.8292 25.7163 17.0692 28.0063C19.4592 30.1463 23.1192 29.9463 25.2592 27.5663C27.5492 25.3263 27.5792 21.6563 25.3392 19.3663C22.9492 17.2263 19.2892 17.4263 17.1492 19.8063Z" fill="white"/>
<path d="M17.3601 12.1289C21.4501 10.5989 25.4901 12.1489 26.3901 15.5889C27.2901 19.0289 24.7001 23.0689 20.6101 24.5989C16.5201 26.1289 12.4801 24.5789 11.5801 21.1389C10.6801 17.6989 13.2701 13.6689 17.3601 12.1289ZM13.5601 13.4489C9.3201 16.7989 8.2401 21.6689 11.1501 24.3089C14.0601 26.9489 19.8601 26.3689 24.1001 23.0189C28.3401 19.6689 29.4301 14.7989 26.5101 12.1589C23.5901 9.51886 17.8001 10.0889 13.5601 13.4489Z" fill="white"/>
</g>
<defs>
<clipPath id="clip0_591_6659">
<rect width="40" height="40" fill="white"/>
</clipPath>
</defs>
</svg>
