<svg width="40" height="40" viewBox="0 0 40 40" fill="none" xmlns="http://www.w3.org/2000/svg">
<g clip-path="url(#clip0_591_6578)">
<path d="M0 20C0 21.1776 0 21.3084 0.0280636 22.3084C0.1029 24.5234 0.336763 27.0654 1.22544 29.7476C1.8522 31.6449 3.03087 33.6916 4.20954 34.9813C5.70629 36.6261 7.77361 37.9718 10.0094 38.7382C12.2919 39.5232 14.7615 39.9064 19.5603 40H20.449C25.2573 39.8971 27.7175 39.5232 30 38.7382C32.2358 37.9718 34.2938 36.6261 35.7904 34.9813C36.9693 33.6823 38.1479 31.6449 38.7746 29.7476C39.6632 27.0654 39.9064 24.514 39.9718 22.3084C40 21.3178 40 21.1776 40 20C40 18.8224 40 18.6916 39.9718 17.6916C39.8971 15.4766 39.6632 12.9346 38.7746 10.2523C38.1479 8.35514 36.9693 6.30839 35.7904 5.01868C34.2938 3.37383 32.2264 2.02804 30 1.26168C27.7175 0.476636 25.2479 0.0934579 20.449 0H19.5603C14.7521 0.102804 12.2919 0.476636 10.0094 1.26168C7.77361 2.02804 5.71561 3.37383 4.20954 5.01868C3.03087 6.31775 1.8522 8.35514 1.22544 10.2523C0.346118 12.9346 0.1029 15.4766 0.0280636 17.6916C0 18.6823 0 18.8224 0 20Z" fill="black"/>
<path d="M29.3882 31.0702L20.8828 8.94531H31.4281V31.0702H29.3882Z" fill="#FBAF17"/>
<path fill-rule="evenodd" clip-rule="evenodd" d="M24.9446 31.0555H27.0573L23.7971 22.3494C23.6575 22.0376 23.1961 21.4141 22.4676 21.4141H22.0669C21.7877 21.4141 21.1454 21.6011 20.8103 22.3494L17.5684 31.0555H19.6629V31.0375L20.4825 28.7711H24.1251L24.9446 31.0555ZM22.3038 23.4467L21.0289 27.1522H23.5787L22.3038 23.4467Z" fill="white"/>
<path d="M17.1504 18.5891V8.92969H18.4071C19.0992 8.92969 19.1538 9.39737 19.172 9.70315V18.5891H17.1504Z" fill="white"/>
<path d="M8.57227 17.2916V8.94531H9.84716C10.4883 8.94531 10.6121 9.43699 10.5939 9.68281V16.9318H15.4567V18.5507H9.9018C8.8673 18.5507 8.58441 17.7113 8.57227 17.2916Z" fill="white"/>
<path fill-rule="evenodd" clip-rule="evenodd" d="M8.57227 31.0345V21.4219H9.84027H10.1386C10.4118 21.4219 10.6849 21.519 10.9035 21.9147L14.3567 27.559V21.4291H15.6066C16.2949 21.4291 16.3492 21.8944 16.3673 22.1988V31.0417H14.455L14.3705 30.8964L10.6121 24.7551V31.0345H8.57227Z" fill="white"/>
</g>
<defs>
<clipPath id="clip0_591_6578">
<rect width="40" height="40" fill="white"/>
</clipPath>
</defs>
</svg>
