<svg width="40" height="40" viewBox="0 0 40 40" fill="none" xmlns="http://www.w3.org/2000/svg">
<g clip-path="url(#clip0_591_6607)">
<path d="M0 20C0 21.1776 0 21.3084 0.0280636 22.3084C0.1029 24.5234 0.336763 27.0654 1.22544 29.7476C1.8522 31.6449 3.03087 33.6916 4.20954 34.9813C5.70629 36.6261 7.77361 37.9718 10.0094 38.7382C12.2919 39.5232 14.7615 39.9064 19.5603 40H20.449C25.2573 39.8971 27.7175 39.5232 30 38.7382C32.2358 37.9718 34.2938 36.6261 35.7904 34.9813C36.9693 33.6823 38.1479 31.6449 38.7746 29.7476C39.6632 27.0654 39.9064 24.514 39.9718 22.3084C40 21.3178 40 21.1776 40 20C40 18.8224 40 18.6916 39.9718 17.6916C39.8971 15.4766 39.6632 12.9346 38.7746 10.2523C38.1479 8.35514 36.9693 6.30839 35.7904 5.01868C34.2938 3.37383 32.2264 2.02804 30 1.26168C27.7175 0.476636 25.2479 0.0934579 20.449 0H19.5603C14.7521 0.102804 12.2919 0.476636 10.0094 1.26168C7.77361 2.02804 5.71561 3.37383 4.20954 5.01868C3.03087 6.31775 1.8522 8.35514 1.22544 10.2523C0.346118 12.9346 0.1029 15.4766 0.0280636 17.6916C0 18.6823 0 18.8224 0 20Z" fill="#E82118"/>
<mask id="mask0_591_6607" style="mask-type:luminance" maskUnits="userSpaceOnUse" x="4" y="15" width="32" height="9">
<path d="M35.3569 15H4.64258V23.873H35.3569V15Z" fill="white"/>
</mask>
<g mask="url(#mask0_591_6607)">
<path d="M11.2386 17.8889C10.9011 17.8665 10.5636 17.9336 10.2603 18.0833C9.95704 18.2331 9.69858 18.4603 9.51119 18.7419C9.34533 18.459 9.10286 18.2288 8.81176 18.0779C8.52069 17.927 8.19286 17.8615 7.86611 17.8889C7.55579 17.8835 7.24869 17.9522 6.97026 18.0892C6.69179 18.2263 6.45008 18.4278 6.26508 18.677V18.0541H4.64258V23.4906H6.34447V20.3672C6.33804 20.2502 6.35486 20.133 6.3939 20.0224C6.43297 19.9119 6.49351 19.8101 6.57201 19.7231C6.65054 19.636 6.74547 19.5653 6.8514 19.515C6.95736 19.4648 7.07222 19.436 7.18933 19.4303C7.21365 19.429 7.23801 19.429 7.26233 19.4303C7.48383 19.4143 7.70265 19.4865 7.87111 19.6312C8.03961 19.7759 8.14401 19.9813 8.16165 20.2027C8.16429 20.2516 8.16297 20.3006 8.15761 20.3493V23.4998H9.83797V20.3609C9.83308 20.2439 9.85136 20.1271 9.89169 20.0172C9.93197 19.9072 9.99351 19.8063 10.0728 19.7202C10.1521 19.6341 10.2477 19.5645 10.354 19.5153C10.4603 19.4662 10.5751 19.4384 10.6921 19.4337C10.717 19.4337 10.7426 19.4337 10.7681 19.4337C10.8896 19.4245 11.0117 19.4422 11.1256 19.4857C11.2395 19.5291 11.3423 19.5971 11.4268 19.6849C11.5114 19.7727 11.5755 19.8781 11.6146 19.9936C11.6536 20.109 11.6667 20.2317 11.6529 20.3528V23.5033H13.298V19.9813C13.3211 19.7301 13.2943 19.4767 13.2191 19.2359C13.1439 18.995 13.0217 18.7714 12.8597 18.578C12.6977 18.3846 12.4989 18.2251 12.275 18.1088C12.0511 17.9926 11.8064 17.9218 11.5549 17.9005C11.4499 17.8882 11.3442 17.8844 11.2386 17.8889Z" fill="white"/>
<path d="M21.7118 18.7879V18.0509H20.0645V23.4874H21.7663V21.1116C21.7663 20.0291 22.3828 19.6357 23.0654 19.6357C23.244 19.6343 23.4222 19.6526 23.5968 19.6901V18.048C23.4505 18.0104 23.3 17.992 23.1489 17.9935C22.8596 17.9817 22.5726 18.0496 22.3192 18.1896C22.0658 18.3297 21.8557 18.5367 21.7118 18.7879Z" fill="white"/>
<path d="M25.8863 18.0547H24.1855V23.4912H25.8863V18.0547Z" fill="white"/>
<path d="M28.9645 16.4609H27.4417V17.1604C27.4526 17.2657 27.4426 17.3722 27.4122 17.4737C27.3817 17.5752 27.3316 17.6696 27.2645 17.7517C27.1975 17.8337 27.1149 17.9016 27.0215 17.9516C26.9281 18.0016 26.8257 18.0326 26.7203 18.0429C26.6735 18.0468 26.6264 18.0468 26.5795 18.0429H26.3008V19.4979H27.2859V21.8279C27.2734 22.0466 27.3042 22.2655 27.3767 22.4722C27.4491 22.6789 27.5617 22.8693 27.7079 23.0323C27.854 23.1954 28.031 23.328 28.2285 23.4225C28.4261 23.517 28.6404 23.5716 28.8591 23.5831C28.9556 23.59 29.0526 23.5882 29.1488 23.5779C29.4514 23.5924 29.7535 23.5402 30.0336 23.4249V22.0464C29.8866 22.08 29.7365 22.0983 29.5857 22.1008C29.2166 22.1008 28.9692 21.9803 28.9692 21.5324V19.4985H30.0557V18.0487H28.9645V16.4609Z" fill="white"/>
<path d="M25.0246 15C24.7331 15.0016 24.4542 15.1187 24.2489 15.3257C24.0437 15.5326 23.9289 15.8125 23.9297 16.104C23.9305 16.3955 24.0468 16.6747 24.2532 16.8805C24.4596 17.0864 24.7392 17.2019 25.0307 17.2019C25.3222 17.2019 25.6017 17.0864 25.808 16.8805C26.0144 16.6747 26.1308 16.3955 26.1316 16.104C26.1324 15.8125 26.0176 15.5326 25.8124 15.3257C25.6071 15.1187 25.3282 15.0016 25.0368 15H25.0246Z" fill="white"/>
<path d="M16.6609 17.852C15.894 17.8775 15.168 18.2042 14.6404 18.7614C14.1127 19.3186 13.8261 20.0614 13.8425 20.8285C13.8589 21.5957 14.177 22.3255 14.7279 22.8597C15.2789 23.3938 16.0181 23.6893 16.7855 23.6819C17.2968 23.7159 17.8066 23.5961 18.2493 23.3379C18.692 23.0797 19.0473 22.695 19.2696 22.2333L17.8627 21.7118C17.7576 21.894 17.6026 22.0422 17.4159 22.1391C17.2292 22.2359 17.0187 22.2772 16.8092 22.2582C16.5006 22.2785 16.1959 22.1797 15.9579 21.9821C15.7199 21.7845 15.5666 21.5032 15.5298 21.1961H19.4464C19.4714 21.0234 19.483 20.849 19.4812 20.6746C19.5132 20.335 19.4777 19.9925 19.3767 19.6667C19.2759 19.341 19.1115 19.0384 18.8931 18.7764C18.6748 18.5144 18.4068 18.2982 18.1045 18.1403C17.8023 17.9823 17.4717 17.8857 17.132 17.8561C16.9754 17.8411 16.8177 17.8398 16.6609 17.852ZM15.5599 20.1084C15.5942 19.8404 15.7292 19.5955 15.9374 19.4234C16.1456 19.2512 16.4115 19.1647 16.6812 19.1813C16.9439 19.1468 17.2095 19.2175 17.4203 19.378C17.6311 19.5386 17.7699 19.7759 17.8065 20.0383C17.8065 20.0615 17.8117 20.0864 17.8129 20.1107L15.5599 20.1084Z" fill="white"/>
<path d="M32.7709 22.0373L35.3124 19.4228V18.0547H30.7567V19.5097H33.1098L30.6895 22.0257V23.4912H35.357V22.0362L32.7709 22.0373Z" fill="white"/>
</g>
</g>
<defs>
<clipPath id="clip0_591_6607">
<rect width="40" height="40" fill="white"/>
</clipPath>
</defs>
</svg>
