<svg width="40" height="40" viewBox="0 0 40 40" fill="none" xmlns="http://www.w3.org/2000/svg">
<g clip-path="url(#clip0_591_6490)">
<path d="M0 20.01C0 21.18 0 21.32 0.03 22.32C0.06 24.84 0.47 27.35 1.23 29.76C1.88 31.68 2.89 33.46 4.21 34.99C5.8 36.7 7.79 37.99 10 38.75C12.28 39.54 14.75 39.91 19.55 40.01H20.44C25.24 39.91 27.71 39.53 29.99 38.75C32.2 37.99 34.19 36.7 35.78 34.99C37.1 33.45 38.12 31.68 38.76 29.76C39.52 27.35 39.93 24.85 39.96 22.32C39.99 21.33 39.99 21.19 39.99 20.01C39.99 18.83 39.99 18.7 39.96 17.71C39.93 15.19 39.52 12.68 38.76 10.27C38.11 8.35 37.1 6.57 35.78 5.03C34.19 3.32 32.2 2.03 29.99 1.27C27.71 0.48 25.24 0.1 20.44 0H19.55C14.75 0.1 12.28 0.48 10 1.26C7.79 2.02 5.8 3.31 4.21 5.02C2.89 6.56 1.87 8.33 1.23 10.26C0.47 12.68 0.07 15.18 0.03 17.71C0 18.7 0 18.84 0 20.01Z" fill="#E72511"/>
<path d="M32.8453 22.7147H27.2501V15.7266H25.3691V24.2147H33.9287L32.8453 22.7147Z" fill="white"/>
<path d="M12.2508 15.7109C12.1556 15.8419 6.17941 24.0681 6.07227 24.199H8.16752L9.84609 21.8895H12.608V20.4133H10.9175L13.1913 17.2824V24.199H15.0604V15.7109H12.2508Z" fill="white"/>
<path d="M23.8568 20.2025C23.6306 19.8692 23.333 19.5954 22.9758 19.4168C23.3925 19.0359 23.6068 18.5001 23.583 17.9406C23.6068 17.3216 23.3449 16.7263 22.8806 16.3335C22.3568 15.9168 21.702 15.7025 21.0353 15.7382H16.5234V24.2263H21.2139C22.0115 24.262 22.7973 24.012 23.4163 23.5239C23.9639 23.0478 24.2734 22.3573 24.2496 21.6311C24.2496 21.1311 24.1187 20.643 23.8449 20.2263M18.3806 17.2382H20.6663C20.952 17.2263 21.2258 17.3096 21.452 17.4763C21.7973 17.8216 21.8092 18.393 21.4639 18.7501C21.2615 18.9168 20.9996 19.0001 20.7377 18.9882H18.3806V17.2382ZM21.9639 22.4287C21.6663 22.643 21.3092 22.7501 20.9401 22.7382H18.3806V20.4763H20.8925C21.2734 20.4525 21.6425 20.5716 21.952 20.7978C22.202 21.0001 22.333 21.3096 22.321 21.6311C22.333 21.9406 22.202 22.2382 21.9639 22.4406" fill="white"/>
</g>
<defs>
<clipPath id="clip0_591_6490">
<rect width="40" height="40" fill="white"/>
</clipPath>
</defs>
</svg>
