<svg width="40" height="40" viewBox="0 0 40 40" fill="none" xmlns="http://www.w3.org/2000/svg">
<g clip-path="url(#clip0_591_6686)">
<path d="M0 20C0 21.1776 0 21.3084 0.0280636 22.3084C0.1029 24.5234 0.336763 27.0654 1.22544 29.7476C1.8522 31.6449 3.03087 33.6916 4.20954 34.9813C5.70629 36.6261 7.77361 37.9718 10.0094 38.7382C12.2919 39.5232 14.7615 39.9064 19.5603 40H20.449C25.2573 39.8971 27.7175 39.5232 30 38.7382C32.2357 37.9718 34.2937 36.6261 35.7904 34.9813C36.9693 33.6823 38.1479 31.6449 38.7746 29.7476C39.6632 27.0654 39.9064 24.514 39.9718 22.3084C40 21.3178 40 21.1776 40 20C40 18.8224 40 18.6916 39.9718 17.6916C39.8971 15.4766 39.6632 12.9346 38.7746 10.2523C38.1479 8.35514 36.9693 6.30839 35.7904 5.01868C34.2937 3.37383 32.2264 2.02804 30 1.26168C27.7175 0.476636 25.2479 0.0934579 20.449 0H19.5603C14.7521 0.102804 12.2919 0.476636 10.0094 1.26168C7.77361 2.02804 5.71561 3.37383 4.20954 5.01868C3.03087 6.31775 1.8522 8.35514 1.22544 10.2523C0.346118 12.9346 0.1029 15.4766 0.0280636 17.6916C0 18.6823 0 18.8224 0 20Z" fill="#003CDC"/>
<path d="M10.5872 20.4699H9.46995V15.711H10.5872V17.6035H11.8933V18.5503H10.5872V20.4699ZM6.96502 23.3091H9.47041V21.7412H6.96502V23.3091ZM5.85645 20.7943H10.5872V24.2464H5.85634L5.85645 20.7943ZM6.47841 18.433C6.32527 18.7845 6.07291 19.1537 5.75766 19.4877C5.43316 19.8388 5.03631 20.1455 4.63081 20.3888L3.92773 19.5687C4.43238 19.2802 4.91034 18.8833 5.27102 18.3785C5.63123 17.8829 5.85634 17.3063 5.85634 16.6574V15.9H7.02802V16.6393C7.02802 17.2793 7.26213 17.8198 7.61284 18.2616C7.96488 18.7214 8.44202 19.0639 8.91084 19.2891L8.27988 20.1454C7.41491 19.6764 6.84763 19.118 6.47841 18.433ZM18.0784 18.1986H16.5013V17.207H18.0784V15.7109H19.1957V20.5152H18.0784V18.1986ZM17.6458 21.7777C17.4391 21.5974 17.1687 21.4891 16.8443 21.4891C16.1951 21.4891 15.7447 21.9037 15.7447 22.5167C15.7447 23.1387 16.1951 23.5533 16.8443 23.5533C17.493 23.5533 17.9615 23.1387 17.9615 22.5167C17.9619 22.3785 17.9342 22.2417 17.8799 22.1146C17.8256 21.9875 17.7459 21.8729 17.6458 21.7777ZM18.4387 23.9587C18.0426 24.2922 17.4929 24.4906 16.8443 24.4906C16.1951 24.4906 15.6546 24.2922 15.2672 23.9587C14.8704 23.6072 14.6456 23.1205 14.6456 22.5167C14.6456 21.9399 14.8704 21.453 15.2672 21.1018C15.6546 20.7502 16.1951 20.5427 16.8443 20.5427C17.493 20.5427 18.0426 20.7502 18.4387 21.1018C18.826 21.453 19.0606 21.9399 19.0606 22.5167C19.0606 23.1206 18.826 23.6072 18.4387 23.9587ZM15.4293 19.4786C15.1136 19.1809 14.8704 18.8655 14.7263 18.577C14.5913 18.9014 14.3484 19.2529 14.0327 19.5864C13.7082 19.9203 13.3213 20.2628 12.8882 20.5242L12.1946 19.6855C12.7442 19.325 13.2398 18.9105 13.5736 18.433C13.9067 17.9645 14.1141 17.4235 14.1141 16.8105V15.8999H15.303V16.7926C15.303 17.4685 15.5196 17.9913 15.8708 18.415C16.2042 18.8476 16.682 19.172 17.1592 19.4153L16.5286 20.2897C16.1321 20.0735 15.7447 19.7938 15.4293 19.4786ZM22.3739 19.0726C22.3739 19.46 22.6803 19.7667 23.1755 19.7667C23.6801 19.7667 23.9778 19.46 23.9778 19.0725C23.9778 18.6853 23.6801 18.3694 23.1755 18.3694C22.6803 18.3694 22.3739 18.6853 22.3739 19.0726ZM22.0587 15.7468H24.2665V16.6841H22.0587V15.7468ZM22.6345 21.182V20.5867C21.7792 20.3978 21.3106 19.7938 21.3106 19.0726C21.3106 18.6761 21.5091 18.2888 21.8335 18.0092H20.7429V17.1169H25.5907V18.0093H24.5364C24.8607 18.2975 25.0502 18.6854 25.0502 19.0909C25.0502 19.8026 24.6176 20.3889 23.7617 20.5778V21.1278C24.5273 21.0829 25.2935 21.0285 26.0497 20.9475V15.7109H27.1587V18.5588H28.42V19.5053H27.1587V23.2728H26.0497V21.8489C24.2926 22.0468 22.4909 22.1823 20.6433 22.2363L20.5355 21.2268C21.2386 21.2268 21.9328 21.2088 22.6345 21.182ZM34.9802 19.0187H34.2956V22.9574H33.214V15.8192H34.2956V18.0721H34.9802V15.7109H36.0706V23.2638H34.9802V19.0187ZM31.9705 19.2076C32.25 19.7395 32.6554 20.1272 33.1511 20.4607L32.4842 21.317C32.1689 21.1005 31.8354 20.7851 31.574 20.4607C31.2949 20.1364 31.0788 19.7938 30.9981 19.5143C30.7458 20.3076 30.2043 20.9474 29.5199 21.4882L28.8257 20.6678C29.3667 20.1993 29.7722 19.7848 30.0332 19.2439C30.2855 18.7124 30.4119 18.0632 30.4119 17.1349H29.0961V16.1976H32.8175V17.1349H31.5292C31.5292 18.0093 31.6823 18.6761 31.9705 19.2076Z" fill="white"/>
</g>
<defs>
<clipPath id="clip0_591_6686">
<rect width="40" height="40" fill="white"/>
</clipPath>
</defs>
</svg>
