<svg width="40" height="40" viewBox="0 0 40 40" fill="none" xmlns="http://www.w3.org/2000/svg">
<g clip-path="url(#clip0_591_6677)">
<path d="M0 20C0 21.17 0 21.31 0.03 22.31C0.06 24.83 0.47 27.34 1.23 29.75C1.88 31.67 2.89 33.45 4.21 34.98C5.8 36.69 7.79 37.98 10 38.74C12.28 39.53 14.75 39.9 19.55 40H20.44C25.24 39.9 27.71 39.52 29.99 38.74C32.2 37.98 34.19 36.69 35.78 34.98C37.1 33.45 38.12 31.67 38.76 29.75C39.52 27.34 39.93 24.84 39.96 22.31C39.99 21.32 39.99 21.18 39.99 20C39.99 18.82 39.99 18.69 39.96 17.7C39.93 15.17 39.52 12.67 38.76 10.26C38.11 8.34 37.1 6.56 35.78 5.02C34.19 3.31 32.2 2.02 29.99 1.26C27.71 0.47 25.24 0.1 20.44 0H19.55C14.75 0.1 12.28 0.48 10 1.26C7.79 2.02 5.8 3.31 4.21 5.02C2.89 6.56 1.87 8.33 1.23 10.26C0.47 12.66 0.07 15.17 0.03 17.69C0 18.68 0 18.82 0 20Z" fill="#1D8097"/>
<path d="M19.6297 29.3591H10.9797V15.6091C10.8497 13.7291 11.8897 11.9691 13.5997 11.1791C14.6497 10.6891 15.7997 10.4491 16.9497 10.5091V13.1091C16.1797 13.0491 15.4097 13.1991 14.7197 13.5191C13.9897 13.8591 13.5297 14.6091 13.5697 15.4191V15.5491V26.7591H17.0097V21.609H22.4997V24.2091H19.6097V29.3591H19.6297Z" fill="white"/>
<path d="M22.5503 29.4862H22.5103V26.8862H22.5503C26.0203 26.8862 26.3703 24.5262 26.4103 24.0562C26.5803 22.8862 26.3203 21.6962 25.7003 20.6962L25.0303 19.9263L25.6303 19.0863C25.8703 18.5963 25.9803 18.0663 25.9703 17.5263V13.2562H22.5303V18.3663H17.0703V15.7662H19.9203V10.6562H28.5703V17.4963C28.5703 18.2663 28.4503 19.0363 28.1803 19.7662C28.8803 21.1462 29.1703 22.7063 29.0103 24.2463C28.9103 26.0463 27.4403 29.4963 22.5603 29.4963" fill="white"/>
</g>
<defs>
<clipPath id="clip0_591_6677">
<rect width="40" height="40" fill="white"/>
</clipPath>
</defs>
</svg>
