<svg width="40" height="40" viewBox="0 0 40 40" fill="none" xmlns="http://www.w3.org/2000/svg">
<g clip-path="url(#clip0_588_19405)">
<path d="M0 20.0003C0 21.1778 0 21.3089 0.0375 22.3089C0.102857 24.5239 0.346071 27.0661 1.23464 29.7482C1.86143 31.6453 3.03964 33.6921 4.21821 34.9818C5.71464 36.6268 7.78143 37.9725 10.0071 38.7389C12.2893 39.5239 14.7582 39.9071 19.5557 40.0007H20.4443C25.2514 39.8979 27.7111 39.5239 29.9929 38.7389C32.2282 37.9725 34.2857 36.6268 35.7914 34.9818C36.97 33.6828 38.1482 31.6453 38.775 29.7482C39.6636 27.0661 39.9068 24.5146 39.9721 22.3089C40.0004 21.3182 40.0004 21.1782 40.0004 20.0003C40.0004 18.8225 40.0004 18.6825 39.9721 17.6918C39.8975 15.4768 39.6636 12.9346 38.775 10.2525C38.1486 8.35535 36.97 6.30856 35.7914 5.01892C34.295 3.37393 32.2282 2.02821 29.9929 1.26178C27.7107 0.476785 25.2418 0.0935713 20.4443 0H19.5557C14.7486 0.102857 12.2889 0.476785 10.0071 1.26178C7.77179 2.02821 5.71429 3.37393 4.21821 5.01892C3.03964 6.31785 1.86143 8.35535 1.23464 10.2525C0.346071 12.935 0.102857 15.4771 0.0375 17.6918C0 18.6825 0 18.8225 0 20.0003Z" fill="#0C7DCA"/>
<path d="M15.6645 23.9263H9.66734C9.64734 23.8149 9.61734 23.6935 9.60734 23.5617C9.57734 21.0913 9.54734 18.621 9.52734 16.1506C9.52734 15.9481 9.57734 15.6749 9.7077 15.5431C11.6402 13.5485 13.5823 11.5742 15.6548 9.64062V23.9263H15.6645Z" fill="white"/>
<path d="M10.0448 24.4453H23.8112V30.4114C23.6834 30.4214 23.5459 30.451 23.3984 30.451C20.9991 30.461 18.5998 30.481 16.1909 30.471C15.9648 30.471 15.6698 30.3717 15.5123 30.2125C13.6637 28.2835 11.8248 26.3346 10.0352 24.4453" fill="white"/>
<path d="M16.2383 15.558V9.53233H19.3454C20.8401 9.53233 22.3347 9.51233 23.839 9.53233C24.0651 9.53233 24.3504 9.63161 24.5176 9.7809C26.4154 11.6402 28.2936 13.5195 30.1715 15.3891C30.1911 15.4091 30.1911 15.4488 30.2208 15.548H16.2383V15.558Z" fill="white"/>
<path d="M24.358 30.3851V16.1094H30.4284C30.4284 16.1904 30.4484 16.3022 30.4484 16.4037C30.4584 18.8794 30.4784 21.3651 30.4784 23.8408C30.4784 24.0944 30.368 24.409 30.1873 24.5915C28.3109 26.5194 26.4148 28.4369 24.5284 30.3544C24.5084 30.3747 24.458 30.3644 24.3477 30.3951" fill="white"/>
</g>
<defs>
<clipPath id="clip0_588_19405">
<rect width="40" height="40" fill="white"/>
</clipPath>
</defs>
</svg>
