<svg width="40" height="40" viewBox="0 0 40 40" fill="none" xmlns="http://www.w3.org/2000/svg">
<g clip-path="url(#clip0_588_19378)">
<path d="M0 20.1562C0 21.3338 0 21.4646 0.028057 22.4646C0.102876 24.6796 0.336685 27.2217 1.22516 29.9039C1.85176 31.8011 3.03016 33.8478 4.20857 35.1376C5.70493 36.7823 7.77179 38.128 10.007 38.8944C12.289 39.6794 14.758 40.0626 19.5557 40.1562H20.4443C25.2514 40.0534 27.711 39.6794 29.993 38.8944C32.2282 38.128 34.2857 36.7823 35.7914 35.1376C36.97 33.8385 38.1482 31.8011 38.775 29.9039C39.6632 27.2217 39.9064 24.6702 39.9718 22.4646C40 21.474 40 21.3338 40 20.1562C40 18.9787 40 18.8385 39.9718 17.8478C39.8971 15.6329 39.6632 13.0908 38.775 10.4086C38.1482 8.51139 36.97 6.46464 35.7914 5.17493C34.2951 3.53008 32.2282 2.18428 29.993 1.41793C27.711 0.632884 25.242 0.249708 20.4443 0.15625H19.5557C14.7486 0.259054 12.289 0.632884 10.007 1.41793C7.77179 2.18428 5.71429 3.53008 4.20857 5.17493C3.03016 6.474 1.85176 8.51139 1.22516 10.4086C0.346037 13.0908 0.102876 15.6329 0.028057 17.8478C0 18.8385 0 18.9787 0 20.1562Z" fill="#A30236"/>
<path d="M31.4294 20.156C31.4294 13.8437 26.3131 8.72656 20.0001 8.72656C13.6886 8.72656 8.57227 13.8437 8.57227 20.156C8.57227 26.4659 13.6886 31.5853 20.0001 31.5853C26.3131 31.5853 31.4294 26.4659 31.4294 20.156ZM18.6842 15.492H17.2718C15.7667 15.492 14.5466 16.7105 14.5466 18.218V22.0939C14.5466 23.6005 15.7667 24.8191 17.2718 24.8191H18.6842V29.0275C14.3535 28.3883 11.0327 24.661 11.0327 20.156C11.0327 15.6508 14.3535 11.9228 18.6842 11.2836V15.492ZM22.7244 17.9563C22.8732 17.9563 22.9899 18.0762 22.9899 18.2203V22.0908C22.9899 22.2348 22.8732 22.354 22.7244 22.354H17.2757C17.1285 22.354 17.0125 22.2348 17.0125 22.0908V18.2203C17.0125 18.0762 17.1285 17.9563 17.2757 17.9563H22.7244ZM28.9674 20.156C28.9674 24.661 25.6466 28.3883 21.3198 29.0275V24.8191H22.7291C24.2334 24.8191 25.4558 23.6005 25.4558 22.0939V18.218C25.4558 16.7105 24.2334 15.492 22.7291 15.492H21.3198V11.2836C25.6466 11.9228 28.9674 15.6508 28.9674 20.156Z" fill="white"/>
</g>
<defs>
<clipPath id="clip0_588_19378">
<rect width="40" height="40" fill="white"/>
</clipPath>
</defs>
</svg>
