<svg width="40" height="40" viewBox="0 0 40 40" fill="none" xmlns="http://www.w3.org/2000/svg">
<g clip-path="url(#clip0_588_19311)">
<path d="M0 20.0031C0 21.1804 0 21.3113 0.0280505 22.311C0.102852 24.5254 0.336606 27.0669 1.22487 29.7485C1.85133 31.6453 3.02945 33.6915 4.20757 34.9809C5.70361 36.6255 7.77 37.9709 10.0047 38.737C12.2861 39.522 14.7546 39.9052 19.5512 39.9984H20.4395C25.2454 39.8955 27.7045 39.522 29.986 38.737C32.2207 37.9709 34.2777 36.6255 35.7832 34.9809C36.9611 33.6822 38.1393 31.6453 38.7657 29.7485C39.6539 27.0669 39.8971 24.5161 39.9625 22.311C39.9907 21.3206 39.9907 21.1804 39.9907 20.0031C39.9907 18.8259 39.9907 18.695 39.9625 17.6953C39.8879 15.4808 39.6539 12.9394 38.7657 10.2578C38.1393 8.361 36.9611 6.31475 35.7832 5.02532C34.287 3.38086 32.2207 2.03538 29.986 1.2692C27.7045 0.484335 25.2361 0.101248 20.4395 0.0078125H19.5512C14.7452 0.110592 12.2861 0.484335 10.0047 1.2692C7.77 2.03538 5.71296 3.38086 4.20757 5.02532C3.02945 6.32411 1.85133 8.361 1.22487 10.2578C0.345956 12.9394 0.102852 15.4808 0.0280505 17.6953C0 18.6857 0 18.8259 0 20.0031Z" fill="#B19C52"/>
<path d="M29.2291 21.7618C28.2244 24.2642 26.5264 24.965 26.5264 24.965C31.5098 19.9399 28.4655 14.1441 28.4655 14.1441C27.7321 12.8429 28.6664 12.2823 28.6664 12.2823C26.5264 12.8128 27.1996 14.5846 27.1996 14.5846C28.2746 17.1371 28.0536 19.2092 27.6919 20.4905L26.9886 20.1001V20.0801C26.9886 20.0801 28.6664 13.5235 21.8646 11.2312V10H20.4178V18.1281L27.0991 21.9219C26.9786 22.1722 26.8479 22.4024 26.7173 22.6226L20.0059 18.7487L13.2643 22.6226C13.1337 22.4024 13.0031 22.1722 12.8825 21.9219L19.5638 18.1281V10H18.1271V11.2312C11.3151 13.5235 12.9829 20.0801 12.9829 20.0801V20.1001L12.2897 20.4905C11.928 19.2092 11.7069 17.1371 12.782 14.5846C12.782 14.5846 13.4552 12.8228 11.3151 12.2823C11.3151 12.2823 12.2495 12.8529 11.5161 14.1441C11.5161 14.1441 8.4718 19.9399 13.4552 24.965C13.4552 24.965 11.7572 24.2642 10.7525 21.7618C10.7525 21.7618 10.1798 20.5405 8.57227 20.8108L9.5368 22.1922C9.5368 22.1922 10.9836 26.7768 16.5597 27.4675V30H19.3026V26.2763C19.3026 26.2763 16.3989 26.2563 14.1786 23.8138L14.8618 23.4134C14.9924 23.5335 17.1023 25.4755 19.9757 25.5355H19.9958H20.0159C22.8894 25.4855 25.0093 23.5335 25.1399 23.4134L25.8231 23.8138C23.6027 26.2463 20.6991 26.2763 20.6991 26.2763V30H23.442V27.4675C29.0181 26.7668 30.4649 22.1922 30.4649 22.1922C30.8166 21.0911 31.4294 20.8108 31.4294 20.8108C29.8219 20.5405 29.2492 21.7618 29.2492 21.7618M25.6825 19.3393L21.9148 17.2373L21.8947 12.7427H21.9148C21.9148 12.7427 26.4561 13.974 25.6925 19.3393M18.117 12.7427H18.1371L18.117 17.2373L14.3493 19.3393C13.5757 13.974 18.1271 12.7427 18.1271 12.7427M23.7936 22.6126L23.7635 22.5926C22.4172 23.6536 21.1412 23.994 20.0259 23.994C18.9107 23.994 17.6347 23.6436 16.2884 22.5926L16.2583 22.6126L20.036 20.4104L23.7936 22.6026V22.6126Z" fill="white"/>
</g>
<defs>
<clipPath id="clip0_588_19311">
<rect width="40" height="40" fill="white"/>
</clipPath>
</defs>
</svg>
