<svg width="40" height="40" viewBox="0 0 40 40" fill="none" xmlns="http://www.w3.org/2000/svg">
<g clip-path="url(#clip0_588_19248)">
<path d="M0 20C0 21.1776 0 21.3084 0.0280636 22.3084C0.1029 24.5234 0.336763 27.0654 1.22544 29.7477C1.8522 31.6449 3.03087 33.6916 4.20954 34.9813C5.70629 36.6261 7.77361 37.9718 10.0094 38.7382C12.2919 39.5232 14.7615 39.9064 19.5603 40H20.449C25.2573 39.8971 27.7175 39.5232 30 38.7382C32.2358 37.9718 34.2938 36.6261 35.7904 34.9813C36.9693 33.6823 38.1479 31.6449 38.7746 29.7477C39.6632 27.0654 39.9064 24.514 39.9718 22.3084C40 21.3178 40 21.1776 40 20C40 18.8224 40 18.6916 39.9718 17.6916C39.8971 15.4766 39.6632 12.9346 38.7746 10.2523C38.1479 8.35514 36.9693 6.30839 35.7904 5.01868C34.2938 3.37383 32.2264 2.02804 30 1.26168C27.7175 0.476636 25.2479 0.0934579 20.449 0H19.5603C14.7521 0.102804 12.2919 0.476636 10.0094 1.26168C7.77361 2.02804 5.71561 3.37383 4.20954 5.01868C3.03087 6.31775 1.8522 8.35514 1.22544 10.2523C0.346118 12.9346 0.1029 15.4766 0.0280636 17.6916C0 18.6823 0 18.8224 0 20Z" fill="#0E0060"/>
<path d="M9.48008 16.2031L6.68197 19.5431V16.2031H5.26758V23.49H6.68197V20.1412L9.57258 23.49H11.3444L8.19944 19.8487L11.2519 16.2031H9.48008Z" fill="white"/>
<mask id="mask0_588_19248" style="mask-type:luminance" maskUnits="userSpaceOnUse" x="5" y="16" width="30" height="8">
<path d="M34.6426 16.1562H5.26758V23.6562H34.6426V16.1562Z" fill="white"/>
</mask>
<g mask="url(#mask0_588_19248)">
<path d="M14.7349 18.2641C14.1688 18.2792 13.628 18.5016 13.2149 18.8891V16.1953H11.8006V20.9953C11.7813 21.3518 11.8379 21.7083 11.9666 22.0413C12.0953 22.3743 12.2932 22.6762 12.5472 22.9271C12.8012 23.178 13.1055 23.3721 13.4401 23.4966C13.7746 23.6212 14.1318 23.6734 14.4881 23.6497C14.8446 23.6651 15.2005 23.6064 15.5332 23.4771C15.8658 23.3479 16.1681 23.151 16.4207 22.8989C16.6733 22.6468 16.8709 22.345 17.0008 22.0126C17.1307 21.6802 17.1902 21.3244 17.1756 20.9678C17.1756 19.4872 16.2212 18.2647 14.7381 18.2647M14.4881 22.3366C14.1332 22.3325 13.794 22.19 13.5428 21.9395C13.2915 21.6889 13.1481 21.3501 13.1431 20.9953C13.1431 20.9828 13.1431 20.9697 13.1431 20.9566C13.143 20.8037 13.1679 20.652 13.2168 20.5072C13.3044 20.2384 13.4742 20.004 13.7024 19.8371C13.9305 19.6702 14.2054 19.5793 14.4881 19.5772C14.8487 19.5848 15.192 19.7335 15.4444 19.9913C15.6967 20.2491 15.8381 20.5955 15.8381 20.9562C15.8381 21.317 15.6967 21.6634 15.4444 21.9212C15.192 22.179 14.8487 22.3276 14.4881 22.3353" fill="white"/>
<path d="M27.1706 18.2662C26.5646 18.2603 25.9799 18.4895 25.5394 18.9056V18.425H24.125V23.4875H25.5394V20.6494C25.5394 20.3727 25.6492 20.1074 25.8449 19.9118C26.0405 19.7161 26.3058 19.6062 26.5825 19.6062C26.8591 19.6062 27.1245 19.7161 27.3201 19.9118C27.5157 20.1074 27.6256 20.3727 27.6256 20.6494V23.4875H29.0487V20.2437C29.0487 20.2244 29.0487 20.2044 29.0487 20.185C29.0516 19.6821 28.8559 19.1983 28.5041 18.8389C28.1523 18.4796 27.6729 18.2735 27.17 18.2656" fill="white"/>
<path d="M20.5569 18.2721C20.1986 18.2548 19.8406 18.3121 19.5056 18.4403C19.1705 18.5686 18.8657 18.7649 18.6105 19.017C18.3552 19.2691 18.1551 19.5714 18.0227 19.9048C17.8903 20.2382 17.8285 20.5955 17.8413 20.954C17.8152 21.2956 17.8592 21.639 17.9707 21.963C18.0822 22.287 18.2588 22.5848 18.4896 22.8381C18.7204 23.0913 19.0006 23.2947 19.3129 23.4356C19.6252 23.5766 19.9631 23.6522 20.3057 23.6577C20.6346 23.651 20.9575 23.5693 21.25 23.4187C21.5424 23.2681 21.7966 23.0527 21.9932 22.789V23.489H23.2726V20.9552H23.2607L23.2719 20.9265C23.2894 20.568 23.2306 20.21 23.0994 19.8759C22.9683 19.5418 22.7678 19.2393 22.5111 18.9885C22.2545 18.7376 21.9475 18.5441 21.6106 18.4206C21.2736 18.2971 20.9143 18.2465 20.5563 18.2721M20.5857 22.3346C20.3115 22.3415 20.0415 22.2664 19.8102 22.119C19.5789 21.9717 19.3967 21.7587 19.2871 21.5073C19.1773 21.256 19.1451 20.9776 19.1944 20.7078C19.2437 20.438 19.3722 20.189 19.5637 19.9927C19.7552 19.7963 20.0008 19.6615 20.2693 19.6054C20.5378 19.5493 20.8168 19.5746 21.0709 19.6779C21.325 19.7812 21.5424 19.9579 21.6956 20.1855C21.8487 20.413 21.9306 20.681 21.9307 20.9552C21.9347 21.3161 21.7954 21.6637 21.5433 21.922C21.2913 22.1802 20.9471 22.328 20.5863 22.3327" fill="white"/>
<path d="M34.6443 23.42L32.5262 20.9062L34.5819 18.3956H33.06L31.2693 20.57V16.1562H29.8594V23.42H31.2693V21.2406L33.0943 23.4206L34.6443 23.42Z" fill="white"/>
</g>
</g>
<defs>
<clipPath id="clip0_588_19248">
<rect width="40" height="40" fill="white"/>
</clipPath>
</defs>
</svg>
