<svg width="40" height="40" viewBox="0 0 40 40" fill="none" xmlns="http://www.w3.org/2000/svg">
<g clip-path="url(#clip0_588_19383)">
<path d="M0 20.0003C0 21.1778 0 21.3089 0.0375 22.3089C0.102857 24.5239 0.346071 27.0661 1.23464 29.7482C1.86143 31.6453 3.03964 33.6921 4.21821 34.9818C5.71464 36.6268 7.78143 37.9725 10.0071 38.7389C12.2893 39.5239 14.7582 39.9071 19.5557 40.0007H20.4443C25.2514 39.8979 27.7111 39.5239 29.9929 38.7389C32.2282 37.9725 34.2857 36.6268 35.7914 34.9818C36.97 33.6828 38.1482 31.6453 38.775 29.7482C39.6636 27.0661 39.9068 24.5146 39.9721 22.3089C40.0004 21.3182 40.0004 21.1782 40.0004 20.0003C40.0004 18.8225 40.0004 18.6825 39.9721 17.6918C39.8975 15.4768 39.6636 12.9346 38.775 10.2525C38.1486 8.35535 36.97 6.30856 35.7914 5.01892C34.295 3.37393 32.2282 2.02821 29.9929 1.26178C27.7107 0.476785 25.2418 0.0935713 20.4443 0H19.5557C14.7486 0.102857 12.2889 0.476785 10.0071 1.26178C7.77179 2.02821 5.71429 3.37393 4.21821 5.01892C3.03964 6.31785 1.86143 8.35535 1.23464 10.2525C0.346071 12.935 0.102857 15.4771 0.0375 17.6918C0 18.6825 0 18.8225 0 20.0003Z" fill="#266798"/>
<path d="M8.92773 21.0647V20.189C8.92773 20.189 8.94991 20.1343 8.94991 20.1124C8.99423 19.7074 9.01638 19.3024 9.08288 18.8974C9.24913 17.8028 9.60377 16.763 10.1025 15.7778C10.4128 15.1648 10.7785 14.5957 11.1997 14.0593C11.5986 13.5449 12.0419 13.0742 12.5296 12.6364C13.2278 12.0125 13.9814 11.4871 14.8126 11.0492C15.3888 10.7537 15.9984 10.502 16.619 10.3049C17.4945 10.0313 18.3922 9.87803 19.301 9.83424C19.8551 9.81235 20.4092 9.84521 20.9523 9.99842C21.584 10.1736 22.127 10.502 22.5814 10.9726C23.2464 11.6841 23.9224 12.3737 24.5873 13.0742C25.0417 13.5449 25.485 14.0156 25.9394 14.4862C26.6819 15.2634 27.4245 16.0296 28.167 16.8067C28.3776 17.0256 28.5992 17.2555 28.8098 17.4744C27.8567 18.4486 26.9147 19.4009 25.9505 20.397C23.9224 18.3829 21.9054 16.3908 19.8994 14.3986C17.7938 16.4784 15.6881 18.5581 13.6046 20.6049C15.6992 22.6846 17.8048 24.7644 19.9216 26.855C19.9438 26.8331 19.9659 26.7893 19.9992 26.7565C22.0384 24.7425 24.0776 22.7284 26.1167 20.7144C26.1832 20.6487 26.2497 20.6159 26.3495 20.6159C27.7902 20.6159 29.2309 20.6159 30.6717 20.6159H30.8379C30.8268 20.8786 30.8379 21.1194 30.8047 21.3602C30.7492 21.8637 30.6938 22.3672 30.5941 22.8707C30.3613 23.9762 29.9513 25.027 29.3639 26.0122C28.8098 26.9426 28.1338 27.7854 27.3358 28.5187C26.6376 29.1536 25.8729 29.7009 25.0417 30.1497C24.2106 30.5875 23.3461 30.9269 22.4373 31.1239C21.9164 31.2333 21.3845 31.299 20.8525 31.3756C20.7196 31.3975 20.5866 31.4085 20.4425 31.4304H19.3342C19.3342 31.4304 19.2567 31.4085 19.2234 31.4085C18.9796 31.3866 18.7358 31.3866 18.5031 31.3537C17.694 31.2443 16.9072 31.0582 16.1424 30.7845C15.1339 30.4233 14.1919 29.9198 13.3386 29.285C12.3633 28.5625 11.5321 27.7088 10.845 26.7127C10.2466 25.848 9.78109 24.9066 9.44863 23.9106C9.16048 23.013 8.98316 22.0936 8.94991 21.1413C8.94991 21.1085 8.92773 21.0866 8.92773 21.0537" fill="white"/>
<path d="M31.0711 15.2164C30.4727 15.8075 29.8964 16.3986 29.2979 17.0006C29.1428 16.8364 28.9876 16.6832 28.8435 16.5299C28.4778 16.1469 28.1121 15.7637 27.7464 15.3806C27.0703 14.6691 26.3832 13.9577 25.7072 13.2462C25.3193 12.8412 24.9425 12.4362 24.5546 12.0312C24.0891 11.5386 23.6237 11.057 23.1582 10.5645C22.7814 10.1595 22.327 9.87489 21.8172 9.65596C21.1855 9.39328 20.5316 9.26193 19.8445 9.26193C19.6672 9.26193 19.4899 9.28382 19.2793 9.30571C19.3569 9.24003 19.4123 9.19625 19.4677 9.15246C19.8445 8.90071 20.2657 8.78028 20.6979 8.69275C21.1744 8.59421 21.662 8.56139 22.1497 8.57232C23.1028 8.59421 24.0337 8.76935 24.8982 9.20718C25.3969 9.45893 25.8069 9.8311 26.1837 10.2251C26.6713 10.7396 27.17 11.2431 27.6688 11.7466C28.3559 12.4581 29.0541 13.1586 29.7412 13.8701C30.1513 14.286 30.5613 14.7129 30.9714 15.1289C30.9935 15.1508 31.0157 15.1836 31.0489 15.2164" fill="white"/>
</g>
<defs>
<clipPath id="clip0_588_19383">
<rect width="40" height="40" fill="white"/>
</clipPath>
</defs>
</svg>
