<svg width="40" height="40" viewBox="0 0 40 40" fill="none" xmlns="http://www.w3.org/2000/svg">
<g clip-path="url(#clip0_588_19397)">
<path d="M0 20C0 21.1776 0 21.3084 0.028057 22.3084C0.102876 24.5234 0.336685 27.0654 1.22516 29.7476C1.85176 31.6449 3.03016 33.6916 4.20857 34.9813C5.70493 36.6261 7.77179 37.9718 10.007 38.7382C12.289 39.5232 14.758 39.9064 19.5557 40H20.4443C25.2514 39.8971 27.711 39.5232 29.993 38.7382C32.2282 37.9718 34.2857 36.6261 35.7914 34.9813C36.97 33.6823 38.1482 31.6449 38.775 29.7476C39.6632 27.0654 39.9064 24.514 39.9718 22.3084C40 21.3178 40 21.1776 40 20C40 18.8224 40 18.6823 39.9718 17.6916C39.8971 15.4766 39.6632 12.9346 38.775 10.2523C38.1482 8.35514 36.97 6.30839 35.7914 5.01868C34.2951 3.37383 32.2282 2.02804 29.993 1.26168C27.711 0.476636 25.242 0.0934579 20.4443 0H19.5557C14.7486 0.102804 12.289 0.476636 10.007 1.26168C7.77179 2.02804 5.71429 3.37383 4.20857 5.01868C3.03016 6.31775 1.85176 8.35514 1.22516 10.2523C0.346037 12.9346 0.102876 15.4766 0.028057 17.6916C0 18.6823 0 18.8224 0 20Z" fill="#ED3423"/>
<path d="M13.8682 13.5703C15.905 15.6636 17.9841 17.81 20.0103 19.8926C22.132 17.7781 24.243 15.6636 26.3328 13.5703H13.8682ZM26.248 26.4275C24.19 24.3661 22.0895 22.2728 19.9785 20.1583C17.9523 22.2197 15.8731 24.3236 13.8045 26.4275H26.248ZM26.6829 26.2787C26.6829 26.2787 26.7465 26.3212 26.7784 26.3425C28.8258 24.2386 30.8838 22.124 32.8569 20.0945C30.8519 18.0331 28.7939 15.9186 26.6935 13.751V26.2787H26.6829ZM7.14258 20.0308C9.26422 22.124 11.3434 24.1748 13.4651 26.2681V13.7935C11.3328 15.8973 9.25361 17.9481 7.14258 20.0414" fill="white"/>
<path d="M13.8691 13.5703H26.3338C24.244 15.6636 22.1329 17.7675 20.0113 19.8926C17.9851 17.81 15.9059 15.6636 13.8691 13.5703Z" fill="white"/>
<path d="M26.2481 26.4255H13.8047C15.8733 24.3215 17.9525 22.2176 19.9787 20.1562C22.0897 22.2708 24.1901 24.3641 26.2481 26.4255Z" fill="white"/>
<path d="M26.6825 26.2778V13.75C28.7935 15.9176 30.8409 18.0322 32.8458 20.0936C30.8727 22.1231 28.8253 24.227 26.7673 26.3415C26.7355 26.3202 26.7037 26.299 26.6719 26.2778" fill="white"/>
<path d="M7.14258 20.0292C9.25361 17.9465 11.3434 15.8851 13.4651 13.7812V26.2665C11.3434 24.1732 9.25361 22.1118 7.14258 20.0292Z" fill="white"/>
</g>
<defs>
<clipPath id="clip0_588_19397">
<rect width="40" height="40" fill="white"/>
</clipPath>
</defs>
</svg>
