<svg width="40" height="40" viewBox="0 0 40 40" fill="none" xmlns="http://www.w3.org/2000/svg">
<g clip-path="url(#clip0_588_19226)">
<path d="M0 20.0031C0 21.1804 0 21.3112 0.0374007 22.311C0.102852 24.5255 0.345956 27.0669 1.23422 29.7485C1.86068 31.6453 3.0388 33.6915 4.21693 34.981C5.71296 36.6252 7.77932 37.971 10.0047 38.737C12.2861 39.522 14.7546 39.9049 19.5512 39.9985H20.4395C25.2454 39.8956 27.7045 39.522 29.986 38.737C32.2207 37.971 34.2777 36.6252 35.7832 34.981C36.9611 33.6822 38.1393 31.6453 38.7657 29.7485C39.6539 27.0669 39.8971 24.5161 39.9625 22.311C39.9907 21.3206 39.9907 21.1804 39.9907 20.0031C39.9907 18.8259 39.9907 18.695 39.9625 17.6953C39.8879 15.4808 39.6539 12.9394 38.7657 10.2577C38.1393 8.361 36.9611 6.31475 35.7832 5.02532C34.287 3.38086 32.2207 2.03538 29.986 1.2692C27.7045 0.484336 25.2361 0.110592 20.4395 0.0078125H19.5512C14.7452 0.110592 12.2861 0.484336 10.0047 1.2692C7.77 2.03538 5.71296 3.38086 4.21693 5.02532C3.0388 6.3241 1.86068 8.361 1.23422 10.2577C0.345956 12.9394 0.102852 15.4808 0.0374007 17.6953C0 18.6857 0 18.8259 0 20.0031Z" fill="#0473EA"/>
<path d="M17.0085 30.8978C16.3913 31.2622 15.8397 31.4771 15.2506 31.4771C13.7359 31.4771 12.4736 30.2438 12.4082 28.7488L15.3535 26.9922L19.9351 29.0384L17.0178 30.8885L17.0085 30.8978Z" fill="white"/>
<path d="M18.756 23.3632L16.568 22.4008C15.5956 21.9616 14.6699 21.5972 14.6699 20.5227C14.6699 19.9621 14.8382 19.6725 15.1094 19.3828L19.7377 21.4197L18.597 22.0831C18.2791 22.2793 18.0547 22.4475 18.0547 22.6905C18.0547 22.9521 18.3539 23.1763 18.7653 23.3632" fill="white"/>
<path d="M20.9066 13.277L18.6626 14.6318C18.4569 14.7533 18.195 14.9496 18.195 15.2392C18.195 15.5849 18.7187 15.8372 19.1768 16.0614L16.3718 14.8281C15.549 14.4637 14.7168 14.0526 14.7168 13.0528C14.7168 12.6323 14.8384 12.2959 15.0347 12.0063L21.103 8.29688C21.8323 8.70802 22.5335 9.53959 22.5335 10.6608C22.5335 11.8568 21.9258 12.6603 20.9066 13.277Z" fill="white"/>
<path d="M25.6752 17.6583L25.1142 17.976L20.4766 15.9298L25.8622 12.6875C26.5916 13.108 27.3022 13.9302 27.3022 15.0515C27.3022 16.2474 26.7131 17.0697 25.6659 17.6583" fill="white"/>
<path d="M21.7577 21.5938L24.4974 22.7991C25.5259 23.2569 25.8438 23.7989 25.8438 24.4809C25.8438 24.8734 25.6287 25.2565 25.3108 25.5274L20.7012 23.4812L21.4772 23.042C22.1411 22.6776 22.3562 22.4534 22.3562 22.2198C22.3562 21.9862 22.2066 21.7993 21.7577 21.6031" fill="white"/>
<path d="M26.6488 31.6977C25.48 30.8007 24.2364 30.1933 22.7217 29.5019L15.7372 26.4092C13.9793 25.6243 12.8105 24.5872 12.8105 22.8306C12.8105 21.074 13.6334 20.2985 14.7086 19.6257L15.092 19.3828C14.8208 19.6725 14.6525 19.9621 14.6525 20.5227C14.6525 21.5972 15.5782 21.9616 16.5506 22.4008L24.6853 25.9887C26.0971 26.5961 27.3968 27.6332 27.3968 29.4178C27.3968 30.3989 27.0322 31.2679 26.6394 31.707" fill="white"/>
<path d="M25.8248 25.1947L25.3199 25.5124C25.6378 25.2414 25.8529 24.8583 25.8529 24.4659C25.8529 23.7838 25.5349 23.2419 24.5064 22.784L15.8108 18.9532C14.0529 18.1777 12.959 17.1779 12.959 15.4307C12.959 13.8235 13.7631 12.7677 15.0254 11.9922C14.829 12.2818 14.7075 12.6182 14.7075 13.0387C14.7075 14.0384 15.5396 14.4495 16.3624 14.814L24.815 18.542C26.3484 19.2242 27.6013 20.2519 27.6013 22.1207C27.6013 23.5876 26.9188 24.5126 25.8248 25.1854" fill="white"/>
</g>
<defs>
<clipPath id="clip0_588_19226">
<rect width="40" height="40" fill="white"/>
</clipPath>
</defs>
</svg>
