<svg width="40" height="40" viewBox="0 0 40 40" fill="none" xmlns="http://www.w3.org/2000/svg">
<g clip-path="url(#clip0_588_19302)">
<path d="M0 20C0 21.1776 0 21.3084 0.0280636 22.3084C0.1029 24.5234 0.336763 27.0654 1.22544 29.7476C1.8522 31.6449 3.03087 33.6916 4.20954 34.9813C5.70625 36.6261 7.77361 37.9718 10.0094 38.7382C12.2919 39.5232 14.7615 39.9064 19.5603 40H20.449C25.2573 39.8971 27.7175 39.5232 30 38.7382C32.2358 37.9718 34.2937 36.6261 35.7904 34.9813C36.9693 33.6823 38.1479 31.6449 38.7746 29.7476C39.6632 27.0654 39.9064 24.514 39.9718 22.3084C40 21.3178 40 21.1776 40 20C40 18.8224 40 18.6916 39.9718 17.6916C39.8971 15.4766 39.6632 12.9346 38.7746 10.2523C38.1479 8.35514 36.9693 6.30839 35.7904 5.01868C34.2937 3.37383 32.2264 2.02804 30 1.26168C27.7175 0.476636 25.2479 0.0934579 20.449 0H19.5603C14.7521 0.102804 12.2919 0.476636 10.0094 1.26168C7.77361 2.02804 5.71561 3.37383 4.20954 5.01868C3.03087 6.31775 1.8522 8.35514 1.22544 10.2523C0.346118 12.9346 0.1029 15.4766 0.0280636 17.6916C0 18.6823 0 18.8224 0 20Z" fill="#0072BB"/>
<path fill-rule="evenodd" clip-rule="evenodd" d="M36.4294 20.91V20.8705C36.4294 20.8259 36.4291 20.7814 36.4283 20.7369C36.4291 20.7957 36.4291 20.8533 36.4294 20.91ZM3.5988 21.5243C3.58119 21.308 3.57227 21.09 3.57227 20.8705C3.57227 20.7392 3.57544 20.6084 3.5818 20.4781C3.69152 20.1846 4.6028 18.2994 9.93737 17.8781C9.93737 17.8781 12.617 17.7134 15.2992 18.1994C15.2992 18.1994 10.5883 16.2585 15.0466 13.9737C15.0466 13.9737 18.7308 11.855 26.2002 13.3785C26.2002 13.3785 27.0646 13.703 26.2002 14.0467C26.2002 14.0467 23.1196 14.622 22.3771 16.3777C22.3771 16.3777 21.9806 17.3428 22.8178 18.1502C22.8178 18.1502 23.4719 18.6387 22.3481 18.6156C22.3481 18.6156 17.4964 17.8781 13.8785 19.9713C13.8785 19.9713 11.2677 21.3564 13.3223 23.2044C13.3223 23.2044 14.1159 23.711 13.0874 23.8495C13.0874 23.8495 5.71334 24.8184 3.63605 21.5885L3.5988 21.5243ZM19.807 9.46172C19.8674 9.46126 19.9279 9.46104 19.9885 9.46104C20.1332 9.46104 20.2774 9.46222 20.4211 9.46462C20.2814 9.46215 20.1413 9.46094 20.0008 9.46094C19.9361 9.46094 19.8715 9.46119 19.807 9.46172ZM35.8716 17.9118C35.8976 17.9871 35.9223 18.0628 35.9462 18.1388C34.5565 17.7289 33.1297 17.7134 33.1297 17.7134C27.7168 17.1613 25.0087 18.6817 25.0087 18.6817C20.6742 20.8535 25.0087 22.9005 25.0087 22.9005C20.8801 22.2093 17.7281 22.9735 17.7281 22.9735C15.4911 23.336 14.3243 24.2394 14.3243 24.2394C11.7545 26.0144 14.6046 27.5355 14.6046 27.5355C17.7281 29.2481 22.6303 28.6429 22.6303 28.6429C24.1273 28.6429 23.0521 27.767 23.0521 27.767C21.5089 26.6826 22.7237 25.4167 22.7237 25.4167C24.0288 24.0317 25.5713 23.8495 25.5713 23.8495C28.6973 22.8781 32.2944 23.336 32.2944 23.336C33.412 23.5213 32.4781 22.5562 32.4781 22.5562C31.7792 22.0009 32.2003 20.8005 32.2003 20.8005C33.6854 18.9232 36.1073 18.6209 36.1073 18.6209C36.1116 18.6332 36.1155 18.6454 36.1194 18.6576C36.1226 18.6669 36.1255 18.6762 36.1283 18.6854C36.0555 18.4242 35.9698 18.1663 35.8716 17.9118ZM17.0609 16.1397C16.939 16.1896 16.8083 16.2153 16.6763 16.2153C16.1169 16.2153 15.6705 15.7729 15.6705 15.227C15.6705 14.6717 16.1169 14.2288 16.6763 14.2288C16.8083 14.2288 16.939 14.2544 17.0609 14.3044C17.1829 14.3543 17.2937 14.4274 17.3871 14.5197C17.4804 14.6119 17.5544 14.7214 17.6049 14.8419C17.6555 14.9624 17.6815 15.0916 17.6815 15.222C17.6815 15.3524 17.6555 15.4816 17.6049 15.6021C17.5544 15.7226 17.4804 15.8321 17.3871 15.9243C17.2937 16.0166 17.1829 16.0897 17.0609 16.1397ZM7.01659 21.1909C7.28369 21.1909 7.53984 21.0861 7.72869 20.8995C7.91755 20.7128 8.02366 20.4597 8.02366 20.1958C8.02366 19.9319 7.91755 19.6788 7.72869 19.4922C7.53984 19.3055 7.28369 19.2007 7.01659 19.2007C6.88134 19.1959 6.74652 19.2182 6.62012 19.266C6.49377 19.3139 6.37848 19.3865 6.28109 19.4793C6.18373 19.5722 6.10627 19.6835 6.05337 19.8066C6.00048 19.9297 5.97323 20.0621 5.97323 20.1958C5.97323 20.3295 6.00048 20.4619 6.05337 20.585C6.10627 20.7081 6.18373 20.8194 6.28109 20.9123C6.37848 21.0051 6.49377 21.0777 6.62012 21.1255C6.74652 21.1734 6.88134 21.1957 7.01659 21.1909ZM16.8416 23.8493C16.5748 23.8503 16.3193 23.9555 16.1308 24.1419C15.9422 24.3283 15.8359 24.5809 15.8351 24.8444C15.8351 25.3997 16.2916 25.8371 16.8416 25.8371C17.4016 25.8371 17.8493 25.3997 17.8493 24.8444C17.8493 24.2948 17.4016 23.8493 16.8416 23.8493ZM26.1404 19.0081C26.2625 18.9583 26.3932 18.9328 26.5252 18.933C27.0834 18.933 27.5298 19.3753 27.5298 19.925C27.5298 20.1885 27.4238 20.4412 27.2353 20.6275C27.0467 20.8139 26.7909 20.9185 26.5243 20.9185C26.2576 20.9185 26.0018 20.8139 25.8133 20.6275C25.6247 20.4412 25.5188 20.1885 25.5188 19.925C25.5189 19.7945 25.5451 19.6654 25.5958 19.545C25.6464 19.4245 25.7206 19.3151 25.8141 19.223C25.9075 19.1309 26.0184 19.0579 26.1404 19.0081Z" fill="white"/>
</g>
<defs>
<clipPath id="clip0_588_19302">
<rect width="40" height="40" fill="white"/>
</clipPath>
</defs>
</svg>
