<svg width="40" height="40" viewBox="0 0 40 40" fill="none" xmlns="http://www.w3.org/2000/svg">
<g clip-path="url(#clip0_588_19220)">
<path d="M0 20C0 21.1776 0 21.3084 0.0280636 22.3084C0.1029 24.5234 0.336763 27.0654 1.22544 29.7476C1.8522 31.6449 3.03087 33.6916 4.20954 34.9813C5.70629 36.6261 7.77361 37.9718 10.0094 38.7382C12.2919 39.5232 14.7615 39.9064 19.5603 40H20.449C25.2573 39.8971 27.7175 39.5232 30 38.7382C32.2358 37.9718 34.2938 36.6261 35.7904 34.9813C36.9693 33.6823 38.1479 31.6449 38.7746 29.7476C39.6632 27.0654 39.9064 24.514 39.9718 22.3084C40 21.3178 40 21.1776 40 20C40 18.8224 40 18.6916 39.9718 17.6916C39.8971 15.4766 39.6632 12.9346 38.7746 10.2523C38.1479 8.35514 36.9693 6.30839 35.7904 5.01868C34.2938 3.37383 32.2264 2.02804 30 1.26168C27.7175 0.476636 25.2479 0.0934579 20.449 0H19.5603C14.7521 0.102804 12.2919 0.476636 10.0094 1.26168C7.77361 2.02804 5.71561 3.37383 4.20954 5.01868C3.03087 6.31775 1.8522 8.35514 1.22544 10.2523C0.346118 12.9346 0.1029 15.4766 0.0280636 17.6916C0 18.6823 0 18.8224 0 20Z" fill="#009E9F"/>
<path d="M20 40C31.0457 40 40 31.0457 40 20C40 8.95432 31.0457 0 20 0C8.95432 0 0 8.95432 0 20C0 31.0457 8.95432 40 20 40Z" fill="#009E9F"/>
<mask id="mask0_588_19220" style="mask-type:luminance" maskUnits="userSpaceOnUse" x="0" y="0" width="40" height="40">
<path d="M20 40C31.0457 40 40 31.0457 40 20C40 8.95432 31.0457 0 20 0C8.95432 0 0 8.95432 0 20C0 31.0457 8.95432 40 20 40Z" fill="white"/>
</mask>
<g mask="url(#mask0_588_19220)">
<path d="M23.5365 21.8905C23.4879 21.5787 23.3983 21.2747 23.27 20.9864C22.9046 20.1239 22.2764 19.3986 21.4749 18.9139C20.8431 18.5412 20.1219 18.3469 19.3883 18.3516C18.6547 18.3564 17.9362 18.5601 17.3093 18.9411C16.724 19.2903 16.2487 19.797 15.9374 20.4033C15.8331 20.6093 15.7461 20.8236 15.6774 21.0441C15.4864 21.6171 15.4131 22.2228 15.4619 22.8249C15.5107 23.4269 15.6806 24.0129 15.9613 24.5477C16.1564 24.8745 16.4512 25.13 16.8023 25.2767C16.9779 25.347 17.1673 25.3762 17.3559 25.3618C17.5445 25.3475 17.7273 25.2901 17.8902 25.1939C18.0709 25.0549 18.206 24.8653 18.2786 24.6492C18.3512 24.4331 18.3578 24.2003 18.2977 23.9804C18.1557 23.4222 18.1694 22.8358 18.3374 22.2849C18.401 22.1042 18.5037 21.9398 18.6382 21.8034C18.7726 21.6805 18.9324 21.5887 19.1064 21.5345C19.2803 21.4804 19.464 21.4652 19.6445 21.4901C19.8558 21.5356 20.0535 21.6303 20.2213 21.7666C20.389 21.9029 20.5223 22.077 20.61 22.2745C20.7812 22.671 20.87 23.0981 20.8711 23.53C20.8772 25.4309 20.5944 27.3217 20.0323 29.1377C19.9823 29.3243 19.9312 29.507 19.879 29.6925C19.8393 29.8339 19.7658 30.0189 19.8561 30.1538C19.8972 30.2111 19.9538 30.2555 20.0193 30.2816C20.1463 30.318 20.2815 30.3139 20.406 30.2697C20.5306 30.2255 20.6383 30.1435 20.714 30.0352C21.7779 28.9007 22.5624 27.5335 23.0051 26.0425C23.1895 25.4959 23.3365 24.9375 23.4452 24.3709C23.6152 23.5554 23.6435 22.7167 23.5289 21.8916" fill="white"/>
<path d="M31.4273 13.2429C31.4245 13.1802 31.4094 13.1188 31.3827 13.062C31.356 13.0053 31.3184 12.9544 31.272 12.9123C31.2256 12.8701 31.1713 12.8376 31.1122 12.8166C31.0532 12.7955 30.9906 12.7864 30.928 12.7897H30.9089C30.639 12.8281 30.3772 12.9102 30.1337 13.0329C25.1929 14.794 19.8903 15.2933 14.7075 14.4853C13.8339 14.3574 12.9484 14.1823 12.0693 14.0468C11.5199 13.962 10.9765 13.8369 10.4217 13.7971C9.92339 13.6991 9.4065 13.7965 8.978 14.0691C8.75885 14.309 8.62275 14.6132 8.58982 14.9365C8.55689 15.2598 8.62896 15.585 8.79525 15.8642C9.1711 16.5016 9.7136 17.0245 10.3645 17.3764C10.9678 17.8037 11.6821 18.0467 12.4207 18.076C14.3735 17.9516 16.3204 17.7632 18.2613 17.5108C21.6342 17.2375 24.9574 16.5279 28.1477 15.3996C29.1791 14.9934 30.1515 14.451 31.0389 13.7868C31.1967 13.666 31.4246 13.4713 31.4246 13.2429" fill="white"/>
<path d="M17.5234 11.5839C17.5234 12.0899 17.7244 12.5751 18.0822 12.9329C18.4399 13.2906 18.9252 13.4916 19.4312 13.4916C19.9371 13.4916 20.4223 13.2906 20.78 12.9329C21.1378 12.5751 21.3388 12.0899 21.3388 11.5839C21.3381 11.4276 21.3032 11.2733 21.2365 11.1319C21.0733 10.787 20.8867 10.6189 20.9063 10.2071C20.9303 9.65015 20.2117 9.64201 19.825 9.64201C19.3954 9.62858 18.9685 9.71326 18.5765 9.88951C18.2729 10.0436 18.015 10.2747 17.8286 10.5596C17.6396 10.854 17.5348 11.1945 17.5256 11.5442V11.5872" fill="white"/>
</g>
</g>
<defs>
<clipPath id="clip0_588_19220">
<rect width="40" height="40" fill="white"/>
</clipPath>
</defs>
</svg>
