<svg width="40" height="40" viewBox="0 0 40 40" fill="none" xmlns="http://www.w3.org/2000/svg">
<g clip-path="url(#clip0_588_19363)">
<path d="M0 20.0031C0 21.1805 0 21.3112 0.0280505 22.311C0.102852 24.5255 0.336606 27.0669 1.22487 29.7485C1.85133 31.6453 3.02945 33.6915 4.20757 34.981C5.70361 36.6255 7.77 37.9708 10.0047 38.7372C12.2861 39.5219 14.7546 39.8958 19.5512 39.9983H20.4395C25.2454 39.8958 27.7045 39.5219 29.986 38.7372C32.2207 37.9708 34.2777 36.6255 35.7832 34.981C36.9611 33.6822 38.1393 31.6453 38.7657 29.7485C39.6539 27.0669 39.8971 24.5161 39.9625 22.311C39.9907 21.3206 39.9907 21.1805 39.9907 20.0031C39.9907 18.8258 39.9907 18.695 39.9625 17.6953C39.8879 15.4808 39.6539 12.9394 38.7657 10.2577C38.1393 8.36099 36.9611 6.31474 35.7832 5.02534C34.287 3.38085 32.2207 2.03538 29.986 1.2692C27.7045 0.484337 25.2361 0.101248 20.4395 0.0078125H19.5512C14.7452 0.110592 12.2861 0.484337 10.0047 1.2692C7.77 2.03538 5.71296 3.38085 4.20757 5.02534C3.02945 6.32409 1.85133 8.36099 1.22487 10.2577C0.345956 12.9394 0.102852 15.4808 0.0280505 17.6953C0 18.6857 0 18.8258 0 20.0031Z" fill="#4041B4"/>
<path d="M10.0508 10.0625C10.0508 10.6325 10.0508 29.9457 10.0508 29.9457C10.0508 29.9457 29.1906 29.9364 29.948 29.9364V10.0625H10.0508ZM27.1429 27.1333H12.8371V12.8282H27.1429V27.1239V27.1333Z" fill="white"/>
<path d="M17.8686 25.1761L25.5264 14.8047H22.1509L14.4277 25.1481L17.8686 25.1761Z" fill="white"/>
</g>
<defs>
<clipPath id="clip0_588_19363">
<rect width="40" height="40" fill="white"/>
</clipPath>
</defs>
</svg>
