<svg width="40" height="40" viewBox="0 0 40 40" fill="none" xmlns="http://www.w3.org/2000/svg">
<g clip-path="url(#clip0_588_19240)">
<path d="M0 20C0 21.1776 0 21.3084 0.0280636 22.3084C0.1029 24.5234 0.336763 27.0654 1.22544 29.7476C1.8522 31.6449 3.03087 33.6916 4.20954 34.9813C5.70625 36.6261 7.77361 37.9718 10.0094 38.7382C12.2919 39.5232 14.7615 39.9064 19.5603 40H20.449C25.2573 39.8971 27.7175 39.5232 30 38.7382C32.2358 37.9718 34.2937 36.6261 35.7904 34.9813C36.9693 33.6823 38.1479 31.6449 38.7746 29.7476C39.6632 27.0654 39.9064 24.514 39.9718 22.3084C40 21.3178 40 21.1776 40 20C40 18.8224 40 18.6916 39.9718 17.6916C39.8971 15.4766 39.6632 12.9346 38.7746 10.2523C38.1479 8.35514 36.9693 6.30839 35.7904 5.01868C34.2937 3.37383 32.2264 2.02804 30 1.26168C27.7175 0.476636 25.2479 0.0934579 20.449 0H19.5603C14.7521 0.102804 12.2919 0.476636 10.0094 1.26168C7.77361 2.02804 5.71561 3.37383 4.20954 5.01868C3.03087 6.31775 1.8522 8.35514 1.22544 10.2523C0.346118 12.9346 0.1029 15.4766 0.0280636 17.6916C0 18.6823 0 18.8224 0 20Z" fill="url(#paint0_linear_588_19240)"/>
<mask id="mask0_588_19240" style="mask-type:luminance" maskUnits="userSpaceOnUse" x="7" y="11" width="26" height="17">
<path d="M32.5 11.0703H7.5V27.1417H32.5V11.0703Z" fill="white"/>
</mask>
<g mask="url(#mask0_588_19240)">
<path d="M15.189 23.9249L15.1436 23.9684C14.4315 24.6865 13.6074 25.066 12.7585 25.066C10.9856 25.066 9.6995 23.7496 9.6995 21.9339C9.6995 20.121 10.9856 18.8025 12.7585 18.8025C13.6074 18.8025 14.4315 19.184 15.1436 19.905L15.189 19.9478L16.3291 18.583L16.2986 18.5465C15.3505 17.4378 14.2125 16.8984 12.8138 16.8984C11.4115 16.8984 10.1275 17.3662 9.2035 18.2085C8.19729 19.1216 7.66797 20.4092 7.66797 21.9339C7.66797 23.4585 8.19729 24.749 9.2035 25.6621C10.1275 26.5093 11.4115 26.9735 12.8138 26.9735C14.2125 26.9735 15.3505 26.4335 16.2986 25.324L16.3291 25.2904L15.189 23.9249Z" fill="white"/>
<path d="M17.4805 26.7861H19.4943V17.0547H17.4805V26.7861Z" fill="white"/>
<path d="M27.3829 24.6738C26.8451 24.9978 26.3455 25.1612 25.8963 25.1612C25.2451 25.1612 24.9503 24.8204 24.9503 24.063V18.8992H27.0031V17.0673H24.9503V14.0391L22.9769 15.0854V17.0673H21.2734V18.8992H22.9769V24.3919C22.9769 25.8878 23.8726 26.9117 25.2104 26.9383C26.1181 26.9559 26.6651 26.688 26.9968 26.4916L27.018 26.4783L27.502 24.6016L27.3829 24.6738Z" fill="white"/>
<path d="M29.0508 26.7861H31.0675V17.0547H29.0508V26.7861Z" fill="white"/>
<path d="M32.2425 15.3525C30.4023 12.7731 27.3469 11.2344 24.2383 11.2344C21.1304 11.2344 18.0742 12.7731 16.2375 15.3525L16.1426 15.4851H18.4597L18.4852 15.4577C20.0618 13.8461 22.121 12.9947 24.2383 12.9947C26.3555 12.9947 28.4133 13.8461 29.9934 15.4577L30.019 15.4851H32.3346L32.2425 15.3525Z" fill="#EE1C25"/>
</g>
</g>
<defs>
<linearGradient id="paint0_linear_588_19240" x1="20" y1="0" x2="20" y2="40" gradientUnits="userSpaceOnUse">
<stop stop-color="#02BDF4"/>
<stop offset="1" stop-color="#014B8A"/>
</linearGradient>
<clipPath id="clip0_588_19240">
<rect width="40" height="40" fill="white"/>
</clipPath>
</defs>
</svg>
