<svg width="40" height="40" viewBox="0 0 40 40" fill="none" xmlns="http://www.w3.org/2000/svg">
<g clip-path="url(#clip0_588_19372)">
<path d="M0 20.0031C0 21.1805 0 21.3112 0.0280505 22.311C0.102852 24.5255 0.336606 27.0669 1.22487 29.7485C1.85133 31.6453 3.02945 33.6915 4.20757 34.981C5.70361 36.6255 7.77 37.9708 10.0047 38.7372C12.2861 39.5219 14.7546 39.8958 19.5512 39.9983H20.4395C25.2454 39.8958 27.7045 39.5219 29.986 38.7372C32.2207 37.9708 34.2777 36.6255 35.7832 34.981C36.9611 33.6822 38.1393 31.6453 38.7657 29.7485C39.6539 27.0669 39.8971 24.5161 39.9625 22.311C39.9907 21.3206 39.9907 21.1805 39.9907 20.0031C39.9907 18.8258 39.9907 18.695 39.9625 17.6953C39.8879 15.4808 39.6539 12.9394 38.7657 10.2577C38.1393 8.36099 36.9611 6.31474 35.7832 5.02534C34.287 3.38085 32.2207 2.03538 29.986 1.2692C27.7045 0.484337 25.2361 0.101248 20.4395 0.0078125H19.5512C14.7452 0.110592 12.2861 0.484337 10.0047 1.2692C7.77 2.03538 5.71296 3.38085 4.20757 5.02534C3.02945 6.32409 1.85133 8.36099 1.22487 10.2577C0.345956 12.9394 0.102852 15.4808 0.0280505 17.6953C0 18.6857 0 18.8258 0 20.0031Z" fill="#C40103"/>
<path d="M19.9911 8.57033C13.6604 8.57033 8.56249 13.6584 8.57228 19.9695C8.57228 26.2708 13.6701 31.398 19.9715 31.4274C26.2729 31.4567 31.4392 26.2806 31.4294 19.9499C31.4196 13.629 26.3218 8.56054 19.9911 8.57033ZM19.9911 29.7639C14.6095 29.7639 10.2064 25.3511 10.2064 19.9695C10.2064 14.5879 14.6192 10.1946 20.0009 10.2044C25.3922 10.2044 29.7856 14.6075 29.7758 19.989C29.7758 25.3706 25.3629 29.7639 19.9813 29.7639" fill="white"/>
<path d="M15.7334 22.4384H19.2656V17.2525H15.9389V15.3347H19.2559V13.9453H14.2754V18.8866H17.4555V20.8827H14.2559V25.5989H19.2656V24.1018H15.7334V22.4384Z" fill="white"/>
<path d="M24.4425 22.4384H20.9004V17.2525H24.2272V15.3347H20.9102V13.9453H25.8906V18.8866H22.7106V20.8827H25.9102V25.5989H20.9004V24.1018H24.4425V22.4384Z" fill="white"/>
</g>
<defs>
<clipPath id="clip0_588_19372">
<rect width="40" height="40" fill="white"/>
</clipPath>
</defs>
</svg>
