<svg width="40" height="40" viewBox="0 0 40 40" fill="none" xmlns="http://www.w3.org/2000/svg">
<g clip-path="url(#clip0_591_6119)">
<path d="M0 20C0 21.1776 0 21.3084 0.0280636 22.3084C0.1029 24.5234 0.336763 27.0654 1.22544 29.7476C1.8522 31.6449 3.03087 33.6916 4.20954 34.9813C5.70629 36.6261 7.77361 37.9718 10.0094 38.7382C12.2919 39.5232 14.7615 39.9064 19.5603 40H20.449C25.2573 39.8971 27.7175 39.5232 30 38.7382C32.2358 37.9718 34.2938 36.6261 35.7904 34.9813C36.9693 33.6823 38.1479 31.6449 38.7746 29.7476C39.6632 27.0654 39.9064 24.514 39.9718 22.3084C40 21.3178 40 21.1776 40 20C40 18.8224 40 18.6916 39.9718 17.6916C39.8971 15.4766 39.6632 12.9346 38.7746 10.2523C38.1479 8.35514 36.9693 6.30839 35.7904 5.01868C34.2938 3.37383 32.2264 2.02804 30 1.26168C27.7175 0.476636 25.2479 0.0934579 20.449 0H19.5603C14.7521 0.102804 12.2919 0.476636 10.0094 1.26168C7.77361 2.02804 5.71561 3.37383 4.20954 5.01868C3.03087 6.31775 1.8522 8.35514 1.22544 10.2523C0.346118 12.9346 0.1029 15.4766 0.0280636 17.6916C0 18.6823 0 18.8224 0 20Z" fill="#FFEB00"/>
<mask id="mask0_591_6119" style="mask-type:luminance" maskUnits="userSpaceOnUse" x="5" y="15" width="30" height="10">
<path d="M35 15.5391H5V24.7753H35V15.5391Z" fill="white"/>
</mask>
<g mask="url(#mask0_591_6119)">
<path fill-rule="evenodd" clip-rule="evenodd" d="M9.58261 15.5391C7.05111 15.5391 5 17.1599 5 19.1588C5 20.4433 5.85011 21.5712 7.12629 22.2146L6.69393 23.827C6.67721 23.8772 6.69186 23.9294 6.72736 23.9649C6.75243 23.99 6.78582 24.0025 6.82136 24.0025C6.8485 24.0025 6.87564 23.992 6.90071 23.9732L8.75757 22.72C9.027 22.7576 9.30271 22.7806 9.58261 22.7806C12.112 22.7806 14.1652 21.1597 14.1652 19.1609C14.1652 17.162 12.112 15.5391 9.58261 15.5391Z" fill="black"/>
<path d="M18.026 22.1656V24.5028H16.3613V15.8848H17.5351L17.7399 16.4321C18.0929 16.0791 18.6296 15.7031 19.4965 15.7031C21.1277 15.7031 21.9026 16.9229 21.8901 18.8947C21.8901 20.9583 20.6933 22.2804 18.9826 22.2804C18.6526 22.2804 18.402 22.2575 18.026 22.1656ZM18.026 17.2738V21.0022C18.1179 21.0126 18.3456 21.0356 18.5628 21.0356C19.7492 21.0356 20.2045 20.2043 20.2045 18.8926C20.2045 17.7417 19.8975 17.0462 18.9513 17.0462C18.6443 17.0462 18.3017 17.1381 18.0281 17.2738H18.026Z" fill="black"/>
<path d="M25.5145 18.3119H26.4607V18.1072C26.4607 17.4242 26.0722 17.1046 25.3996 17.1046C24.8858 17.1046 24.2258 17.2529 23.689 17.5161L23.2336 16.3987C23.8268 15.9872 24.7375 15.7031 25.5479 15.7031C27.1437 15.7031 28.0105 16.5469 28.0105 18.1553V22.1113H26.8367L26.6654 21.587C25.9928 22.0778 25.3767 22.2825 24.819 22.2825C23.5992 22.2825 22.9141 21.5536 22.9141 20.3212C22.9141 19.0096 23.8268 18.314 25.5124 18.314L25.5145 18.3119ZM26.4607 20.5113V19.3709H25.6962C24.842 19.3709 24.4075 19.6779 24.4075 20.2941C24.4075 20.7619 24.6477 20.9896 25.1365 20.9896C25.5918 20.9896 26.1745 20.7619 26.4586 20.5113H26.4607Z" fill="black"/>
<path d="M33.0487 21.4718C32.468 23.0216 31.7725 24.1515 30.7574 24.7782L29.7318 23.832C30.325 23.3182 30.7469 22.8169 31.1104 22.1443L28.8984 16.1142L30.5506 15.6693L31.9647 20.5611L33.3662 15.6484L34.9974 16.1038L33.0487 21.4738V21.4718Z" fill="black"/>
</g>
</g>
<defs>
<clipPath id="clip0_591_6119">
<rect width="40" height="40" fill="white"/>
</clipPath>
</defs>
</svg>
