<svg width="40" height="40" viewBox="0 0 40 40" fill="none" xmlns="http://www.w3.org/2000/svg">
<g clip-path="url(#clip0_591_6223)">
<path d="M0 20.0022C0 21.1822 0 21.3122 0.03 22.3122C0.07 24.8322 0.47 27.3422 1.23 29.7522C1.88 31.6722 2.89 33.4522 4.21 34.9922C5.8 36.7022 7.79 37.9922 10 38.7522C12.28 39.5322 14.75 39.9122 19.55 40.0122H20.44C25.24 39.9122 27.71 39.5322 29.99 38.7522C32.2 37.9922 34.19 36.7022 35.78 34.9922C37.1 33.4522 38.12 31.6822 38.76 29.7522C39.52 27.3422 39.92 24.8422 39.96 22.3122C39.99 21.3222 39.99 21.1822 39.99 20.0022C39.99 18.8222 39.99 18.6922 39.96 17.7022C39.92 15.1822 39.52 12.6722 38.76 10.2622C38.11 8.34218 37.1 6.56218 35.78 5.02218C34.19 3.31219 32.2 2.02219 29.99 1.26219C27.71 0.472186 25.24 0.0921876 20.44 -0.0078125H19.55C14.75 0.0921876 12.28 0.472186 10 1.25219C7.79 2.01219 5.8 3.30219 4.21 5.01218C2.89 6.55218 1.87 8.32218 1.23 10.2522C0.47 12.6722 0.07 15.1722 0.03 17.7022C0 18.6922 0 18.8322 0 20.0022Z" fill="#0F206C"/>
<path d="M9.30922 16.5703H5.19922C5.19922 16.5703 5.85922 17.2803 5.85922 17.6503V23.5903H9.24922C9.24922 23.5903 12.6192 23.5203 12.6192 20.1803C12.6192 18.3003 11.1792 16.7303 9.29922 16.5703M9.29922 22.6003H7.12922V17.5103C7.12922 17.5103 7.89922 17.4603 8.70922 17.4603C10.0492 17.4103 11.1792 18.4603 11.2192 19.8103C11.2192 19.9303 11.2192 20.0403 11.2092 20.1603C11.2092 22.6103 9.29922 22.6103 9.29922 22.6103" fill="white"/>
<path d="M18.8805 23.6603H20.3605L16.9805 16.5703H15.2605C15.4905 16.7603 15.6405 17.0303 15.6805 17.3303C15.6805 17.7603 12.8105 23.6603 12.8105 23.6603H13.9305L14.6305 22.1203H18.1405L18.8805 23.6603ZM15.0205 21.2703L16.3505 18.3603L17.7405 21.2703H15.0205Z" fill="white"/>
<path d="M24.4597 16.1254C22.3197 16.0954 20.5597 17.8154 20.5297 19.9554C20.4997 22.0954 22.2197 23.8554 24.3597 23.8854C26.4997 23.9154 28.2597 22.1954 28.2897 20.0554C28.2897 20.0354 28.2897 20.0254 28.2897 20.0054C28.2997 17.8754 26.5897 16.1454 24.4597 16.1254ZM24.3797 22.5654C22.9597 22.5654 21.8197 21.4154 21.8197 19.9954C21.8197 18.5754 22.9697 17.4354 24.3897 17.4354C25.8097 17.4354 26.9497 18.5854 26.9497 20.0054C26.9497 21.4254 25.7997 22.5654 24.3797 22.5654Z" fill="white"/>
<path d="M28.9902 16.5703C29.2902 16.8303 29.4802 17.1903 29.5302 17.5803V23.7303H34.8002V22.6803H30.9402V16.5703H29.0002H28.9902Z" fill="white"/>
</g>
<defs>
<clipPath id="clip0_591_6223">
<rect width="40" height="40" fill="white"/>
</clipPath>
</defs>
</svg>
