<svg width="40" height="40" viewBox="0 0 40 40" fill="none" xmlns="http://www.w3.org/2000/svg">
<g clip-path="url(#clip0_591_6052)">
<path d="M0 19.9922C0 21.1616 0 21.3015 0.0300075 22.301C0.0700175 24.8198 0.470118 27.3285 1.23031 29.7373C1.88047 31.6564 2.89072 33.4355 4.21104 34.9747C5.80146 36.684 7.79196 37.9733 10.0025 38.7329C12.2831 39.5126 14.7537 39.8922 19.5549 39.9922H20.4451C25.2463 39.8922 27.7169 39.5126 29.9975 38.7329C32.208 37.9733 34.1985 36.684 35.7889 34.9747C37.1093 33.4355 38.1296 31.6664 38.7696 29.7373C39.53 27.3285 39.94 24.8298 39.97 22.301C40 21.3115 40 21.1716 40 19.9922C40 18.8128 40 18.6829 39.97 17.6834C39.94 15.1646 39.53 12.6559 38.7696 10.2471C38.1196 8.32804 37.1093 6.54889 35.7889 5.00968C34.1985 3.30053 32.208 2.01118 29.9975 1.25156C27.7169 0.461954 25.2463 0.0921376 20.4451 -0.0078125H19.5549C14.7537 0.0921376 12.2831 0.471947 10.0025 1.25156C7.79196 2.01118 5.80146 3.30053 4.21104 5.00968C2.89072 6.54889 1.87047 8.31804 1.23031 10.2471C0.470118 12.6559 0.0700175 15.1646 0.0300075 17.6834C0 18.6729 0 18.8128 0 19.9922Z" fill="#143B9B"/>
<path d="M9.53461 19.8162L11.3444 18.6018V17.2188L7.5 19.805L11.3444 22.425V21.0419L9.53461 19.805V19.8162Z" fill="white"/>
<path d="M32.4994 19.8518L19.9993 11.4297L11.3438 17.2319V18.6149L19.9993 12.8128L30.4647 19.8631L19.9993 26.9584L11.3438 21.055V22.4381L19.9993 28.3414L32.4994 19.8631V19.8518Z" fill="white"/>
<path d="M23.248 19.1594L23.9 19.5867L17.5938 23.972L20.0555 25.6362L28.52 19.834L22.6635 15.8984L20.5726 17.3827L21.382 17.9225H21.3932L23.2592 19.1594H23.248ZM22.6635 16.0221L28.3514 19.8453L20.0443 25.535L17.7511 23.9833L24.0686 19.5979L20.7412 17.394L22.6635 16.0334V16.0221Z" fill="white"/>
<path d="M17.752 23.969L20.0563 25.5207L28.3635 19.831L22.6755 16.0078L20.7421 17.3796L24.0694 19.5836L17.752 23.969ZM20.8994 17.3796L22.6643 16.1315L28.1836 19.8422L20.0451 25.4195L17.9093 23.9802L24.2268 19.5948L20.8994 17.3909V17.3796Z" fill="white"/>
<path d="M16.9089 23.5035L23.2488 19.1631L21.3828 17.9262L19.9664 18.8595L18.3477 17.7913L21.8887 15.3625L19.9552 14.0469L11.502 19.8378L16.9089 23.5035ZM18.1903 19.9727L16.7852 20.9285L15.3127 19.9278L16.7178 18.972L18.1903 19.9727Z" fill="white"/>
<path d="M23.2483 19.1544L21.3823 17.9062H21.3711L23.2371 19.1544H23.2483Z" fill="white"/>
</g>
<defs>
<clipPath id="clip0_591_6052">
<rect width="40" height="40" fill="white"/>
</clipPath>
</defs>
</svg>
