<svg width="40" height="40" viewBox="0 0 40 40" fill="none" xmlns="http://www.w3.org/2000/svg">
<g clip-path="url(#clip0_591_6140)">
<path d="M0 20C0 21.1776 0 21.3084 0.0280636 22.3084C0.1029 24.5234 0.336763 27.0654 1.22544 29.7476C1.8522 31.6449 3.03087 33.6916 4.20954 34.9813C5.70629 36.6261 7.77361 37.9718 10.0094 38.7382C12.2919 39.5232 14.7615 39.9064 19.5603 40H20.449C25.2573 39.8971 27.7175 39.5232 30 38.7382C32.2358 37.9718 34.2938 36.6261 35.7904 34.9813C36.9693 33.6823 38.1479 31.6449 38.7746 29.7476C39.6632 27.0654 39.9064 24.514 39.9718 22.3084C40 21.3178 40 21.1776 40 20C40 18.8224 40 18.6916 39.9718 17.6916C39.8971 15.4766 39.6632 12.9346 38.7746 10.2523C38.1479 8.35514 36.9693 6.30839 35.7904 5.01868C34.2938 3.37383 32.2264 2.02804 30 1.26168C27.7175 0.476636 25.2479 0.0934579 20.449 0H19.5603C14.7521 0.102804 12.2919 0.476636 10.0094 1.26168C7.77361 2.02804 5.71561 3.37383 4.20954 5.01868C3.03087 6.31775 1.8522 8.35514 1.22544 10.2523C0.346118 12.9346 0.1029 15.4766 0.0280636 17.6916C0 18.6823 0 18.8224 0 20Z" fill="#0064FF"/>
<mask id="mask0_591_6140" style="mask-type:luminance" maskUnits="userSpaceOnUse" x="7" y="8" width="26" height="24">
<path d="M32.1431 8.75H7.85742V31.6071H32.1431V8.75Z" fill="white"/>
</mask>
<g mask="url(#mask0_591_6140)">
<path d="M32.1431 8.75H7.85742V31.6071H32.1431V8.75Z" fill="#0064FF"/>
<path d="M21.3305 13.7578L22.3427 8.97972C22.3882 8.73972 22.1836 8.5224 21.9446 8.57954C20.4775 8.8424 18.9535 9.29972 17.4409 9.95129C10.64 12.8433 6.52306 18.513 8.2517 22.6166C9.55963 25.6915 13.7789 27.0061 18.6806 26.2402L17.6685 31.0183C17.623 31.2583 17.8277 31.4755 18.0666 31.4184C19.5337 31.1555 21.0577 30.6983 22.5703 30.0467C29.3713 27.1546 33.477 21.485 31.7483 17.37C30.4517 14.3065 26.2321 12.9919 21.3305 13.7578Z" fill="white"/>
</g>
</g>
<defs>
<clipPath id="clip0_591_6140">
<rect width="40" height="40" fill="white"/>
</clipPath>
</defs>
</svg>
