<svg width="40" height="40" viewBox="0 0 40 40" fill="none" xmlns="http://www.w3.org/2000/svg">
<g clip-path="url(#clip0_588_19260)">
<mask id="mask0_588_19260" style="mask-type:luminance" maskUnits="userSpaceOnUse" x="0" y="0" width="40" height="40">
<path d="M40 0H0V40H40V0Z" fill="white"/>
</mask>
<g mask="url(#mask0_588_19260)">
<path d="M0 20.0031C0 21.1804 0 21.3112 0.0280505 22.311C0.102852 24.5254 0.336606 27.0669 1.22487 29.7485C1.85133 31.6453 3.02945 33.6915 4.20757 34.9809C5.70361 36.6253 7.77 37.971 10.0047 38.7371C12.2861 39.5221 14.7546 39.9049 19.5512 39.9985H20.4395C25.2454 39.8956 27.7045 39.5221 29.986 38.7371C32.2207 37.971 34.2777 36.6253 35.7832 34.9809C36.9611 33.6822 38.1393 31.6453 38.7657 29.7485C39.6539 27.0669 39.8971 24.5161 39.9625 22.311C39.9907 21.3206 39.9907 21.1804 39.9907 20.0031C39.9907 18.8258 39.9907 18.695 39.9625 17.6953C39.8879 15.4808 39.6539 12.9394 38.7657 10.2578C38.1393 8.36098 36.9611 6.31473 35.7832 5.02534C34.287 3.38085 32.2207 2.03538 29.986 1.2692C27.7045 0.484336 25.2361 0.101249 20.4395 0.0078125H19.5512C14.7452 0.110592 12.2861 0.484336 10.0047 1.2692C7.77 2.03538 5.71296 3.38085 4.20757 5.02534C3.02945 6.32409 1.85133 8.36098 1.22487 10.2578C0.345956 12.9394 0.102852 15.4808 0.0280505 17.6953C0 18.6857 0 18.8258 0 20.0031Z" fill="#E3333F"/>
<path d="M31.7527 23.3109L29.4244 20.5078H29.4058L28.7793 21.9561C28.7793 21.9561 28.7793 21.9748 28.7793 21.9841L29.7985 23.2735C29.8733 23.367 29.9481 23.395 30.0696 23.395" fill="white"/>
<path d="M30.0976 16.6094C29.1158 16.6094 28.5922 16.9084 28.293 17.5344L26.4417 21.7951C26.3295 22.0474 26.1705 22.1688 25.8433 22.1688V16.6748C25.8433 16.6748 25.8152 16.6094 25.7685 16.6094H24.4127C24.4127 16.6094 24.3379 16.6374 24.3379 16.6748V23.2621C24.3379 23.3274 24.394 23.3835 24.4688 23.3835H25.9929C26.9746 23.3835 27.4235 23.0845 27.7226 22.4585L29.5459 18.2539C29.6955 17.9549 29.9012 17.8241 30.3314 17.8241" fill="white"/>
<path d="M13.7253 19.9996C14.2676 19.7847 14.7257 19.3082 14.7257 18.5139C14.7257 17.3273 13.6411 16.6172 12.3508 16.6172H8.33024C8.33024 16.6172 8.25545 16.6452 8.25545 16.6826V17.7571C8.25545 17.7571 8.28349 17.8225 8.33024 17.8225H12.0703C12.6687 17.8225 13.0801 18.1682 13.0801 18.598C13.0801 19.0278 12.6687 19.3735 12.0703 19.3735H9.84495V18.57C9.84495 18.57 9.81692 18.5046 9.77017 18.5046H8.32088C8.32088 18.5046 8.24609 18.5326 8.24609 18.57V23.3165C8.24609 23.3165 8.27413 23.3819 8.32088 23.3819H12.2853C13.7627 23.3819 14.8286 22.7373 14.8286 21.4104C14.8286 20.7564 14.4172 20.2238 13.7253 19.9996ZM12.1451 22.2047H9.84495V20.6163H12.1451C12.7622 20.6163 13.183 20.9713 13.183 21.4104C13.183 21.8496 12.7622 22.2047 12.1451 22.2047Z" fill="white"/>
<path d="M17.3813 18.5078H16.0162C16.0162 18.5078 15.9414 18.5358 15.9414 18.5732V23.3198C15.9414 23.3198 15.9694 23.3852 16.0162 23.3852H17.3813C17.3813 23.3852 17.4561 23.3572 17.4561 23.3198V18.5732C17.4561 18.5732 17.4281 18.5078 17.3813 18.5078Z" fill="white"/>
<path d="M22.9727 16.6109H21.6169C21.6169 16.6109 21.5422 16.639 21.5422 16.6763V22.1703C21.2243 22.1703 21.0653 22.0489 20.9531 21.7966L19.1018 17.5359C18.8025 16.9099 18.2789 16.6109 17.2972 16.6109H16.0162C16.0162 16.6109 15.9414 16.639 15.9414 16.6763V17.7508C15.9414 17.7508 15.9694 17.8162 16.0162 17.8162H17.0541C17.4842 17.8162 17.6992 17.9471 17.8395 18.246L19.6628 22.4507C19.962 23.0767 20.4108 23.3757 21.3925 23.3757H22.9166C22.9821 23.3757 23.0382 23.3196 23.0382 23.2542V16.667C23.0382 16.667 23.0101 16.6016 22.9634 16.6016" fill="white"/>
</g>
</g>
<defs>
<clipPath id="clip0_588_19260">
<rect width="40" height="40" fill="white"/>
</clipPath>
</defs>
</svg>
