<svg width="40" height="40" viewBox="0 0 40 40" fill="none" xmlns="http://www.w3.org/2000/svg">
<g clip-path="url(#clip0_588_19368)">
<path d="M0 20.0031C0 21.1805 0 21.3112 0.0280505 22.311C0.102852 24.5255 0.336606 27.0669 1.22487 29.7485C1.85133 31.6453 3.02945 33.6915 4.20757 34.981C5.70361 36.6255 7.77 37.9708 10.0047 38.7372C12.2861 39.5219 14.7546 39.8958 19.5512 39.9983H20.4395C25.2454 39.8958 27.7045 39.5219 29.986 38.7372C32.2207 37.9708 34.2777 36.6255 35.7832 34.981C36.9611 33.6822 38.1393 31.6453 38.7657 29.7485C39.6539 27.0669 39.8971 24.5161 39.9625 22.311C39.9907 21.3206 39.9907 21.1805 39.9907 20.0031C39.9907 18.8258 39.9907 18.695 39.9625 17.6953C39.8879 15.4808 39.6539 12.9394 38.7657 10.2577C38.1393 8.36099 36.9611 6.31474 35.7832 5.02534C34.287 3.38085 32.2207 2.03538 29.986 1.2692C27.7045 0.484337 25.2361 0.101248 20.4395 0.0078125H19.5512C14.7452 0.110592 12.2861 0.484337 10.0047 1.2692C7.77 2.03538 5.71296 3.38085 4.20757 5.02534C3.02945 6.32409 1.85133 8.36099 1.22487 10.2577C0.345956 12.9394 0.102852 15.4808 0.0280505 17.6953C0 18.6857 0 18.8258 0 20.0031Z" fill="#DF242E"/>
<path d="M32.4905 18.8629C31.8561 18.4938 31.2689 18.1532 30.6913 17.803C30.5398 17.7084 30.4072 17.6989 30.2462 17.7652C29.0057 18.3046 27.7273 18.7872 26.5246 19.3928C23.4849 20.9258 20.7007 22.8658 18.0303 24.9571C17.983 24.995 17.9451 25.0328 17.8977 25.0896C18.5322 25.5817 19.1572 26.0548 19.7633 26.5469C19.9243 26.6794 20.0095 26.651 20.161 26.5469C21.5341 25.506 22.8883 24.4272 24.3087 23.443C26.6761 21.8059 29.1572 20.3392 31.7993 19.1563C32.017 19.0616 32.2254 18.967 32.5 18.8534M14.0909 22.3832C14.6496 22.7712 15.1894 23.1308 15.7197 23.5093C15.8712 23.6134 15.9659 23.6039 16.108 23.4998C16.9318 22.8847 17.7557 22.2602 18.5985 21.6734C21.6099 19.5726 24.8011 17.8125 28.3144 16.6864C28.3712 16.6675 28.4091 16.6391 28.4943 16.5918C27.9072 16.2984 27.358 16.0145 26.7993 15.7495C26.714 15.7117 26.5909 15.7212 26.4962 15.7495C25.3693 16.1375 24.233 16.4782 23.1345 16.9324C20.1989 18.1532 17.5189 19.8187 14.9716 21.7113C14.678 21.9289 14.3845 22.156 14.0814 22.3926M10.5776 20.3486C11.089 20.642 11.5625 20.8975 12.0265 21.1814C12.197 21.2854 12.3011 21.276 12.4621 21.153C13.2955 20.5379 14.1383 19.9417 15 19.3739C15.9754 18.7304 18.0682 17.557 18.1061 17.5192C17.6136 17.3015 17.1307 17.0933 16.6667 16.8662C16.4962 16.781 16.3636 16.7999 16.2026 16.8851C14.6686 17.7179 13.5795 18.3424 12.2159 19.2225C11.6099 19.6105 11.3163 19.8187 10.5682 20.3392M14.8106 16.147C14.3182 15.9956 13.892 15.8537 13.4564 15.7495C13.3239 15.7212 13.1534 15.7306 13.0303 15.7874C12.1875 16.1849 11.3731 16.6012 10.5587 17.046C9.59279 17.5854 7.57575 18.825 7.5 18.8818C7.9735 19.09 8.41857 19.2982 8.87311 19.4875C8.93939 19.5159 9.0625 19.4875 9.12879 19.4402C9.43182 19.2509 9.73486 19.0427 10.0379 18.8534C11.553 17.8788 13.1061 16.9514 14.8106 16.147ZM15.0758 14.8695C15.2273 14.9168 15.3125 14.9357 15.3883 14.9641C16.6383 15.3994 17.8977 15.7779 19.1099 16.2889C19.7159 16.5444 20.0663 16.6296 20.6629 16.3268C21.1932 16.0997 21.2689 16.0618 21.6004 15.9104C21.5057 15.8537 21.4583 15.8253 21.411 15.8063C19.9432 15.1534 18.428 14.6424 16.875 14.2449C16.8182 14.226 16.7424 14.2165 16.6951 14.2449C16.1743 14.4437 15.6534 14.6518 15.0758 14.8695ZM24.8295 14.8695C24.7443 14.8222 23.1345 14.1787 22.358 13.9137C21.6193 13.6582 20.8712 13.4311 20.1042 13.2418C20.0379 13.2229 19.9621 13.204 19.8958 13.2134C19.6496 13.2797 19.4034 13.3459 19.1572 13.4122C18.9205 13.4784 18.6553 13.5541 18.4091 13.6204C18.5322 13.6582 19.4981 13.9327 19.9811 14.084C21.0701 14.4247 22.1496 14.8222 23.2007 15.2764C23.267 15.3048 23.3523 15.3048 23.428 15.2764C23.8731 15.1534 24.3182 15.0209 24.8201 14.8695" fill="white"/>
</g>
<defs>
<clipPath id="clip0_588_19368">
<rect width="40" height="40" fill="white"/>
</clipPath>
</defs>
</svg>
